<svg width="247" height="196" viewBox="0 0 247 196" fill="none" xmlns="http://www.w3.org/2000/svg">
<path d="M231.457 115.632C231.457 172.924 179.1 195.571 121.846 195.571C64.593 195.571 15.209 172.924 15.209 115.632C15.209 58.3405 64.593 0 121.846 0C179.1 0 231.457 58.3405 231.457 115.632Z" fill="#19171C"/>
<path d="M34.5735 22.1285H9.62402V48.1544H34.5735V22.1285Z" fill="#19171C"/>
<path d="M32.8841 22.1285H7.93457V48.1544H32.8841V22.1285Z" fill="#33353E"/>
<path d="M32.8914 48.1617H7.94552V22.1068H32.9095L32.8914 48.1617ZM7.94189 48.1617H32.8733V22.1358H7.94552V48.1617H7.94189Z" fill="#33353E"/>
<path d="M29.5298 25.6267H11.2891V44.6526H29.5298V25.6267Z" fill="#19171C"/>
<path d="M11.2888 44.7832C11.1619 44.9719 11.0132 45.1497 10.8464 45.3058C10.5563 45.6142 10.1465 46.0315 9.6896 46.4815C9.23268 46.9315 8.80839 47.3379 8.49652 47.6246C8.32971 47.7915 8.14476 47.9367 7.94531 48.0637C8.07224 47.8714 8.22092 47.6972 8.39136 47.5411C8.68509 47.2327 9.09487 46.8154 9.55543 46.3618C10.016 45.9082 10.4366 45.5054 10.7485 45.2187C10.9081 45.0518 11.0894 44.903 11.2888 44.7832Z" fill="#19171C"/>
<path d="M29.5293 44.7361C29.7251 44.8631 29.9064 45.0155 30.066 45.186C30.3742 45.4763 30.7913 45.8864 31.2409 46.3436C31.6906 46.8009 32.0968 47.2254 32.3833 47.5375C32.5501 47.6972 32.6951 47.8714 32.8221 48.0637C32.6299 47.9367 32.4558 47.7879 32.2999 47.6173C31.9916 47.327 31.5746 46.917 31.1213 46.4561C30.668 45.9953 30.2655 45.5707 29.979 45.2586C29.8085 45.1062 29.6562 44.9284 29.5293 44.7361Z" fill="#19171C"/>
<path d="M29.4785 25.6775C29.6091 25.4852 29.7577 25.311 29.9282 25.155C30.2183 24.8465 30.6281 24.4292 31.0886 23.9792C31.5492 23.5293 31.9698 23.1228 32.2781 22.8362C32.4376 22.6692 32.6153 22.5204 32.8075 22.3971C32.677 22.5894 32.5283 22.7636 32.3579 22.9196C32.0678 23.2281 31.658 23.6454 31.1974 24.099C30.7369 24.5526 30.3126 24.9554 30.0043 25.2421C29.8484 25.409 29.6707 25.5541 29.4785 25.6775Z" fill="#19171C"/>
<path d="M11.2381 25.7356C11.0459 25.6086 10.8718 25.4562 10.7159 25.2856C10.4076 24.9953 9.99059 24.5852 9.53729 24.1244C9.084 23.6635 8.67059 23.2317 8.39861 22.9232C8.22454 22.7672 8.07224 22.5894 7.94531 22.3934C8.14114 22.5168 8.31883 22.6656 8.47839 22.8325C8.78663 23.1228 9.20367 23.5329 9.65696 23.9937C10.1103 24.4546 10.5164 24.8792 10.7993 25.1876C10.9661 25.3509 11.1148 25.536 11.2381 25.7356Z" fill="#19171C"/>
<path d="M29.4792 44.6562V43.27C29.4792 42.3701 29.4792 41.0564 29.4574 39.3908C29.4574 36.0596 29.4574 31.3131 29.4248 25.6267L29.4937 25.6993H11.3038L11.3835 25.6195V44.649L11.3146 44.58L24.4856 44.6127H29.4175C29.4465 44.609 29.4755 44.609 29.5046 44.6127H24.5292L11.3146 44.649H11.2095V25.5469H29.5517V25.6158C29.5517 31.3203 29.5263 36.0813 29.5191 39.4271C29.5191 41.0855 29.5191 42.3918 29.4973 43.2882V44.5582C29.4937 44.5909 29.4864 44.6236 29.4792 44.6562Z" fill="#19171C"/>
<path d="M23.4483 32.0969H17.3633V38.186H23.4483V32.0969Z" fill="#33353E"/>
<path d="M244.418 21.3447H216.328V62.089H244.418V21.3447Z" fill="#19171C"/>
<path d="M243.011 21.3447H214.921V62.089H243.011V21.3447Z" fill="#33353E"/>
<path d="M239.526 25.7574H218.413V57.6764H239.526V25.7574Z" fill="#19171C"/>
<path d="M239.523 57.6692V55.3105C239.523 53.7791 239.523 51.551 239.501 48.735C239.501 43.1067 239.501 35.1342 239.468 25.7501L239.537 25.8191H218.428L218.504 25.7429C218.504 37.7833 218.504 48.8874 218.486 57.6764L218.428 57.6148L233.793 57.6474H239.537H233.855L218.453 57.6801H218.392V57.6692C218.392 48.8947 218.392 37.7905 218.374 25.7356V25.6594H239.631V25.7283C239.631 35.1342 239.606 43.1176 239.599 48.7604C239.599 51.5691 239.599 53.7936 239.581 55.3177V57.4986C239.581 57.6002 239.523 57.6692 239.523 57.6692Z" fill="#19171C"/>
<path d="M243.091 21.3447C242.946 21.6023 242.779 21.8455 242.591 22.0705C242.264 22.5095 241.804 23.101 241.274 23.7433C240.745 24.3856 240.252 24.9554 239.885 25.3618C239.697 25.5904 239.49 25.8009 239.265 25.9932C239.425 25.7428 239.602 25.5069 239.802 25.2892L241.154 23.649L242.507 22.0051C242.685 21.7693 242.881 21.5479 243.091 21.3447Z" fill="#19171C"/>
<path d="M243.298 62.1834C243.066 62.0092 242.852 61.8133 242.656 61.5955C242.167 61.0984 241.702 60.5758 241.267 60.0279C240.832 59.4836 240.422 58.9175 240.045 58.3296C239.875 58.0937 239.733 57.8397 239.617 57.5748C239.806 57.7925 239.98 58.0248 240.136 58.2679C240.444 58.7034 240.861 59.2985 241.387 59.9335C241.913 60.5686 242.38 61.1238 242.736 61.5229C242.943 61.7262 243.128 61.9475 243.298 62.1834Z" fill="#19171C"/>
<path d="M214.917 62.0564L218.598 57.5131L214.917 62.0564Z" fill="white"/>
<path d="M218.598 57.5131C218.05 58.3223 217.456 59.1025 216.825 59.8464C216.23 60.6194 215.595 61.3633 214.924 62.0709C215.479 61.2689 216.074 60.496 216.705 59.7521C217.296 58.9719 217.927 58.2244 218.598 57.5131Z" fill="#19171C"/>
<path d="M214.921 21.3447C215.556 22.0233 216.154 22.7382 216.709 23.4821C217.307 24.1933 217.862 24.9372 218.373 25.7138C217.739 25.0352 217.144 24.3203 216.589 23.5764C215.994 22.8615 215.436 22.1176 214.921 21.3447Z" fill="#19171C"/>
<path d="M232.944 32.2384H225.876V52.3239H232.944V32.2384Z" fill="#33353E"/>
<path d="M9.24022 95.4452C7.67 94.4618 5.8967 93.8521 4.0545 93.6598C3.20592 93.5727 2.2812 93.5981 1.60307 94.1134C1.4435 94.2041 1.34559 94.3747 1.34922 94.5597C1.38911 94.6867 1.47252 94.7992 1.58856 94.8682C3.83329 96.4685 6.78153 96.6899 9.24022 95.4452Z" fill="#455A64"/>
<path d="M9.10946 95.3C7.91275 94.4182 6.7922 93.4312 5.76956 92.3498C4.73967 91.2648 4.0144 89.9221 3.66989 88.4633C3.53209 88.0278 3.59011 87.5525 3.83308 87.1642C6.49484 89.2399 8.59089 91.9506 9.10946 95.3Z" fill="#455A64"/>
<path d="M9.215 95.427C8.96478 93.9682 8.98654 92.4768 9.27665 91.0252C9.57401 89.5628 10.4117 88.271 11.6193 87.3964C12.0798 88.4851 11.8804 89.7189 11.5576 90.8474C11.0536 92.5929 10.2666 94.2476 9.23313 95.7427" fill="#455A64"/>
<path d="M11.8294 100.126C10.241 100.319 8.85937 101.157 7.67355 102.235C6.48047 103.32 5.6464 104.746 5.29102 106.321C6.85036 106.223 8.19212 105.123 9.13135 103.889C10.0706 102.656 10.756 101.306 11.8076 100.152" fill="#455A64"/>
<path d="M12.3984 100.87C11.1256 97.6406 11.5716 93.9864 13.5843 91.1595C14.4872 94.3819 14.1572 98.0216 12.3984 100.87Z" fill="#455A64"/>
<path d="M15.8582 104.993C12.8882 104.804 10.0959 106.415 8.76504 109.079C8.67801 109.253 8.59823 109.478 8.7179 109.634C8.84119 109.754 9.01889 109.808 9.18933 109.772C10.5855 109.681 11.8257 108.839 12.8483 107.881C13.871 106.923 14.7594 105.816 15.8909 104.978" fill="#455A64"/>
<path d="M15.7493 104.768C15.0022 102.369 14.9587 99.8069 15.6151 97.3829C15.8762 96.4321 16.3114 95.4306 17.189 94.9879C17.2615 94.9407 17.3485 94.9225 17.4319 94.9443C17.5008 94.9842 17.5552 95.0459 17.5842 95.1221C17.8743 95.7862 18.0013 96.512 17.9469 97.2377C17.8961 97.9599 17.7837 98.6784 17.6169 99.3824C17.3376 100.692 17.1926 102.104 16.4746 103.233C16.3041 103.505 16.1518 103.788 16.0176 104.078C15.8798 104.365 15.8798 104.466 15.7565 104.695" fill="#455A64"/>
<path d="M24.9024 106.132C24.2243 103.552 24.9459 100.42 26.5705 98.3047C26.6902 98.1486 26.8498 97.9817 27.0456 97.9998C27.3429 98.0252 27.4082 98.4244 27.4082 98.7256C27.2849 101.382 26.4146 103.947 24.9024 106.132Z" fill="#455A64"/>
<path d="M25.7144 106.698C28.9527 107.46 32.3651 106.767 35.0487 104.797C33.4893 104.009 31.7015 103.791 29.9971 104.176C28.3072 104.561 26.7624 105.319 25.7144 106.698Z" fill="#455A64"/>
<path d="M26.4399 104.978C28.1951 102.115 31.5604 100.242 34.9112 100.076C34.5268 101.44 33.4062 102.5 32.1406 103.142C30.875 103.784 29.4643 104.06 28.0718 104.332C27.5315 104.437 26.7881 104.554 26.4399 104.978Z" fill="#455A64"/>
<path d="M25.0766 96.6354C25.6097 95.0242 25.9723 93.3586 26.1645 91.6712C26.295 89.9765 26.0521 88.2093 25.1745 86.7578C23.5354 89.933 23.3613 93.6525 25.0331 96.8059" fill="#455A64"/>
<path d="M30.5991 93.8448C32.5138 90.3575 36.4267 87.5706 40.3903 87.1787C38.8636 90.9853 34.6969 93.9247 30.5991 93.8448Z" fill="#455A64"/>
<path d="M29.3921 94.527C32.2497 94.9625 34.6866 96.7914 37.3701 97.8982C37.9322 98.174 38.5596 98.2901 39.1833 98.2429C39.963 98.232 40.5867 97.5934 40.5758 96.8132C40.5722 96.3995 40.3836 96.0112 40.0681 95.7463C39.691 95.3979 39.245 95.1294 38.759 94.9552C35.8579 93.7396 32.7247 93.7105 29.6604 94.4472" fill="#455A64"/>
<path d="M27.7344 96.5338C28.3835 96.7188 28.6047 97.0563 29.116 97.4918C30.8639 98.9796 32.9346 100.043 35.1612 100.598C35.3897 100.656 35.6943 100.678 35.8103 100.471C35.9264 100.264 35.7813 100.068 35.6508 99.9049C34.6825 98.7655 33.4205 97.9091 32.0026 97.4265C30.6101 96.9075 29.3989 96.2798 27.7344 96.414" fill="#455A64"/>
<path d="M25.8667 84.4099C28.2384 86.5981 31.4223 87.6831 34.6353 87.3964C34.7803 87.3964 34.9218 87.3492 35.0342 87.2549C35.2554 87.0118 34.9907 86.6416 34.7332 86.442C32.1548 84.4317 29.0325 83.597 25.8667 84.4099Z" fill="#455A64"/>
<path d="M28.0825 83.6006C31.2302 81.2782 35.2954 80.6069 39.0233 81.7862C37.5909 83.1144 35.7559 83.9236 33.8086 84.076C31.8866 84.2538 29.9465 84.0905 28.0825 83.5934" fill="#455A64"/>
<path d="M27.2014 78.0305C26.9511 75.454 27.1143 73.4219 26.9366 70.8345C26.9366 70.6277 26.875 70.3809 26.6828 70.3047C26.4144 70.2031 26.1896 70.5333 26.1026 70.8091C25.341 73.2368 25.7435 75.8786 27.1905 77.9724" fill="#455A64"/>
<path d="M27.0166 78.3135C28.6992 77.2285 30.1462 75.8205 31.2812 74.1694C32.1225 73.0154 32.8333 71.6292 32.6411 70.2212C31.4408 70.2539 30.3166 70.8127 29.5659 71.749C28.8298 72.6816 28.2967 73.7557 27.9994 74.9024C27.6585 76.0382 27.4191 77.1994 27.0166 78.3135Z" fill="#455A64"/>
<path d="M31.2051 77.1487C35.0418 75.7298 38.5956 73.6323 41.6962 70.9615C40.4415 70.4571 39.0054 70.7583 37.7543 71.2627C34.9112 72.3441 32.565 74.427 31.1543 77.1233" fill="#455A64"/>
<path d="M28.195 79.7215C30.1315 79.9356 32.097 80.0843 34.019 79.7505C35.941 79.4166 37.6925 78.6873 39.4586 77.9361C39.6109 77.8925 39.7414 77.7909 39.8212 77.6567C39.8792 77.4897 39.8285 77.301 39.6907 77.1886C39.5529 77.0833 39.3969 77.0071 39.2265 76.9708C37.3081 76.4374 35.2375 76.6878 33.3517 77.3337C31.5531 77.9506 29.8233 78.7489 28.1914 79.7251" fill="#455A64"/>
<path d="M17.138 84.5006C15.818 81.8298 15.9014 78.7163 17.0437 75.9656C17.8488 77.1922 17.9467 78.7526 17.798 80.2077C17.6493 81.6629 17.2069 83.1688 17.1815 84.6313" fill="#455A64"/>
<path d="M11.8619 81.8371C8.51475 81.7936 5.30903 83.1653 3.02441 85.6111C4.69255 85.8107 6.37881 85.495 7.862 84.7111C9.33431 83.931 10.7268 82.9983 12.0106 81.9351" fill="#455A64"/>
<path d="M8.30803 80.6468C6.6943 80.5162 5.14221 80.3166 3.59374 80.792C2.00901 81.2383 0.699891 82.3524 0 83.8438C1.52308 83.9672 3.04978 83.6805 4.42418 83.0092C5.7877 82.3415 7.08595 81.5504 8.30803 80.6468Z" fill="#455A64"/>
<path d="M13.5662 80.7012C12.1157 79.7505 10.6252 78.7816 8.93532 78.3861C7.24542 77.9905 5.28355 78.2845 4.10498 79.5582C5.47575 80.3638 7.13301 80.4581 8.72136 80.4581C10.3097 80.4581 12.2535 80.4363 13.7475 80.9661" fill="#455A64"/>
<path d="M13.5734 80.7811C11.093 78.3425 10.1537 73.9589 11.151 70.6204C13.1129 73.6214 13.9687 77.214 13.5734 80.7811Z" fill="#455A64"/>
<path d="M20.3984 73.8718C20.8662 72.7832 21.1962 71.6401 21.6169 70.5297C22.0013 69.412 22.5888 68.3705 23.3503 67.467C24.1264 66.5525 25.2324 65.9791 26.4255 65.8739C25.6531 69.2705 23.4881 72.1844 20.4601 73.9008" fill="#455A64"/>
<path d="M19.1655 75.3088C18.3894 74.2419 17.4937 72.794 16.4457 71.9993C15.3977 71.2046 14.0269 70.722 12.7432 71.0268C14.0886 73.3892 16.4711 74.9749 19.1655 75.3088Z" fill="#455A64"/>
<path d="M19.4117 73.9589C18.8568 72.6925 18.447 71.3643 18.1859 70.0072C17.9357 68.6246 18.1606 67.1948 18.8242 65.9574C20.1877 68.5339 20.6374 71.299 19.4987 73.988" fill="#455A64"/>
<path d="M20.4128 65.9574C21.1816 63.4172 23.5206 61.5229 26.0446 60.6593C26.3564 60.5323 26.6937 60.4815 27.0309 60.5105C27.3718 60.5504 27.6583 60.7899 27.7562 61.1201C27.8469 61.5556 27.4879 61.9439 27.1506 62.2306C25.1779 63.918 22.886 65.1844 20.4092 65.9574" fill="#455A64"/>
<path d="M20.4385 63.8708C20.5364 62.2233 20.6415 60.5504 21.1637 58.9901C21.6859 57.4297 22.7303 55.9673 24.2317 55.285C24.4891 56.947 23.753 58.6018 22.8718 60.0315C21.9906 61.4613 20.9208 62.8148 20.3877 64.4115" fill="#455A64"/>
<path d="M20.3981 65.003C19.7599 63.1414 19.6946 60.7754 18.5849 59.1534C17.8053 58.0212 16.5578 57.2482 15.8869 56.0471C15.4808 57.1974 15.5388 58.4639 16.0465 59.5743C16.5505 60.6738 17.2468 61.6718 18.099 62.5282C18.9222 63.4063 19.6293 64.0704 20.3945 65.003" fill="#455A64"/>
<path d="M20.4131 119.827C20.3623 119.827 20.3188 107.406 20.3152 92.0921C20.3116 76.7785 20.3478 64.3534 20.3986 64.3534C20.4494 64.3534 20.4929 76.7712 20.4965 92.0921C20.5001 107.413 20.4602 119.827 20.4131 119.827Z" fill="#455A64"/>
<path d="M31.2561 82.6245C31.1074 82.7007 30.9514 82.7588 30.7919 82.8023L29.5045 83.2342C28.4166 83.597 26.937 84.1377 25.3233 84.8018C23.7096 85.4659 22.2155 86.0429 21.356 86.7868C21.0152 87.0734 20.7432 87.4327 20.5619 87.8428C20.4386 88.1331 20.4168 88.3109 20.3987 88.3072C20.3806 88.3036 20.3987 88.2637 20.3987 88.1802C20.4168 88.0568 20.4458 87.9335 20.4893 87.8173C20.6525 87.3855 20.9173 86.9972 21.2654 86.6924C21.7876 86.2497 22.3678 85.8868 22.9915 85.611C23.6806 85.2917 24.4421 84.9542 25.2544 84.624C26.8718 83.9599 28.3731 83.441 29.4683 83.1035C30.0122 82.933 30.4619 82.806 30.7701 82.7225C30.9297 82.6753 31.0929 82.6427 31.2561 82.6245Z" fill="#455A64"/>
<path d="M34.8131 73.8863C34.8131 73.8863 34.7696 73.9408 34.679 74.0278L34.2837 74.3907L32.7969 75.7443L27.8469 80.1678C25.9176 81.8915 24.2459 83.5353 23.0891 84.7728C22.5088 85.3897 22.0555 85.9013 21.7437 86.2606L21.381 86.6706C21.2976 86.765 21.2505 86.8122 21.2469 86.8049C21.2432 86.7977 21.2759 86.7468 21.352 86.6489C21.4282 86.5509 21.537 86.3985 21.6856 86.2134C21.983 85.8505 22.4109 85.3171 22.9911 84.6857C24.4816 83.0563 26.0554 81.5032 27.7054 80.0372C29.6455 78.3207 31.408 76.7712 32.6917 75.6644L34.2148 74.3581L34.6354 73.9952C34.6898 73.9516 34.7479 73.9154 34.8131 73.8863Z" fill="#455A64"/>
<path d="M25.7616 81.9133C25.7108 81.8879 26.1242 80.9553 26.5159 79.7795C26.9075 78.6038 27.1142 77.6022 27.165 77.6022C27.1215 78.3643 26.9619 79.1118 26.6863 79.8231C26.5086 80.3347 26.3055 80.8391 26.0771 81.329C25.9973 81.5359 25.8921 81.7318 25.7616 81.9133Z" fill="#455A64"/>
<path d="M20.4237 89.4285C20.3113 89.3197 20.2134 89.1963 20.1264 89.0657L19.3612 88.0859C18.723 87.2585 17.8381 86.1154 16.8445 84.8635C15.8509 83.6115 14.9407 82.4866 14.277 81.6774L13.4974 80.7121C13.3958 80.5996 13.3088 80.4763 13.229 80.3492C13.3487 80.4472 13.4538 80.5525 13.5518 80.6722C13.7512 80.8899 14.0304 81.2056 14.3749 81.6012C15.0603 82.3923 15.9887 83.5063 16.9859 84.7583C17.9832 86.0102 18.8499 87.1678 19.4627 88.0242C19.771 88.4488 20.0176 88.7935 20.188 89.0366C20.2787 89.16 20.3585 89.2906 20.4237 89.4285Z" fill="#455A64"/>
<path d="M18.0448 86.3731C17.5662 85.8469 17.2253 85.2119 17.0476 84.5224C16.8626 83.9128 16.7865 83.2741 16.8228 82.6391H16.9025C16.8663 82.7842 16.8409 82.8604 16.8264 82.8568C16.8119 82.8532 16.8264 82.7733 16.8264 82.6282H16.9062C16.9461 83.2414 17.0548 83.8511 17.2253 84.4426C17.4501 85.1067 17.7221 85.7526 18.0448 86.3731Z" fill="#455A64"/>
<path d="M14.9732 82.5084C14.7593 82.3451 14.5272 82.2108 14.2806 82.1056C13.6532 81.9169 12.9968 81.8661 12.3477 81.9495C11.6913 82.0003 11.0422 82.1092 10.404 82.2652C10.1429 82.3487 9.87452 82.414 9.60254 82.4576C9.84188 82.3161 10.0994 82.2108 10.3677 82.1419C11.0059 81.9495 11.6659 81.8262 12.3332 81.779C13.0041 81.6919 13.6895 81.7645 14.3277 81.9931C14.5961 82.0838 14.8245 82.2689 14.9732 82.5084Z" fill="#455A64"/>
<path d="M14.2479 81.5722C14.2479 81.6012 13.8417 81.4089 13.1817 81.1839C12.3223 80.8936 11.4302 80.7085 10.5236 80.6359C9.61699 80.5706 8.70677 80.6141 7.81105 80.7738C7.12567 80.8972 6.72314 81.0278 6.69775 80.9952C6.78479 80.9444 6.8827 80.9045 6.98061 80.8754C7.24534 80.7811 7.51369 80.7085 7.78567 80.6504C9.59886 80.2513 11.4918 80.3964 13.2252 81.0641C13.4863 81.1657 13.7402 81.2782 13.9868 81.4089C14.0811 81.4488 14.1681 81.5068 14.2479 81.5722Z" fill="#455A64"/>
<path d="M20.3983 77.6277C20.0828 76.7422 19.8253 75.8423 19.6222 74.9242C19.3647 74.0243 19.1617 73.1098 19.0166 72.1844C19.3357 73.0663 19.5968 73.9662 19.7963 74.8843C20.0537 75.7842 20.2568 76.7023 20.3983 77.6277Z" fill="#455A64"/>
<path d="M20.4495 77.6277C20.1993 77.0688 19.9092 76.5281 19.5864 76.0092C19.2201 75.523 18.7959 75.0839 18.3208 74.6992C18.5021 74.7428 18.6689 74.8299 18.8104 74.9532C19.1694 75.2181 19.4812 75.5411 19.7351 75.9076C20.1195 76.4084 20.3661 76.9999 20.4495 77.6277Z" fill="#455A64"/>
<path d="M20.4131 113.19C20.3914 113.19 20.3551 112.892 20.2173 112.366C20.0106 111.622 19.7314 110.904 19.3869 110.214C18.5274 108.462 16.9681 106.223 14.9881 104.013C14.0053 102.888 13.0516 101.835 12.2429 100.816C11.5176 99.9231 10.8612 98.976 10.281 97.9817C9.89301 97.3103 9.55938 96.6063 9.2874 95.8806C9.19674 95.6229 9.13147 95.4197 9.0952 95.2782C9.06982 95.2092 9.05169 95.1367 9.04443 95.0641C9.04443 95.0641 9.1496 95.3508 9.35268 95.8552C9.64641 96.5773 9.99092 97.2777 10.3898 97.949C10.9809 98.9252 11.6445 99.8577 12.3698 100.74C13.1821 101.745 14.1359 102.797 15.1222 103.922C17.1095 106.154 18.6652 108.407 19.4993 110.189C19.8402 110.882 20.1013 111.615 20.2826 112.366C20.3297 112.573 20.3696 112.78 20.395 112.99C20.4059 113.056 20.4131 113.125 20.4131 113.19Z" fill="#455A64"/>
<path d="M30.2116 102.129C30.0447 102.235 29.8743 102.333 29.6966 102.416C29.2324 102.681 28.79 102.975 28.3657 103.298C27.742 103.784 27.1582 104.318 26.6178 104.895C26.0013 105.544 25.3703 106.299 24.7249 107.105C23.4339 108.727 22.2263 110.16 21.5046 111.307C21.2109 111.753 20.9425 112.214 20.6959 112.689C20.6125 112.867 20.5183 113.038 20.4131 113.205C20.4131 113.205 20.4131 113.154 20.4602 113.059C20.5074 112.965 20.5509 112.827 20.6307 112.657C20.8555 112.17 21.113 111.695 21.3958 111.238C22.0994 110.066 23.2961 108.61 24.5834 106.992C25.2325 106.183 25.8708 105.428 26.4981 104.782C27.0494 104.205 27.6477 103.672 28.2896 103.196C28.7211 102.877 29.1817 102.594 29.664 102.354C29.8344 102.271 29.9758 102.217 30.0665 102.177C30.1572 102.137 30.2079 102.122 30.2116 102.129Z" fill="#455A64"/>
<path d="M30.4032 105.722C30.0442 105.802 29.6815 105.853 29.3153 105.882C28.4449 105.969 27.5819 106.139 26.7405 106.386C25.9101 106.658 25.1304 107.068 24.4342 107.598C23.9011 108.008 23.6509 108.349 23.6255 108.324C23.6654 108.233 23.7198 108.15 23.7887 108.077C23.9591 107.867 24.1477 107.671 24.3544 107.496C25.0398 106.923 25.8303 106.488 26.6825 106.212C27.5347 105.958 28.4123 105.805 29.3008 105.751C29.667 105.707 30.0369 105.697 30.4032 105.722Z" fill="#455A64"/>
<path d="M23.9486 107.936C23.8905 107.903 24.3801 107.155 24.7609 106.15C25.1416 105.145 25.1997 104.245 25.2649 104.252C25.2903 104.448 25.2831 104.644 25.2468 104.837C25.1924 105.305 25.0836 105.766 24.9277 106.208C24.7645 106.647 24.5542 107.072 24.3003 107.467C24.2097 107.642 24.09 107.798 23.9486 107.936Z" fill="#455A64"/>
<path d="M33.3846 92.4803C33.3302 92.5203 33.2722 92.5529 33.2106 92.5747L32.7029 92.8069C32.4781 92.9013 32.2061 93.0247 31.9015 93.1698C31.5968 93.315 31.2378 93.4928 30.8643 93.7141L30.2732 94.0516C30.0665 94.1714 29.8634 94.3129 29.6458 94.4472C29.2107 94.7121 28.7719 95.0387 28.3077 95.3725C26.306 96.8603 24.5617 98.6675 23.1437 100.718C22.8246 101.197 22.5128 101.647 22.2662 102.089C22.1356 102.311 22.0051 102.521 21.9035 102.728L21.588 103.334C21.3777 103.697 21.2254 104.078 21.0767 104.39C20.928 104.702 20.8156 104.974 20.7141 105.203C20.6125 105.432 20.5545 105.584 20.5001 105.722C20.4747 105.784 20.4457 105.842 20.4131 105.896C20.4203 105.831 20.4385 105.769 20.4639 105.707C20.511 105.569 20.5726 105.392 20.6488 105.178C20.7431 104.898 20.8483 104.619 20.9715 104.35C21.1094 104.031 21.2544 103.661 21.4611 103.262L21.7657 102.648C21.8745 102.438 22.0051 102.224 22.1284 102.002C22.375 101.549 22.6832 101.095 22.9987 100.609C24.413 98.5332 26.1718 96.7115 28.1989 95.2237C28.674 94.8935 29.1164 94.5669 29.5588 94.3056C29.78 94.1714 29.9867 94.0335 30.1934 93.9174L30.7954 93.5908C31.158 93.373 31.5207 93.2279 31.8507 93.0646C32.1807 92.9013 32.4382 92.7997 32.6666 92.7017L33.1924 92.5021C33.2541 92.4876 33.3194 92.4803 33.3846 92.4803Z" fill="#455A64"/>
<path d="M25.6274 97.6805C25.7036 97.4301 25.8523 97.2088 26.0554 97.0455C26.534 96.6318 27.1433 96.3995 27.7743 96.385C28.398 96.385 29.0145 96.5084 29.5874 96.7479C29.8304 96.8241 30.0589 96.9366 30.2692 97.0781C30.0226 97.0309 29.7796 96.9584 29.5439 96.8676C28.9746 96.6753 28.3799 96.5737 27.7815 96.5737C27.1868 96.5846 26.6138 96.7878 26.1424 97.1507C25.9574 97.314 25.787 97.4918 25.6274 97.6805Z" fill="#455A64"/>
<path d="M24.4707 98.878C24.982 97.8765 25.1126 96.7225 24.8333 95.6302C24.9349 95.7681 25.0074 95.9278 25.0364 96.0947C25.2431 96.8967 25.1452 97.7458 24.7572 98.4752C24.6266 98.751 24.4888 98.8926 24.4707 98.878Z" fill="#455A64"/>
<path d="M11.8398 115.004C12.1082 119.747 13.537 124.577 15.7346 129.454H25.2937C27.3898 124.624 28.7206 119.805 28.9564 115.004H11.8398Z" fill="#455A64"/>
<path d="M27.4086 122.665C27.4086 122.716 24.2609 122.756 20.3807 122.756C16.5004 122.756 13.3491 122.716 13.3491 122.665C13.3491 122.614 16.4968 122.574 20.3807 122.574C24.2645 122.574 27.4086 122.625 27.4086 122.665Z" fill="#455A64"/>
<path d="M27.1944 124.385C27.1944 124.432 24.2461 124.472 20.6052 124.472C16.9644 124.472 14.0161 124.432 14.0161 124.385C14.0161 124.338 16.9644 124.294 20.6052 124.294C24.2461 124.294 27.1944 124.334 27.1944 124.385Z" fill="#455A64"/>
<path d="M15.891 118.1C16.0071 119.566 16.0071 121.043 15.891 122.509C15.7714 121.043 15.7714 119.566 15.891 118.1Z" fill="#455A64"/>
<path d="M21.0004 118.1C21.1201 119.62 21.1201 121.144 21.0004 122.665C20.8807 121.144 20.8807 119.62 21.0004 118.1Z" fill="#455A64"/>
<path d="M25.8197 118.064C25.9104 118.836 25.9394 119.613 25.9104 120.39C25.9394 121.166 25.9104 121.943 25.8197 122.716C25.7291 121.943 25.7001 121.166 25.7291 120.39C25.7001 119.613 25.7291 118.836 25.8197 118.064Z" fill="#455A64"/>
<path d="M28.6557 118.1C28.6557 118.151 24.964 118.191 20.4093 118.191C15.8545 118.191 12.1665 118.151 12.1665 118.1C12.1665 118.049 15.8545 118.013 20.4093 118.013C24.964 118.013 28.6557 118.053 28.6557 118.1Z" fill="#455A64"/>
<path d="M243.467 71.455H219.21V96.7551H243.467V71.455Z" fill="#19171C"/>
<path d="M241.825 71.455H217.568V96.7551H241.825V71.455Z" fill="#33353E"/>
<path d="M241.847 96.766H217.55V71.4586H241.847V96.766ZM217.594 96.766H241.833V71.4586H217.579L217.594 96.766Z" fill="#19171C"/>
<path d="M238.565 74.8589H220.832V93.3586H238.565V74.8589Z" fill="#19171C"/>
<path d="M220.832 93.4783C220.705 93.6634 220.556 93.8376 220.393 93.99C220.11 94.2876 219.711 94.694 219.265 95.1331C218.819 95.5722 218.409 95.9641 218.108 96.2435C217.952 96.4032 217.782 96.5447 217.593 96.6681C217.72 96.483 217.865 96.3161 218.028 96.1637C218.311 95.8625 218.71 95.4379 219.16 95.0169C219.61 94.596 220.016 94.1823 220.32 93.9029C220.473 93.7432 220.647 93.5981 220.832 93.4783Z" fill="#19171C"/>
<path d="M238.583 93.4348C238.768 93.5581 238.938 93.7069 239.091 93.8702C239.392 94.1569 239.794 94.5524 240.233 94.9988C240.672 95.4451 241.067 95.8552 241.343 96.16C241.506 96.3124 241.647 96.4866 241.771 96.6717C241.586 96.5446 241.415 96.3995 241.263 96.2362C240.966 95.9532 240.559 95.554 240.117 95.1076C239.675 94.6613 239.287 94.2476 239.007 93.9428C238.844 93.794 238.703 93.6198 238.583 93.4348Z" fill="#19171C"/>
<path d="M238.518 74.906C238.641 74.721 238.79 74.5504 238.953 74.398C239.236 74.1004 239.635 73.694 240.081 73.2549C240.527 72.8158 240.936 72.4239 241.241 72.1445C241.393 71.9812 241.567 71.8397 241.752 71.7163C241.629 71.9014 241.484 72.0719 241.317 72.2243C241.034 72.5219 240.635 72.9283 240.186 73.371C239.736 73.8138 239.33 74.202 239.025 74.4815C238.873 74.6448 238.703 74.7863 238.518 74.906Z" fill="#19171C"/>
<path d="M220.781 74.9532C220.596 74.8262 220.425 74.6774 220.273 74.5141C219.972 74.2311 219.57 73.8319 219.131 73.3856C218.692 72.9392 218.3 72.5292 218.021 72.228C217.858 72.0756 217.713 71.9014 217.593 71.7127C217.778 71.8361 217.949 71.9848 218.101 72.1481C218.398 72.4348 218.804 72.834 219.247 73.2803C219.689 73.7267 220.077 74.1404 220.357 74.4415C220.52 74.594 220.661 74.7645 220.781 74.9532Z" fill="#19171C"/>
<path d="M238.518 93.355C238.518 93.3259 238.518 93.2969 238.518 93.2679V88.2383C238.518 84.9978 238.5 80.3856 238.485 74.8589L238.554 74.9278H220.868L220.945 74.8516V93.3586L220.879 93.2933L233.684 93.3259L237.281 93.3441H238.232H233.713L220.865 93.3804H220.796V74.7246H238.583V74.7936C238.583 80.3384 238.558 84.9542 238.551 88.2202V93.2134C238.551 93.2751 238.518 93.3586 238.518 93.355Z" fill="#19171C"/>
<path d="M232.658 81.1476H226.739V87.0698H232.658V81.1476Z" fill="#33353E"/>
<path d="M157.178 159.686V171.164H173.95H192.452V159.686H157.178Z" fill="#33353E"/>
<path d="M155.818 156.478V159.686H193.808V156.478H174.07H155.818Z" fill="#1E2027"/>
<path d="M174.694 171.164H192.452V159.686H193.689V156.478H173.95V159.389L174.694 171.164Z" fill="#1E2027"/>
<path d="M169.265 161.537H162.11V163.264H169.265V161.537Z" fill="#1E2027"/>
<path d="M170.375 165.427H161.189V169.074H170.375V165.427Z" fill="#1E2027"/>
<path d="M162.604 145.015V156.493H179.379H197.881V145.015H162.604Z" fill="#33353E"/>
<path d="M161.124 141.803V145.015H199.113V141.803H179.379H161.124Z" fill="#1E2027"/>
<path d="M180.118 156.493H197.88V145.015H199.113V141.803H179.378V144.717L180.118 156.493Z" fill="#1E2027"/>
<path d="M174.694 146.865H167.539V148.593H174.694V146.865Z" fill="#1E2027"/>
<path d="M175.803 150.752H166.618V154.399H175.803V150.752Z" fill="#1E2027"/>
<path d="M242.692 129.883C242.692 129.933 188.876 129.977 122.51 129.977C56.1437 129.977 2.31738 129.93 2.31738 129.883C2.31738 129.835 56.1183 129.788 122.51 129.788C188.902 129.788 242.692 129.828 242.692 129.883Z" fill="#263238"/>
<path d="M237.531 171.287C237.531 171.338 186.037 171.382 122.51 171.382C58.983 171.382 7.47754 171.338 7.47754 171.287C7.47754 171.237 58.9721 171.193 122.51 171.193C186.048 171.193 237.531 171.251 237.531 171.287Z" fill="#263238"/>
<path d="M202.617 21.0145H52.3579C49.4398 21.0145 47.0742 23.3816 47.0742 26.3017V122.153C47.0742 125.073 49.4398 127.44 52.3579 127.44H202.617C205.535 127.44 207.901 125.073 207.901 122.153V26.3017C207.901 23.3816 205.535 21.0145 202.617 21.0145Z" fill="#595F7C"/>
<path d="M202.616 127.44L202.961 127.419C203.102 127.415 203.24 127.4 203.378 127.371C203.574 127.35 203.766 127.31 203.955 127.252C204.495 127.117 205.01 126.889 205.474 126.58C206.12 126.163 206.667 125.604 207.073 124.951C207.316 124.563 207.508 124.149 207.65 123.714C207.791 123.22 207.867 122.708 207.875 122.197V109.819C207.875 96.5192 207.875 77.272 207.846 53.4924V27.4012C207.896 26.5702 207.831 25.7355 207.654 24.9227C207.2 23.2752 205.967 21.9543 204.354 21.3882C204.154 21.3193 203.951 21.2576 203.744 21.214C203.538 21.1705 203.327 21.1415 203.117 21.1161C202.693 21.087 202.261 21.0907 201.826 21.0943H52.3756C50.0801 21.0943 48.053 22.6039 47.393 24.8066C47.2407 25.34 47.1681 25.8916 47.1754 26.4468V121.75C47.1609 122.237 47.1971 122.723 47.2842 123.202C47.4836 124.145 47.9405 125.013 48.6005 125.713C48.9269 126.061 49.3041 126.359 49.7138 126.602C49.9169 126.726 50.1272 126.834 50.3448 126.929C50.566 127.019 50.7909 127.092 51.0193 127.154C51.9332 127.422 52.9014 127.321 53.8588 127.339H125.712L181.993 127.371L197.297 127.39L181.993 127.408L125.712 127.437H52.4082C51.9187 127.437 51.4291 127.375 50.9577 127.248C50.722 127.186 50.4899 127.107 50.2614 127.016C50.0366 126.914 49.819 126.802 49.6087 126.675C49.1844 126.424 48.8 126.116 48.4627 125.757C48.1219 125.401 47.8318 124.998 47.6033 124.559C47.3748 124.12 47.208 123.648 47.0992 123.166C47.0122 122.676 46.9723 122.182 46.9868 121.685V26.4613C46.9759 25.888 47.0521 25.3182 47.2116 24.7666C47.897 22.4841 49.9967 20.9237 52.3756 20.9201H201.808C202.243 20.9201 202.671 20.9201 203.11 20.9455C203.327 20.9673 203.545 20.9999 203.759 21.0435C205.699 21.4789 207.244 22.9486 207.78 24.8646L207.86 25.1731C207.882 25.2783 207.893 25.3835 207.911 25.4888C207.944 25.6993 207.965 25.9097 207.969 26.1238V53.4561C207.969 77.2357 207.944 96.4829 207.936 109.783V122.16C207.929 122.679 207.849 123.195 207.704 123.692C207.566 124.135 207.367 124.559 207.12 124.951C206.711 125.611 206.159 126.17 205.503 126.588C205.035 126.892 204.52 127.117 203.976 127.252C203.788 127.306 203.592 127.346 203.396 127.368C203.258 127.393 203.117 127.408 202.975 127.408L202.616 127.44Z" fill="#263238"/>
<path d="M208.578 129.883H47.2409C43.6761 129.883 40.7896 126.99 40.7896 123.423V120.571H215.033V123.423C215.033 126.99 212.143 129.883 208.578 129.883Z" fill="#595F7C"/>
<path d="M208.579 129.883H208.789C208.996 129.875 209.202 129.857 209.409 129.828L209.87 129.756L210.417 129.614C210.617 129.556 210.82 129.469 211.044 129.389C211.269 129.309 211.498 129.182 211.733 129.048C212.267 128.743 212.752 128.369 213.184 127.934C214.315 126.762 214.965 125.209 214.997 123.579V120.582L215.033 120.615L47.2518 120.676H40.7896L40.8839 120.582V122.85C40.8476 123.597 40.9202 124.345 41.1015 125.071C41.4859 126.515 42.3635 127.778 43.5855 128.634C44.804 129.48 46.2727 129.89 47.7522 129.799H102.391L157.773 129.821L194.972 129.85L205.065 129.868H208.579H194.972L157.773 129.897L102.391 129.919H47.7522C46.2437 130.028 44.7424 129.632 43.484 128.794C42.2329 127.905 41.3336 126.606 40.9455 125.122C40.7606 124.381 40.6844 123.616 40.7207 122.854V120.491H47.2772L215.059 120.549H215.092V123.587C215.037 125.227 214.359 126.784 213.199 127.945C212.767 128.38 212.281 128.758 211.748 129.062C211.509 129.197 211.273 129.298 211.055 129.4C210.838 129.502 210.62 129.567 210.421 129.621L209.87 129.759L209.409 129.828C209.202 129.857 208.996 129.872 208.785 129.872L208.579 129.883Z" fill="#263238"/>
<path d="M111.634 120.567L113.796 124.008H144.221L146.226 120.567H111.634Z" fill="#263238"/>
<path d="M197.246 28.2866H57.5903C55.8919 28.2866 54.5151 29.6643 54.5151 31.3639V111.753C54.5151 113.453 55.8919 114.83 57.5903 114.83H197.246C198.944 114.83 200.321 113.453 200.321 111.753V31.3639C200.321 29.6643 198.944 28.2866 197.246 28.2866Z" fill="#070708"/>
<path d="M142.93 84.7328H116.668C114.058 84.7328 111.943 86.8498 111.943 89.4612V90.4228C111.943 93.0342 114.058 95.1512 116.668 95.1512H142.93C145.54 95.1512 147.655 93.0342 147.655 90.4228V89.4612C147.655 86.8498 145.54 84.7328 142.93 84.7328Z" fill="#FF0000"/>
<path d="M130.691 24.6832C130.691 25.5687 129.973 26.2872 129.088 26.2872C128.203 26.2872 127.485 25.5687 127.485 24.6832C127.485 23.7978 128.203 23.0793 129.088 23.0793C129.973 23.0793 130.687 23.7942 130.687 24.6796L130.691 24.6832Z" fill="#263238"/>
<path d="M189.515 33.5157V31.9771C189.508 31.8029 189.642 31.6541 189.816 31.6469H192.126C192.3 31.6541 192.434 31.8029 192.427 31.9771V33.5157C192.434 33.6899 192.3 33.8387 192.126 33.8459H189.816C189.642 33.8387 189.508 33.6899 189.515 33.5157Z" fill="#263238"/>
<path d="M193.895 34.3685H189.333C189.109 34.3685 188.927 34.1834 188.927 33.9585V31.4437C188.927 31.2187 189.109 31.0373 189.333 31.0373H193.83C194.03 31.0373 194.193 31.2006 194.193 31.4001V31.8646C194.193 31.8973 194.218 31.9227 194.251 31.9227H194.744C194.878 31.9227 194.987 32.0316 194.987 32.1658V32.9932C194.987 33.1601 194.853 33.2944 194.686 33.2944H194.323C194.291 33.2944 194.262 33.3234 194.262 33.3561V33.9984C194.265 34.198 194.106 34.3649 193.906 34.3685C193.903 34.3685 193.899 34.3685 193.895 34.3685ZM189.333 31.2187C189.21 31.2187 189.109 31.3203 189.109 31.4437V33.9585C189.109 34.0818 189.21 34.1834 189.333 34.1871H193.895C194.001 34.1871 194.084 34.1 194.084 33.9947V33.3561C194.084 33.2218 194.193 33.1129 194.327 33.1129H194.69C194.755 33.1129 194.809 33.0585 194.809 32.9932V32.1731C194.809 32.1404 194.78 32.1114 194.748 32.1114H194.254C194.124 32.1114 194.019 32.0025 194.015 31.8719V31.4074C194.015 31.3022 193.932 31.2187 193.826 31.2187C193.826 31.2187 193.826 31.2187 193.823 31.2187H189.333Z" fill="#263238"/>
<path d="M50.2543 77.1958C49.8554 75.9983 48.7566 75.1745 47.4982 75.1201C47.8174 74.2238 47.2045 73.1896 46.3342 72.8122C45.4312 72.4856 44.4303 72.5582 43.5854 73.0118C42.9798 73.2984 42.4141 73.6976 41.7722 73.8464C40.9127 74.0423 40.0243 73.7702 39.1467 73.7412C37.3117 73.7049 35.6073 74.6992 34.7334 76.314C34.4396 76.8692 34.2583 77.4825 33.9356 78.0232C33.6745 78.455 33.3336 78.8324 33.0761 79.2678C32.34 80.5706 32.4596 82.189 33.3735 83.372L45.7358 80.5307C47.0848 81.4633 48.9307 81.1258 49.8626 79.7795C50.3812 79.0283 50.5263 78.0776 50.2543 77.203V77.1958Z" fill="#263238"/>
<path d="M78.7325 122.745L66.8126 121.562L66.1235 127.756L79.5847 127.288L78.7325 122.745Z" fill="#FFBF9D"/>
<path d="M87.7875 126.374C87.6315 126.591 87.3596 126.7 87.0985 126.642C87.0441 126.628 86.9897 126.606 86.9389 126.58C86.5763 126.403 86.7394 125.644 86.7394 125.644L84.9915 125.071C84.9915 125.071 82.4241 126.203 81.4377 127.07C80.4513 127.938 78.464 126.794 78.464 126.794L78.3335 122.854L82.1049 120.39C82.1049 120.39 81.8728 120.538 82.1883 120.027C82.5038 119.515 83.5083 119.878 83.5083 119.878C83.715 119.628 84.4077 119.635 84.4077 119.635L87.2471 120.426C87.8346 120.589 88.3133 121.01 88.5526 121.569L89.4701 123.699C89.4701 123.699 89.898 125.198 89.7421 125.513C89.6043 125.775 89.2924 125.895 89.0168 125.789C89.0168 125.789 88.7267 126.682 88.4837 126.678C88.2371 126.628 88.0051 126.53 87.7947 126.392L87.7875 126.374Z" fill="#FFBF9D"/>
<path d="M82.167 126.555C82.2359 126.526 82.3012 126.49 82.3629 126.45L82.9068 126.138C83.5886 125.76 84.2957 125.423 85.0174 125.125H84.9739L86.7181 125.713L86.6674 125.626C86.642 125.775 86.6275 125.924 86.6311 126.072C86.6311 126.236 86.6746 126.395 86.7653 126.533C86.8233 126.602 86.8995 126.657 86.9865 126.682C87.0663 126.718 87.1497 126.736 87.2367 126.736C87.4144 126.736 87.5885 126.675 87.7226 126.559C87.7553 126.53 87.7879 126.497 87.8169 126.464L87.8387 126.439L87.7263 126.461L87.7807 126.493C87.8496 126.537 87.9221 126.577 87.9983 126.613C88.0744 126.653 88.1542 126.686 88.234 126.711C88.2775 126.729 88.321 126.74 88.3645 126.747C88.4189 126.762 88.4806 126.762 88.535 126.747C88.6256 126.696 88.6981 126.624 88.7489 126.537C88.7961 126.461 88.8396 126.384 88.8758 126.305C88.952 126.145 89.0173 125.982 89.0717 125.815L88.9556 125.869C89.195 125.963 89.4669 125.916 89.6591 125.749C89.7571 125.659 89.8223 125.539 89.8405 125.408C89.855 125.289 89.855 125.165 89.8405 125.045C89.7752 124.585 89.6809 124.127 89.5503 123.677L89.0608 122.541L88.7525 121.816C88.6583 121.569 88.535 121.329 88.3899 121.108C88.234 120.894 88.0381 120.713 87.8097 120.575C87.5812 120.448 87.3383 120.357 87.0844 120.306L84.4045 119.58H84.3828C84.2159 119.58 84.0491 119.599 83.8859 119.631C83.7119 119.653 83.5487 119.733 83.4218 119.856H83.5269C83.2513 119.671 82.8996 119.635 82.5913 119.762C82.323 119.9 82.1163 120.136 82.0147 120.422L82.0437 120.386L79.4436 122.073L78.7437 122.541C78.6603 122.592 78.5805 122.65 78.5044 122.716C78.5951 122.676 78.6821 122.629 78.7655 122.574L79.4908 122.139L82.1199 120.506V120.484C82.2106 120.237 82.3882 120.03 82.624 119.911C82.8851 119.809 83.1824 119.845 83.4145 120.001L83.4725 120.038L83.5197 119.987C83.6212 119.896 83.7481 119.838 83.8823 119.82C84.0346 119.791 84.1869 119.776 84.3429 119.776L87.0155 120.531C87.2512 120.582 87.4761 120.665 87.6864 120.782C87.8931 120.905 88.0708 121.072 88.2086 121.268C88.3464 121.478 88.4552 121.703 88.5422 121.939C88.6474 122.179 88.7489 122.418 88.8541 122.665L89.3436 123.801C89.4706 124.24 89.5649 124.686 89.6301 125.14C89.641 125.245 89.641 125.35 89.6301 125.455C89.6156 125.546 89.5721 125.626 89.5068 125.688C89.3618 125.807 89.1623 125.844 88.9883 125.775L88.9012 125.746L88.8722 125.829C88.8214 125.989 88.7598 126.145 88.6873 126.297C88.6365 126.435 88.5531 126.562 88.4407 126.66C88.4153 126.66 88.3899 126.66 88.3645 126.66L88.2594 126.631C88.1868 126.606 88.1143 126.573 88.0418 126.54C87.9692 126.508 87.9003 126.468 87.8351 126.428L87.7843 126.399L87.6719 126.421V126.442C87.6465 126.468 87.6211 126.493 87.5957 126.515C87.4942 126.602 87.3673 126.653 87.2331 126.657C87.1642 126.657 87.0989 126.642 87.0373 126.617C86.9756 126.602 86.9248 126.569 86.885 126.519C86.7653 126.279 86.7363 126.003 86.8052 125.742V125.673L86.7435 125.655L84.9956 125.089H84.9521C84.2304 125.397 83.5306 125.753 82.856 126.156C82.6203 126.297 82.4426 126.413 82.323 126.497C82.2686 126.511 82.2178 126.533 82.167 126.555Z" fill="#FF9A6C"/>
<path d="M83.8384 120.967C84.114 121.144 84.4113 121.286 84.7232 121.388C85.4811 121.674 86.2753 121.859 87.084 121.939L86.997 121.859C87.026 122.012 87.0514 122.168 87.0912 122.327C87.2979 123.227 87.6751 124.08 88.2009 124.839C88.3605 125.067 88.5345 125.281 88.7231 125.484C88.8573 125.63 88.9407 125.699 88.9516 125.691C88.9624 125.684 88.6832 125.347 88.3133 124.762C87.831 124 87.4829 123.162 87.2798 122.284C87.2435 122.131 87.2145 121.975 87.1891 121.83V121.754H87.1166C86.3224 121.678 85.5391 121.515 84.7812 121.271C84.473 121.152 84.1575 121.05 83.8384 120.967Z" fill="#FF9A6C"/>
<path d="M86.3188 123.086C86.4023 124.305 86.9535 125.441 87.8564 126.261C87.9036 126.221 87.3741 125.619 86.9535 124.741C86.5328 123.862 86.3769 123.075 86.3188 123.086Z" fill="#FF9A6C"/>
<path d="M78.0762 125.528C78.0762 125.528 78.1016 125.557 78.1596 125.597C78.2466 125.655 78.3336 125.706 78.4279 125.753C78.7797 125.924 79.1605 126.029 79.5485 126.065C80.1468 126.119 80.7488 126.003 81.2819 125.728C81.9636 125.379 82.504 124.802 82.8086 124.102L82.6926 124.156C83.3598 124.396 84.0597 124.541 84.7705 124.584C85.0352 124.599 85.2963 124.599 85.561 124.584C85.8257 124.584 86.0868 124.541 86.3371 124.457C86.4785 124.41 86.5945 124.312 86.6671 124.185C86.7287 124.051 86.736 123.899 86.6852 123.761C86.6344 123.626 86.5293 123.514 86.3987 123.456L86.0796 123.318C85.2346 122.955 84.455 122.69 83.7986 122.476C83.1422 122.262 82.5983 122.113 82.2248 122.019C82.0326 121.957 81.8331 121.917 81.6336 121.899C81.8186 121.975 82.0108 122.041 82.203 122.091C82.5656 122.208 83.1023 122.378 83.7551 122.607C84.4078 122.835 85.173 123.126 86.0107 123.485L86.3262 123.623C86.4096 123.663 86.4785 123.735 86.5111 123.822C86.5474 123.913 86.5474 124.011 86.5111 124.102C86.4567 124.189 86.3733 124.254 86.2754 124.283C86.0397 124.359 85.7967 124.396 85.5501 124.392H84.7777C84.0851 124.349 83.4033 124.211 82.7506 123.978L82.6672 123.949L82.6345 124.029C82.3444 124.701 81.8331 125.252 81.184 125.59C80.6763 125.858 80.1069 125.985 79.534 125.953C79.1605 125.927 78.7906 125.844 78.4461 125.699C78.2067 125.604 78.0834 125.528 78.0762 125.528Z" fill="#FF9A6C"/>
<path d="M40.0681 107.417C37.1271 107.351 34.7772 104.945 34.7808 101.999L34.556 84.0325C34.3457 79.2098 36.8986 75.062 41.5875 74.9822H42.0227C46.3925 75.1673 49.8883 78.7707 50.0588 83.2668C50.2183 87.4508 50.3888 91.4897 50.2727 93.725C50.0297 98.3554 45.4569 98.8054 45.4569 98.8054V101.89C45.5077 104.876 43.1287 107.34 40.1406 107.391C40.1189 107.391 40.1007 107.391 40.079 107.391L40.0681 107.417Z" fill="#FFBF9D"/>
<path d="M45.4564 98.8598C43.3713 98.7654 41.3586 98.0578 39.6724 96.8276C39.6724 96.8276 40.9416 100.369 45.4456 100.141L45.4564 98.8598Z" fill="#FF9A6C"/>
<path d="M48.4013 87.4C48.3905 87.752 48.1076 88.035 47.7558 88.0423C47.4113 88.0532 47.1212 87.7846 47.1104 87.4399C47.1104 87.4363 47.1104 87.429 47.1104 87.4254C47.114 87.0698 47.4005 86.7867 47.7558 86.7831C48.104 86.7722 48.3905 87.0444 48.4013 87.3927C48.4013 87.3927 48.4013 87.3964 48.4013 87.4Z" fill="#263238"/>
<path d="M49.0214 85.2881C48.938 85.3715 48.4665 84.9796 47.7739 84.9542C47.0813 84.9288 46.5627 85.259 46.4902 85.1683C46.4176 85.0776 46.5446 84.976 46.7694 84.8054C47.0776 84.6058 47.4367 84.5079 47.8029 84.526C48.1619 84.5369 48.5101 84.6639 48.7893 84.8889C48.996 85.0921 49.0613 85.2481 49.0214 85.2881Z" fill="#263238"/>
<path d="M42.1241 87.4C42.1168 87.752 41.8303 88.0387 41.4786 88.0423C41.1304 88.0495 40.8476 87.7738 40.8403 87.4254C40.8403 87.4254 40.8403 87.4218 40.8403 87.4181C40.8476 87.0661 41.1341 86.7795 41.4858 86.7758C41.8303 86.7686 42.1168 87.0407 42.1241 87.3855C42.1241 87.3891 42.1241 87.3964 42.1241 87.4Z" fill="#263238"/>
<path d="M42.24 85.1647C42.1566 85.2482 41.6815 84.8563 40.9925 84.8308C40.3035 84.8054 39.7813 85.1357 39.7088 85.0449C39.6362 84.9542 39.7595 84.8526 39.988 84.6821C40.2962 84.4825 40.6552 84.3845 41.0215 84.4026C41.3805 84.4135 41.725 84.5405 42.0079 84.7655C42.211 84.9687 42.2799 85.1284 42.24 85.1647Z" fill="#263238"/>
<path d="M44.4995 90.7385C44.8694 90.6369 45.2501 90.5825 45.6309 90.5789C45.8086 90.5789 45.9935 90.5389 46.0117 90.4156C46.0334 90.2269 46.0008 90.0382 45.9138 89.8712C45.7651 89.4249 45.6091 88.9568 45.4496 88.4669C44.8005 86.4638 44.3617 84.8381 44.4197 84.7982C44.4777 84.7582 45.0869 86.3694 45.7324 88.3725C45.8884 88.8661 46.0371 89.3342 46.1749 89.7841C46.28 90.0091 46.3054 90.2668 46.2401 90.5099C46.1821 90.6369 46.0733 90.7276 45.9391 90.7603C45.8412 90.7857 45.7397 90.7966 45.6382 90.793C45.2574 90.822 44.8766 90.8038 44.4995 90.7385Z" fill="#263238"/>
<path d="M42.5518 82.9511C42.4502 83.1289 41.7866 82.9075 40.9707 82.8567C40.1547 82.8059 39.4693 82.9039 39.3932 82.7116C39.3606 82.6209 39.5056 82.4648 39.7993 82.3487C40.1837 82.1854 40.6044 82.1165 41.0214 82.1528C41.4385 82.1782 41.8446 82.3015 42.2036 82.5156C42.4756 82.6862 42.5953 82.864 42.5518 82.9511Z" fill="#263238"/>
<path d="M49.1373 83.1978C48.9886 83.3575 48.412 83.1724 47.752 83.147C47.092 83.1216 46.5009 83.2232 46.3739 83.0491C46.3159 82.9656 46.4102 82.8059 46.6641 82.6608C47.3748 82.3051 48.2234 82.3487 48.8943 82.7805C49.1264 82.9511 49.2025 83.1216 49.1373 83.1978Z" fill="#263238"/>
<path d="M34.7804 87.4762C34.7042 87.44 31.727 86.4057 31.698 89.5737C31.6689 92.7417 34.7659 92.1139 34.7731 92.0304C34.7804 91.947 34.7804 87.4762 34.7804 87.4762Z" fill="#FFBF9D"/>
<path d="M33.8489 90.8184C33.8489 90.8184 33.7945 90.8583 33.7039 90.8982C33.5733 90.9526 33.4319 90.9526 33.3013 90.8982C32.9786 90.7712 32.7066 90.2377 32.6994 89.6644C32.6921 89.3922 32.7465 89.1237 32.8553 88.8769C32.9133 88.6774 33.0656 88.5213 33.2615 88.456C33.392 88.4233 33.5262 88.4887 33.5769 88.612C33.6205 88.6991 33.5987 88.7644 33.6168 88.7681C33.635 88.7717 33.6821 88.7173 33.6567 88.5866C33.6422 88.5068 33.5987 88.4379 33.5371 88.3871C33.4573 88.3181 33.3485 88.2854 33.2433 88.3036C32.9822 88.3544 32.7683 88.5358 32.6776 88.7862C32.5434 89.062 32.4782 89.3632 32.4854 89.668C32.4854 90.3067 32.8118 90.9091 33.2542 91.047C33.421 91.0978 33.6023 91.0687 33.7438 90.9671C33.8417 90.8946 33.8598 90.8256 33.8489 90.8184Z" fill="#FF9A6C"/>
<path d="M36.9928 79.5654C37.1378 78.738 37.7326 78.063 38.5304 77.809C39.2049 77.5804 39.9374 77.5913 40.6083 77.8344C42.3453 78.4658 45.3226 79.413 46.0805 78.807C47.1902 77.936 47.4585 77.3554 47.4585 77.3554L48.0714 78.0231C48.5682 77.7401 47.0741 76.0781 45.8484 75.5047C43.9989 74.6411 41.174 74.1076 39.466 74.6048C37.4098 75.2035 35.7018 76.2523 34.6683 78.1792C33.6746 80.146 33.2032 82.3378 33.3084 84.5405C33.3084 85.2118 33.2032 87.1351 33.8487 87.2839C34.3528 87.3964 34.9946 87.6213 34.9584 88.5866C34.933 88.9386 35.049 89.287 35.2775 89.5555C35.8396 90.1724 36.5286 89.5918 36.8477 89.0112C37.5259 87.7701 37.602 86.2896 37.66 84.8671C37.7579 83.8583 37.6927 82.8386 37.4678 81.8515C37.2321 81.2237 37.0689 80.5706 36.971 79.9065C36.9674 79.794 36.971 79.6779 36.9928 79.5654Z" fill="#263238"/>
<path d="M44.6191 92.4513C44.6373 92.4985 44.4959 92.6183 44.2094 92.68C43.8286 92.7562 43.4333 92.6945 43.0961 92.5058C42.7552 92.3207 42.4905 92.0268 42.3418 91.6675C42.233 91.3954 42.2511 91.2139 42.3019 91.1994C42.3527 91.1849 42.6391 91.8018 43.2883 92.1538C43.9374 92.5058 44.5901 92.3461 44.6191 92.4513Z" fill="#263238"/>
<path d="M47.8358 134.727L33.1054 131.483L23.6369 108.008C23.6369 108.008 10.9845 110.817 8.89933 117.907C7.08614 124.022 3.36547 151.049 11.8367 167.709C14.0379 171.988 18.4512 174.673 23.2598 174.655H87.7259C95.8635 174.655 102.703 168.537 103.609 160.444C103.972 157.179 104.226 154.083 104.175 152.066L93.8255 144.118L47.8358 134.727Z" fill="#595F7C"/>
<g opacity="0.3">
<path d="M87.2183 142.892C91.7549 148.821 97.2742 154.141 103.874 157.632L104.19 149.583L91.9978 140.9L87.2183 142.892Z" fill="black"/>
</g>
<path d="M38.5628 103.443C38.5628 103.871 41.9136 105.257 43.4258 104.648C45.7322 103.726 45.4457 101.915 45.4457 101.915L46.7258 103.265L59.5523 122.825L69.0861 129.121L53.8262 133.958L37.8267 115.567L38.5628 103.443Z" fill="#F5F5F5"/>
<path d="M34.5198 96.8785L34.1826 97.5099L32.6595 100.351L26.3242 104.394L39.3538 119.892L45.2974 133.958L59.5491 138.421C59.5491 138.421 52.7678 127.988 50.6609 122.654C48.5539 117.32 48.34 117.574 46.418 113.662C45.1125 110.907 43.9484 108.084 42.9367 105.207L34.5198 96.8785Z" fill="#FF0000"/>
<path d="M65.0462 124.802L67.8422 127.411L68.6327 129.023L58.2395 124.185L50.7366 113.662C50.7366 113.662 48.0639 107.729 47.1464 105.602C46.1782 103.367 45.4565 102.1 45.4565 102.1V100.337L49.2389 103.755L52.3974 104.695L57.6774 113.041L65.0462 124.802Z" fill="#FF0000"/>
<path d="M61.8442 114.961C61.8442 114.961 60.5823 112.268 59.5524 110.029C57.2315 104.985 51.7593 104.506 51.7593 104.506L57.8081 121.293L65.2168 126.551C65.2168 126.551 67.3273 127.277 67.5921 126.551C67.5921 126.551 69.1333 120.985 69.0861 120.963C69.039 120.941 63.8134 119.377 63.8134 119.377L61.7101 114.66" fill="#FF0000"/>
<path d="M72.9879 109.721L65.7896 121.721L73.3288 121.5L79.9759 110.381C80.1573 110.076 80.0594 109.681 79.7547 109.499C79.6532 109.438 79.5408 109.409 79.4247 109.409H73.5391C73.3143 109.409 73.104 109.528 72.9879 109.721Z" fill="#263238"/>
<path d="M45.2974 123.293L63.3168 121.148L66.3449 115.839L68.7165 114.536C69.1191 114.315 69.6122 114.344 69.9821 114.616L70.207 114.779L71.9658 114.558C72.2667 114.518 72.5714 114.58 72.8325 114.729L74.0799 115.454C74.2613 115.563 74.3773 115.759 74.3773 115.97C74.3773 116.3 74.1089 116.568 73.7789 116.568C73.7427 116.568 73.7064 116.568 73.6702 116.558L72.4589 116.336L70.6022 116.942C70.6022 116.942 71.7989 117.069 71.9513 117.976C72.1036 118.884 71.498 118.905 71.498 118.905C71.498 118.905 72.7563 119.631 71.8606 120.72C71.8606 120.72 72.9122 121.42 71.7337 122.748C70.9395 123.648 65.2062 126.58 65.2062 126.58L45.2974 133.958V123.293Z" fill="#FFBF9D"/>
<path d="M71.8309 120.713C71.8309 120.713 71.9651 120.713 72.1247 120.876C72.335 121.119 72.4075 121.456 72.3169 121.765C72.1609 122.197 71.8926 122.578 71.5408 122.875C71.1492 123.26 70.7249 123.608 70.2752 123.92C69.452 124.472 68.5817 124.951 67.6751 125.354C67.3125 125.542 66.9317 125.695 66.54 125.815C66.8882 125.597 67.2544 125.405 67.628 125.234C68.5055 124.802 69.3541 124.312 70.1664 123.764C70.6125 123.46 71.0295 123.118 71.4211 122.748C71.7584 122.48 72.0195 122.128 72.1863 121.729C72.2806 121.456 72.2371 121.159 72.0703 120.923C72.0014 120.843 71.9216 120.771 71.8309 120.713Z" fill="#FF9A6C"/>
<path d="M70.1414 114.827C69.8658 114.997 69.5612 115.113 69.2421 115.168C68.9375 115.28 68.6147 115.335 68.292 115.327C68.5676 115.157 68.8722 115.041 69.1913 114.986C69.4959 114.874 69.8187 114.819 70.1414 114.827Z" fill="#FF9A6C"/>
<path d="M72.4623 116.322C72.0706 116.55 71.65 116.721 71.2112 116.837C70.7905 117.008 70.3481 117.124 69.8984 117.174C70.2901 116.946 70.7107 116.772 71.1495 116.659C71.5702 116.485 72.0126 116.373 72.4623 116.322Z" fill="#FF9A6C"/>
<path d="M70.3189 118.728C70.2645 118.728 70.2391 118.564 70.1775 118.387C70.1158 118.209 70.0433 118.071 70.0832 118.024C70.1231 117.976 70.2827 118.096 70.3552 118.318C70.4277 118.539 70.3516 118.735 70.3189 118.728Z" fill="#FF9A6C"/>
<path d="M70.9178 120.811C70.8634 120.811 70.8851 120.538 70.809 120.244C70.7328 119.951 70.6023 119.726 70.6422 119.689C70.6821 119.653 70.9069 119.849 71.0048 120.197C71.1027 120.546 70.9649 120.811 70.9178 120.811Z" fill="#FF9A6C"/>
<path d="M26.8317 104.071C26.2298 104.434 21.1347 107.917 21.8781 113.622C22.6215 119.326 33.8996 132.223 36.2531 132.47L45.3009 133.958V123.293L40.9492 123.046L35.2631 111.884L26.8317 104.071Z" fill="#FF0000"/>
<path d="M45.2967 122.777C45.1915 122.796 45.0827 122.806 44.974 122.806L44.0601 122.843L40.8181 122.915H40.7746L40.7456 122.879L38.4537 119.794C37.0866 117.947 35.8609 116.267 34.9797 115.044L33.9461 113.593C33.812 113.419 33.6887 113.234 33.5835 113.041C33.7358 113.197 33.8772 113.368 34.0042 113.546L35.0921 114.961C36.0023 116.158 37.2679 117.828 38.6133 119.678L40.887 122.774L40.8145 122.737H44.9703C45.0791 122.737 45.1915 122.752 45.2967 122.777Z" fill="#263238"/>
<path d="M43.0995 106.6C43.0306 106.498 42.9726 106.39 42.9218 106.277L42.4758 105.341H42.5737C42.2437 105.82 41.9536 106.324 41.6997 106.847C41.3806 107.544 40.9998 108.211 40.5647 108.843L40.4921 108.944L40.416 108.846C39.8285 108.121 39.1576 107.355 38.436 106.567C36.8585 104.851 35.3499 103.363 34.2729 102.275L33 100.979C32.8405 100.827 32.6918 100.663 32.5576 100.486C32.7353 100.62 32.9021 100.765 33.0581 100.925L34.3744 102.173C35.4623 103.236 37.0036 104.713 38.5883 106.43C39.3136 107.221 39.9808 107.997 40.5647 108.727H40.4124C40.8439 108.106 41.2283 107.449 41.5583 106.767C41.823 106.241 42.1313 105.74 42.483 105.268L42.541 105.188L42.5773 105.276C42.7405 105.667 42.8747 105.983 42.9762 106.234C43.0342 106.35 43.0741 106.473 43.0995 106.6Z" fill="#263238"/>
<path d="M49.2858 103.871C49.4055 104.035 49.4998 104.216 49.5578 104.408C49.7427 104.898 49.9023 105.399 50.0328 105.907L50.1561 106.35L49.8733 105.987C49.4671 105.486 49.0247 105.014 48.546 104.582C48.1254 104.198 47.7156 103.857 47.3421 103.516L47.4944 103.458C47.4436 104.053 47.4255 104.651 47.44 105.247C47.4545 105.482 47.4218 105.722 47.3493 105.947C47.3276 105.947 47.3493 105.689 47.3239 105.25C47.2768 104.648 47.2768 104.038 47.3239 103.436L47.3421 103.265L47.4762 103.378C47.8389 103.693 48.274 104.045 48.6983 104.437C49.1879 104.88 49.6339 105.366 50.0328 105.889L49.8733 105.965C49.7173 105.337 49.5904 104.815 49.4744 104.455C49.3982 104.267 49.3329 104.071 49.2858 103.871Z" fill="#263238"/>
<path d="M62.3739 121.26C62.218 121.141 62.0766 121.006 61.9424 120.861L60.8291 119.722C60.3613 119.232 59.8065 118.684 59.1972 118.005C58.918 117.643 58.6714 117.254 58.3813 116.873C58.0876 116.463 57.8337 116.02 57.627 115.56C57.1955 114.623 56.8691 113.698 56.5754 112.86C56.2816 112.022 56.0241 111.263 55.7884 110.639C55.5527 110.015 55.3351 109.514 55.1683 109.187C55.0704 109.02 54.9834 108.846 54.9072 108.665C54.9072 108.665 54.9471 108.701 55.0015 108.781C55.0885 108.897 55.1647 109.017 55.2372 109.144C55.4983 109.612 55.7268 110.098 55.9226 110.595C56.1801 111.22 56.4521 111.971 56.7531 112.805C57.054 113.64 57.384 114.558 57.812 115.483C58.0114 115.933 58.2544 116.362 58.5372 116.764C58.831 117.153 59.0776 117.555 59.3423 117.9C59.9116 118.55 60.481 119.138 60.927 119.631L61.9968 120.811C62.1346 120.948 62.2615 121.101 62.3739 121.26Z" fill="#263238"/>
<path d="M67.6028 127.281L101.807 126.319C102.347 126.305 102.887 126.406 103.388 126.613C104.632 127.143 106.869 128.504 108.403 131.762C110.626 136.48 120.998 156.438 120.998 156.438L110.51 161.816L97.6473 137.939L57.9893 134.564L58.4498 131.392L67.6028 127.281Z" fill="#263238"/>
<path d="M107.396 157.61L112.861 166.998L113.223 169.371C113.445 170.823 114.797 171.817 116.248 171.596L132.882 169.056C133.589 168.961 134.089 168.312 133.995 167.6C133.981 167.488 133.952 167.379 133.908 167.278C133.763 166.947 133.469 166.708 133.118 166.632C131.725 166.269 120.991 162.331 120.991 162.331L116.516 153.346L107.392 157.61H107.396Z" fill="#595F7C"/>
<path d="M111.975 159.784C111.519 159.32 111.109 158.815 110.746 158.274C110.329 157.77 109.966 157.229 109.658 156.652C110.112 157.117 110.525 157.621 110.884 158.162C111.301 158.666 111.667 159.211 111.975 159.784Z" fill="#263238"/>
<path d="M115.239 158.47C114.783 158.002 114.395 157.469 114.094 156.888C113.738 156.337 113.466 155.738 113.281 155.11C113.332 155.085 113.716 155.869 114.257 156.794C114.797 157.719 115.287 158.438 115.239 158.47Z" fill="#263238"/>
<path d="M117.52 171.295C117.484 171.295 117.397 170.972 117.157 170.482C116.508 169.194 115.323 168.265 113.919 167.942C113.386 167.815 113.042 167.811 113.042 167.775C113.342 167.706 113.651 167.706 113.952 167.775C115.442 168.025 116.704 169.016 117.299 170.406C117.437 170.681 117.513 170.986 117.52 171.295Z" fill="#263238"/>
<path d="M128.73 169.68C128.592 169.498 128.501 169.284 128.465 169.059C128.334 168.519 128.363 167.949 128.545 167.423C128.733 166.907 129.031 166.436 129.411 166.04C129.553 165.862 129.727 165.713 129.926 165.605C129.948 165.63 129.778 165.822 129.527 166.142C129.201 166.548 128.936 167.005 128.751 167.495C128.585 167.989 128.537 168.511 128.617 169.027C128.672 169.241 128.708 169.458 128.73 169.68Z" fill="#263238"/>
<path d="M57.1302 131.951C57.1302 131.951 92.4257 128.409 94.141 128.551C97.3068 128.812 103.145 133.809 113.506 140.769C118.873 144.42 123.856 148.607 128.374 153.27L125.063 160.833C125.063 160.833 101.854 152.367 98.2098 149.322C95.1854 146.782 89.666 143.189 89.666 143.189L76.0526 143.327L65.9314 144.22C60.8581 144.67 55.9045 142.489 52.8112 138.439L48.8838 133.305L57.1302 131.951Z" fill="#263238"/>
<path d="M89.4954 143.084C89.4954 143.084 89.5535 143.117 89.6586 143.189L90.1337 143.516L91.965 144.804C93.557 145.94 95.8924 147.573 98.7572 149.739C98.9385 149.874 99.1199 150.03 99.3012 150.149L99.885 150.512C100.306 150.723 100.726 150.955 101.172 151.162L102.536 151.797L103.986 152.432C105.948 153.281 108.063 154.167 110.329 155.088C114.855 156.928 119.932 158.928 125.411 161.036L125.291 161.09L128.29 153.47L128.312 153.579L124.193 149.377C123.224 148.538 122.187 147.646 121.128 146.764C114.811 141.556 108.208 136.708 101.343 132.249C100.414 131.454 99.41 130.746 98.3474 130.14C97.3393 129.552 96.2623 129.084 95.1453 128.747C94.8697 128.674 94.5941 128.616 94.3222 128.547L93.499 128.42L92.6758 128.377H88.6868L78.0288 128.355L71.1097 128.326H68.8251C68.7707 128.326 68.7199 128.326 68.6655 128.326H71.1097L78.0288 128.3L88.6868 128.279H92.6758L93.5135 128.319L94.3548 128.446C94.6304 128.514 94.9096 128.573 95.1889 128.649C96.3203 128.986 97.4082 129.454 98.4308 130.049C99.5079 130.659 100.523 131.37 101.463 132.176C108.342 136.629 114.956 141.477 121.277 146.691C122.34 147.573 123.377 148.466 124.345 149.308L128.465 153.513L128.508 153.561L128.486 153.622L125.476 161.243L125.444 161.33L125.357 161.297C119.877 159.182 114.8 157.171 110.278 155.321C108.019 154.395 105.901 153.506 103.943 152.646L102.492 152.004L101.114 151.293C100.672 151.078 100.248 150.846 99.827 150.632L99.2287 150.269C99.0328 150.15 98.866 149.993 98.6847 149.859C95.8344 147.682 93.5062 146.031 91.9287 144.877L90.1156 143.567L89.6514 143.226C89.539 143.128 89.4954 143.084 89.4954 143.084Z" fill="#455A64"/>
<path d="M117.557 158.913L127.348 162.763L128.976 164.527C129.973 165.605 131.656 165.67 132.733 164.672L145.084 153.234C145.618 152.755 145.665 151.935 145.19 151.401C145.117 151.318 145.034 151.245 144.939 151.184C144.635 150.995 144.258 150.959 143.924 151.093C142.571 151.579 131.471 154.326 131.471 154.326L124.026 148.39L117.557 158.913Z" fill="#595F7C"/>
<path d="M117.557 158.913C117.557 158.913 117.589 158.851 117.662 158.728L117.992 158.184C118.286 157.694 118.717 156.986 119.265 156.079C120.382 154.239 121.992 151.597 123.979 148.353L124.019 148.284L124.084 148.335L131.529 154.257H131.453L138.075 152.588L141.574 151.677C142.165 151.518 142.764 151.362 143.358 151.187L143.801 151.049C143.953 150.991 144.116 150.951 144.279 150.937C144.624 150.922 144.961 151.053 145.204 151.3C145.69 151.79 145.748 152.559 145.338 153.114C145.24 153.245 145.128 153.368 145.005 153.477L144.667 153.789L143.997 154.41L141.364 156.845L136.385 161.446L134.068 163.587L132.958 164.614C132.777 164.788 132.581 164.944 132.37 165.082C131.308 165.735 129.941 165.587 129.045 164.719C128.421 164.07 127.856 163.435 127.301 162.836H127.326C124.305 161.631 121.861 160.659 120.16 159.976L118.231 159.196L117.731 158.993L117.568 158.924C117.568 158.924 117.633 158.942 117.752 158.989L118.264 159.182L120.222 159.936L127.373 162.712C127.932 163.308 128.508 163.946 129.118 164.581C129.785 165.216 130.735 165.449 131.62 165.195C131.845 165.129 132.062 165.031 132.262 164.908C132.461 164.777 132.65 164.625 132.82 164.454C133.183 164.117 133.545 163.772 133.93 163.427C134.68 162.731 135.449 162.016 136.243 161.279C137.824 159.828 139.489 158.267 141.215 156.67C142.075 155.869 142.952 155.056 143.844 154.232L144.515 153.611C144.744 153.415 144.958 153.201 145.161 152.98C145.52 152.501 145.472 151.83 145.052 151.405C144.842 151.198 144.559 151.089 144.265 151.108C144.12 151.122 143.975 151.158 143.837 151.213L143.384 151.351C142.785 151.525 142.191 151.681 141.596 151.841L138.093 152.748L131.471 154.406H131.428L131.395 154.381L123.99 148.444H124.095L119.348 156.086L118.032 158.187L117.669 158.735C117.604 158.844 117.557 158.913 117.557 158.913Z" fill="#263238"/>
<path d="M133.603 163.71C133.578 163.736 133.32 163.511 132.838 163.246C131.583 162.542 130.078 162.433 128.733 162.952C128.222 163.144 127.931 163.333 127.91 163.315C128.127 163.097 128.388 162.927 128.675 162.818C130.049 162.194 131.648 162.306 132.918 163.123C133.186 163.264 133.422 163.464 133.603 163.71Z" fill="#263238"/>
<path d="M141.987 156.094C141.773 156.017 141.578 155.894 141.418 155.731C141.008 155.353 140.715 154.867 140.573 154.33C140.439 153.796 140.421 153.238 140.515 152.697C140.533 152.472 140.595 152.251 140.7 152.051C140.718 152.272 140.707 152.497 140.671 152.715C140.624 153.238 140.66 153.764 140.783 154.272C140.921 154.773 141.175 155.237 141.53 155.618C141.802 155.908 142.009 156.061 141.987 156.094Z" fill="#263238"/>
<path d="M83.4939 143.088C82.736 139.492 81.1876 135.812 78.1233 133.791C75.7988 132.252 72.923 131.875 70.1452 131.534L12.319 124.418C11.8004 133.537 15.7024 144.888 19.6842 153.111C20.3007 154.388 21.0151 155.694 22.1973 156.475C23.6478 157.425 25.49 157.414 27.2162 157.371C46.6717 156.874 66.1345 156.046 85.4812 153.916C84.3933 150.407 84.2482 146.68 83.4939 143.088Z" fill="#595F7C"/>
<path d="M33.5947 127.034C33.3662 127.034 33.1377 127.023 32.9129 126.99L31.0635 126.791C29.5041 126.609 27.3537 126.344 24.982 126.018C22.6104 125.691 20.4635 125.361 18.9187 125.089C18.1427 124.951 17.5189 124.839 17.1055 124.726C16.8807 124.69 16.6595 124.635 16.4419 124.563C16.6704 124.574 16.8952 124.603 17.12 124.646L18.955 124.929C20.5071 125.161 22.6503 125.47 25.0219 125.797L31.0961 126.628L32.9383 126.892C33.1595 126.921 33.3807 126.969 33.5947 127.034Z" fill="#263238"/>
<path d="M33.8923 174.637C33.8706 174.6 33.8488 174.564 33.8343 174.524C33.7908 174.441 33.74 174.328 33.6748 174.19L33.0873 172.895L32.663 171.977C32.5179 171.614 32.3765 171.251 32.2133 170.837C31.9015 170.021 31.5098 169.099 31.1762 168.043C31.0021 167.521 30.8136 166.973 30.6286 166.399C30.4437 165.826 30.266 165.216 30.1028 164.585C29.7401 163.34 29.4283 161.983 29.0946 160.561C27.7493 154.352 27.3068 147.983 27.7855 141.647C27.9197 140.196 28.0249 138.809 28.2279 137.525C28.3259 136.883 28.3911 136.258 28.4999 135.663C28.6087 135.068 28.7175 134.502 28.819 133.958C29.004 132.869 29.2651 131.9 29.4609 131.055C29.5661 130.626 29.6531 130.231 29.751 129.868C29.8489 129.505 29.9541 129.179 30.0411 128.881C30.2116 128.297 30.3494 127.84 30.4437 127.517L30.5561 127.154C30.567 127.114 30.5815 127.074 30.5996 127.034C30.5996 127.077 30.5887 127.117 30.5742 127.157L30.4835 127.52L30.1209 128.892L29.8489 129.883C29.7583 130.245 29.6749 130.648 29.577 131.073C29.3884 131.929 29.1382 132.887 28.9641 133.976C28.8698 134.517 28.7646 135.086 28.6595 135.678C28.5543 136.269 28.4927 136.893 28.402 137.536C28.2026 138.817 28.1046 140.199 27.9741 141.651C27.5244 147.972 27.9668 154.323 29.2796 160.521C29.6096 161.94 29.8961 163.297 30.2696 164.538C30.4473 165.162 30.596 165.768 30.7809 166.352C30.9659 166.936 31.1436 167.473 31.3176 167.996C31.6404 169.052 32.0211 169.974 32.3221 170.797C32.4817 171.208 32.6159 171.592 32.7573 171.941L33.1634 172.88L33.7147 174.19L33.8561 174.535C33.8706 174.568 33.8851 174.6 33.8923 174.637Z" fill="#263238"/>
<path d="M33.2792 156.25C32.5213 156.319 31.7634 156.319 31.0055 156.25C30.2439 156.25 29.486 156.181 28.7354 156.043C29.4933 155.977 30.2548 155.977 31.0127 156.043C31.7743 156.043 32.5322 156.115 33.2792 156.25Z" fill="#263238"/>
<path d="M32.7536 158.913C31.9449 158.841 31.158 158.634 30.4182 158.3C29.6531 158.028 28.9423 157.625 28.3149 157.113C28.3476 157.062 29.2687 157.618 30.4908 158.111C31.7129 158.605 32.7645 158.833 32.7536 158.913Z" fill="#263238"/>
<path d="M27.6873 140.726C27.234 141.009 26.7154 141.168 26.1823 141.186C25.6565 141.27 25.1162 141.212 24.6157 141.023C24.6157 140.961 25.3156 141.067 26.1642 140.983C27.0128 140.9 27.6655 140.671 27.6873 140.726Z" fill="#263238"/>
<path d="M28.8443 139.855C28.2822 139.971 27.6984 139.898 27.1834 139.644C26.6431 139.452 26.1825 139.082 25.8779 138.595C26.3095 138.926 26.7736 139.212 27.2632 139.455C28.09 139.815 28.8443 139.789 28.8443 139.855Z" fill="#263238"/>
<path d="M49.206 77.6857C48.9123 76.9236 48.2668 76.3503 47.4763 76.147C46.6893 75.9511 45.8661 75.9837 45.0974 76.2341L37.5835 77.9542C38.6714 78.68 40.9089 79.3622 42.1926 79.5001C44.0675 79.6997 45.3875 79.7178 46.5044 79.0719C46.7872 79.794 47.6032 80.1533 48.3285 79.8666C48.3792 79.8448 48.43 79.823 48.4808 79.7976C49.177 79.344 49.478 78.4731 49.206 77.6857Z" fill="#263238"/>
<path d="M124.276 156.562C122.749 156.246 121.281 155.691 119.924 154.921C119.946 154.871 120.903 155.284 122.1 155.734C123.297 156.184 124.29 156.511 124.276 156.562Z" fill="#263238"/>
<path d="M125.93 153.346C125.274 153.074 124.632 152.773 124.004 152.436C123.352 152.156 122.713 151.844 122.093 151.499C122.786 151.674 123.457 151.928 124.088 152.265C124.744 152.544 125.364 152.907 125.93 153.346Z" fill="#263238"/>
<path d="M66.0802 130.576L81.2276 130.761L99.519 127.132C100.106 127.009 100.56 126.537 100.654 125.942L103.142 109.46C103.24 108.796 102.783 108.179 102.119 108.077C101.996 108.059 101.869 108.059 101.746 108.077L83.0516 111.122C82.5185 111.209 82.1088 111.637 82.0399 112.17L79.9547 128.932L66.1019 128.863C65.6305 128.863 65.2497 129.244 65.2461 129.716C65.2461 130.18 65.616 130.561 66.0802 130.572V130.576Z" fill="#E0E0FF"/>
<path d="M66.0797 130.576C65.9818 130.583 65.8838 130.568 65.7932 130.529C65.514 130.427 65.3072 130.191 65.2456 129.901C65.1441 129.425 65.4487 128.961 65.9237 128.859C65.9382 128.859 65.9564 128.852 65.9709 128.852C66.5257 128.83 67.1531 128.852 67.8711 128.852L79.9506 128.881L79.8853 128.939C80.48 124.116 81.1872 118.416 81.9668 112.072C82.0575 111.641 82.3585 111.289 82.7683 111.125C82.9677 111.06 83.1708 111.02 83.3775 110.998L83.9795 110.897L86.42 110.501L91.4498 109.677L96.6609 108.835L99.3227 108.404L100.668 108.182L101.343 108.073C101.575 108.023 101.81 107.997 102.046 107.997C102.576 108.044 103.025 108.404 103.188 108.908C103.257 109.151 103.265 109.412 103.21 109.659L103.101 110.363C102.96 111.303 102.822 112.236 102.681 113.161C102.401 115.008 102.126 116.833 101.854 118.622C101.582 120.411 101.317 122.164 101.06 123.884L100.864 125.162C100.831 125.376 100.802 125.586 100.77 125.797C100.748 126.018 100.69 126.236 100.592 126.439C100.385 126.845 100.008 127.136 99.5657 127.234L98.3399 127.477L81.2416 130.844L70.1376 130.681L67.1386 130.626L66.3299 130.608H66.0652H67.1096L70.1122 130.626L81.2162 130.732L98.3073 127.321L99.5294 127.074C99.921 126.99 100.255 126.733 100.436 126.374C100.523 126.188 100.577 125.989 100.592 125.786L100.69 125.151C100.751 124.726 100.817 124.298 100.882 123.87L101.673 118.608C101.941 116.819 102.217 115.004 102.496 113.165C102.634 112.239 102.775 111.307 102.916 110.367L103.022 109.663C103.08 109.445 103.08 109.216 103.022 108.999C102.884 108.567 102.499 108.258 102.046 108.219C101.825 108.219 101.607 108.244 101.39 108.291L100.712 108.404L99.3698 108.621L96.7044 109.053L91.497 109.902L86.4672 110.719L84.0266 111.114L83.4246 111.212C83.2288 111.23 83.0366 111.27 82.848 111.332C82.4963 111.47 82.2352 111.778 82.159 112.149C81.3612 118.47 80.6432 124.178 80.0376 128.997V129.055H79.976L67.8965 128.968C67.1712 128.968 66.5438 128.946 66.0035 128.968C65.7569 129.001 65.5393 129.146 65.4088 129.36C65.1694 129.756 65.2964 130.267 65.6916 130.507C65.7315 130.532 65.7751 130.55 65.8186 130.568C65.9056 130.579 65.9926 130.583 66.0797 130.576Z" fill="#263238"/>
<path d="M83.6573 111.655C83.7081 111.655 83.2076 116.035 82.5368 121.427C81.8659 126.82 81.282 131.185 81.2276 131.178C81.1732 131.171 81.6809 126.798 82.3518 121.406C83.0227 116.013 83.6065 111.648 83.6573 111.655Z" fill="#263238"/>
<path d="M91.7875 118.459C91.4067 119.254 91.617 120.146 92.2553 120.455C92.8935 120.763 93.7058 120.364 94.1011 119.569C94.4964 118.775 94.2715 117.882 93.6333 117.577C92.9951 117.272 92.1682 117.664 91.7875 118.459Z" fill="white"/>
<path d="M230.127 111.612C230.119 111.659 230.108 111.706 230.09 111.749L229.96 112.145C229.844 112.49 229.677 112.998 229.441 113.651C228.984 114.957 228.295 116.841 227.385 119.145C225.039 125.158 222.232 130.982 218.99 136.563C218.076 138.149 217.275 139.797 216.593 141.495C215.976 143.088 215.549 144.746 215.309 146.437C214.954 149.311 214.954 152.218 215.309 155.092C215.574 157.552 215.929 159.526 216.158 160.898C216.274 161.569 216.365 162.099 216.43 162.469C216.459 162.64 216.481 162.774 216.495 162.876C216.506 162.923 216.51 162.97 216.513 163.017C216.499 162.974 216.484 162.927 216.477 162.879C216.455 162.781 216.426 162.647 216.394 162.473C216.321 162.11 216.216 161.58 216.085 160.909C215.835 159.548 215.458 157.578 215.175 155.103C214.805 152.211 214.798 149.286 215.153 146.394C215.385 144.688 215.817 143.015 216.433 141.411C217.115 139.699 217.92 138.037 218.841 136.44C222.076 130.862 224.894 125.053 227.273 119.061C228.201 116.768 228.908 114.892 229.387 113.593C229.626 112.951 229.811 112.45 229.938 112.098L230.087 111.709C230.105 111.655 230.127 111.612 230.127 111.612Z" fill="#263238"/>
<path d="M226.616 133.374C226.583 133.446 226.543 133.519 226.5 133.584L226.137 134.168C225.818 134.676 225.343 135.402 224.755 136.295C223.58 138.084 221.905 140.519 220.219 143.313C219.385 144.714 218.641 146.078 218.018 147.344C217.394 148.611 216.893 149.783 216.498 150.774C216.103 151.764 215.813 152.588 215.631 153.151C215.537 153.419 215.465 153.637 215.407 153.804C215.385 153.88 215.356 153.956 215.316 154.025C215.323 153.945 215.341 153.869 215.37 153.793C215.417 153.622 215.483 153.401 215.559 153.129C215.722 152.552 216.001 151.732 216.371 150.727C216.741 149.721 217.238 148.549 217.858 147.268C218.478 145.987 219.218 144.619 220.059 143.215C221.745 140.413 223.443 137.989 224.643 136.219L226.075 134.128L226.471 133.562C226.514 133.493 226.561 133.432 226.616 133.374Z" fill="#263238"/>
<path d="M230.09 111.612C230.181 110.726 229.223 109.844 228.389 109.532C227.53 109.278 226.616 109.278 225.757 109.532C220.611 110.759 216.658 114.888 215.65 120.085C217.978 118.934 220.371 117.918 222.819 117.051L222.406 117.171C224.807 116.685 226.877 115.171 228.067 113.027C228.259 112.602 228.513 112.21 228.825 111.866C229.151 111.517 229.662 111.416 230.097 111.612" fill="#455A64"/>
<path d="M230.098 111.604C232.411 110.004 235.258 109.365 238.032 109.823C240.814 110.312 243.229 112.018 244.629 114.471C245.981 116.957 245.996 119.954 244.668 122.454C243.385 119.787 242.01 117.011 239.624 115.262C239.062 114.856 238.431 114.482 238.116 113.861C237.753 113.136 237.902 112.261 237.586 111.521C237.202 110.61 236.136 110.341 235.153 110.291C234.17 110.24 231.302 111.151 230.098 111.59" fill="#455A64"/>
<path d="M230.036 111.561C232.407 110.857 235.091 112.018 236.708 113.796C238.326 115.574 239.141 117.962 239.421 120.35C239.7 122.737 239.475 125.151 239.232 127.542C237.375 124.766 235.994 121.7 235.145 118.47C234.783 117.018 234.485 115.509 233.8 114.166C233.002 112.773 231.62 111.815 230.036 111.557" fill="#455A64"/>
<path d="M229.956 111.612C231.853 110.733 232.923 108.752 233.166 106.673C233.391 104.553 232.524 102.467 230.867 101.128C228.959 102.921 228.27 105.66 229.097 108.146C229.499 109.289 230.228 110.432 229.956 111.612Z" fill="#455A64"/>
<path d="M214.798 150.102C214.751 150.012 214.707 149.917 214.678 149.819C214.602 149.631 214.512 149.348 214.363 148.992C214.087 148.266 213.638 147.25 213.068 146.013C211.502 142.798 209.714 139.695 207.716 136.73C205.754 133.74 203.582 130.891 201.21 128.213C200.496 127.4 199.716 126.646 198.882 125.956C198.653 125.771 198.41 125.604 198.157 125.455C198.062 125.412 197.975 125.361 197.888 125.303C197.986 125.336 198.08 125.376 198.175 125.419C198.436 125.557 198.69 125.72 198.925 125.898C199.781 126.569 200.575 127.313 201.304 128.123C203.709 130.782 205.906 133.624 207.868 136.625C209.877 139.597 211.661 142.714 213.199 145.955C213.772 147.207 214.189 148.241 214.443 148.966C214.58 149.329 214.66 149.612 214.725 149.805C214.758 149.903 214.783 150.001 214.798 150.102Z" fill="#263238"/>
<path d="M221.623 171.781H208.662L206.643 156.768H224.035L221.623 171.781Z" fill="#FF0000"/>
<path d="M233.768 138.748C232.458 135.935 229.093 134.099 226.003 134.35C226.678 134.687 227.157 135.319 227.291 136.062C227.414 136.796 227.479 137.536 227.487 138.276C227.766 141.829 230.05 144.859 232.241 147.664C233.782 149.634 235.334 151.616 237.176 153.31C236.955 148.259 236.636 142.906 233.768 138.748Z" fill="#455A64"/>
<path d="M226.003 134.39C227.965 132.88 230.497 132.252 232.973 132.212C235.45 132.172 237.894 132.72 240.291 133.33C241.742 133.693 243.192 134.099 244.429 134.934C245.666 135.768 246.645 137.111 246.667 138.595C244.632 136.356 241.354 135.925 238.449 135.079C236.484 134.509 234.583 133.689 232.578 133.265C230.326 132.898 228.016 133.279 226.003 134.353" fill="#455A64"/>
<path d="M226.34 133.99C225.481 133.087 225.956 130.975 226.703 129.981C227.45 128.986 228.643 128.424 229.818 128.006C231.363 127.455 232.966 127.081 234.594 126.892C234.384 127.916 233.854 128.848 233.082 129.552C232.309 130.245 231.468 130.855 230.565 131.367L226.333 133.987" fill="#455A64"/>
<path d="M218.276 132.786C215.821 133.874 213.924 135.874 212.085 137.833C214.809 137.169 217.416 136.092 219.813 134.633C220.763 134.052 221.706 133.403 222.794 133.159C223.882 132.916 225.101 133.403 226.007 134.154C224.466 131.882 220.731 131.697 218.276 132.786Z" fill="#455A64"/>
<path d="M217.118 148.858C218.493 145.701 217.913 141.872 219.657 138.907C220.995 136.636 223.461 135.279 225.916 134.328C226.485 136.037 226.213 137.957 225.492 139.601C224.77 141.244 223.624 142.681 222.417 144.017C220.745 145.864 218.928 147.573 217.115 149.282" fill="#455A64"/>
<path d="M224.832 156.768H205.449V160.147H224.832V156.768Z" fill="#FF0000"/>
<path d="M224.187 160.252C224.187 160.307 219.991 160.346 214.82 160.346C209.649 160.346 205.449 160.307 205.449 160.252C205.449 160.198 209.645 160.158 214.82 160.158C219.995 160.158 224.187 160.201 224.187 160.252Z" fill="#263238"/>
<path d="M230.968 111.738C230.326 110.537 229.571 109.402 228.716 108.346C227.853 107.286 226.703 106.495 225.405 106.063C223.657 105.551 221.778 105.958 220.038 106.477C218 107.086 216.005 107.845 214.08 108.748C216.625 109.706 219.421 109.757 222 108.89C223.334 108.436 224.629 108.494 226.028 108.654C227.733 108.846 229.865 110.425 230.968 111.738Z" fill="#455A64"/>
<path d="M184.673 131.755C181.62 135.645 180.601 140.827 180.945 145.777C182.762 139.191 186.541 133.315 191.781 128.935C193.775 127.281 196.321 125.967 198.791 125.967C193.71 125.528 187.814 127.742 184.673 131.755Z" fill="#455A64"/>
<path d="M191.767 123.942C190.062 124.069 188.503 124.933 187.096 125.898C184.942 127.379 182.918 129.248 181.979 131.704C185.852 127.139 191.748 124.813 197.692 125.495C195.835 124.559 193.834 123.79 191.767 123.942Z" fill="#455A64"/>
<path d="M196.539 118.1C195.553 118.786 194.798 119.914 194.849 121.112C194.914 121.939 195.263 122.723 195.828 123.329C196.452 124.051 197.141 124.715 197.892 125.303C198.519 122.531 199.27 119.635 199.897 116.862C198.708 117.044 197.565 117.465 196.539 118.1Z" fill="#455A64"/>
<path d="M202.319 117.835C200.952 118.655 199.853 119.853 199.15 121.286C198.501 122.737 198.232 124.552 199.048 125.909C201.387 122.411 203.908 119.036 206.606 115.806C205.115 116.343 203.679 117.022 202.319 117.835Z" fill="#455A64"/>
<path d="M207.204 122.596C204.089 122.378 201.065 123.703 199.114 126.145C200.456 125.459 201.968 125.176 203.465 125.321C207.222 125.807 210.95 126.501 214.631 127.393C213.093 124.668 210.319 122.875 207.204 122.596Z" fill="#455A64"/>
<path d="M199.469 125.909C196.59 126.069 194.073 128.286 193.069 130.989C192.064 133.693 192.409 136.759 193.493 139.43C194.577 142.101 196.358 144.431 198.24 146.615C199.183 143.349 200.133 140.083 200.55 136.737C200.967 133.392 200.648 129.081 199.469 125.909Z" fill="#455A64"/>
<g opacity="0.3">
<path d="M184.673 131.755C181.62 135.645 180.601 140.827 180.945 145.777C182.762 139.191 186.541 133.315 191.781 128.935C193.775 127.281 196.321 125.967 198.791 125.967C193.71 125.528 187.814 127.742 184.673 131.755Z" fill="black"/>
<path d="M191.767 123.942C190.062 124.069 188.503 124.933 187.096 125.898C184.942 127.379 182.918 129.248 181.979 131.704C185.852 127.139 191.748 124.813 197.692 125.495C195.835 124.559 193.834 123.79 191.767 123.942Z" fill="black"/>
<path d="M196.539 118.1C195.553 118.786 194.798 119.914 194.849 121.112C194.914 121.939 195.263 122.723 195.828 123.329C196.452 124.051 197.141 124.715 197.892 125.303C198.519 122.531 199.27 119.635 199.897 116.862C198.708 117.044 197.565 117.465 196.539 118.1Z" fill="black"/>
<path d="M202.319 117.835C200.952 118.655 199.853 119.853 199.15 121.286C198.501 122.737 198.232 124.552 199.048 125.909C201.387 122.411 203.908 119.036 206.606 115.806C205.115 116.343 203.679 117.022 202.319 117.835Z" fill="black"/>
<path d="M207.204 122.596C204.089 122.378 201.065 123.703 199.114 126.145C200.456 125.459 201.968 125.176 203.465 125.321C207.222 125.807 210.95 126.501 214.631 127.393C213.093 124.668 210.319 122.875 207.204 122.596Z" fill="black"/>
<path d="M199.469 125.909C196.59 126.069 194.073 128.286 193.069 130.989C192.064 133.693 192.409 136.759 193.493 139.43C194.577 142.101 196.358 144.431 198.24 146.615C199.183 143.349 200.133 140.083 200.55 136.737C200.967 133.392 200.648 129.081 199.469 125.909Z" fill="black"/>
</g>
<g opacity="0.2">
<path d="M233.768 138.748C232.458 135.935 229.093 134.099 226.003 134.35C226.678 134.687 227.157 135.319 227.291 136.062C227.414 136.795 227.479 137.536 227.487 138.276C227.766 141.829 230.05 144.859 232.241 147.664C233.782 149.634 235.334 151.616 237.176 153.31C236.955 148.259 236.636 142.906 233.768 138.748Z" fill="black"/>
<path d="M226.003 134.39C227.965 132.88 230.497 132.252 232.973 132.212C235.45 132.172 237.894 132.72 240.291 133.33C241.742 133.693 243.192 134.099 244.429 134.934C245.666 135.768 246.645 137.111 246.667 138.595C244.632 136.356 241.354 135.925 238.449 135.079C236.484 134.509 234.583 133.689 232.578 133.265C230.326 132.898 228.016 133.279 226.003 134.353" fill="black"/>
<path d="M226.34 133.99C225.481 133.087 225.956 130.975 226.703 129.981C227.45 128.986 228.643 128.424 229.818 128.006C231.363 127.455 232.966 127.081 234.594 126.892C234.384 127.916 233.854 128.848 233.082 129.552C232.309 130.245 231.468 130.855 230.565 131.367L226.333 133.987" fill="black"/>
<path d="M218.276 132.786C215.821 133.874 213.924 135.874 212.085 137.833C214.809 137.169 217.416 136.091 219.813 134.633C220.763 134.052 221.706 133.403 222.794 133.159C223.882 132.916 225.101 133.403 226.007 134.154C224.466 131.882 220.731 131.697 218.276 132.786Z" fill="black"/>
<path d="M217.119 148.858C218.494 145.701 217.914 141.872 219.658 138.907C220.996 136.636 223.462 135.279 225.917 134.328C226.486 136.037 226.214 137.957 225.493 139.601C224.771 141.244 223.625 142.681 222.417 144.017C220.746 145.864 218.929 147.573 217.116 149.282" fill="black"/>
</g>
<path d="M123.308 91.145C123.138 91.2066 122.804 91.3046 122.409 91.3046C121.966 91.3046 121.6 91.1921 121.314 90.9163C121.06 90.6732 120.904 90.2813 120.904 89.8241C120.907 88.9495 121.509 88.3109 122.492 88.3109C122.833 88.3109 123.098 88.3834 123.221 88.4451L123.13 88.7536C122.974 88.6846 122.779 88.6266 122.481 88.6266C121.767 88.6266 121.303 89.0693 121.303 89.8059C121.303 90.5426 121.752 90.9889 122.434 90.9889C122.681 90.9889 122.851 90.9526 122.938 90.9091V90.0345H122.343V89.7297H123.308V91.1413V91.145Z" fill="white"/>
<path d="M124.109 90.2922C124.116 90.8111 124.45 91.0252 124.831 91.0252C125.106 91.0252 125.27 90.978 125.415 90.9163L125.48 91.1885C125.346 91.2502 125.114 91.3191 124.78 91.3191C124.131 91.3191 123.747 90.8909 123.747 90.2559C123.747 89.6208 124.12 89.1201 124.733 89.1201C125.422 89.1201 125.603 89.7261 125.603 90.1107C125.603 90.1906 125.596 90.2486 125.589 90.2885H124.109V90.2922ZM125.233 90.02C125.237 89.7769 125.132 89.3958 124.704 89.3958C124.316 89.3958 124.145 89.7515 124.116 90.02H125.233Z" fill="white"/>
<path d="M126.079 89.7406C126.079 89.5229 126.075 89.3451 126.061 89.1709H126.401L126.423 89.5193H126.43C126.536 89.3197 126.779 89.1237 127.127 89.1237C127.417 89.1237 127.87 89.2979 127.87 90.02V91.2792H127.486V90.0636C127.486 89.7225 127.359 89.4394 127 89.4394C126.746 89.4394 126.55 89.6172 126.485 89.8313C126.467 89.8785 126.459 89.9438 126.459 90.0091V91.2756H126.075V89.7406H126.079Z" fill="white"/>
<path d="M128.707 90.2922C128.715 90.8111 129.048 91.0252 129.429 91.0252C129.705 91.0252 129.868 90.978 130.013 90.9163L130.078 91.1885C129.944 91.2502 129.712 91.3191 129.378 91.3191C128.729 91.3191 128.345 90.8909 128.345 90.2559C128.345 89.6208 128.718 89.1201 129.331 89.1201C130.02 89.1201 130.201 89.7261 130.201 90.1107C130.201 90.1906 130.194 90.2486 130.187 90.2885H128.707V90.2922ZM129.828 90.02C129.832 89.7769 129.726 89.3958 129.298 89.3958C128.91 89.3958 128.74 89.7515 128.711 90.02H129.828Z" fill="white"/>
<path d="M130.673 89.8277C130.673 89.5809 130.669 89.3668 130.655 89.1709H130.988L131.003 89.5846H131.021C131.115 89.3015 131.347 89.1237 131.605 89.1237C131.648 89.1237 131.677 89.1273 131.714 89.1382V89.5011C131.674 89.4939 131.634 89.4866 131.583 89.4866C131.315 89.4866 131.123 89.6898 131.068 89.9801C131.061 90.0309 131.05 90.0926 131.05 90.1579V91.2792H130.673V89.8313V89.8277Z" fill="white"/>
<path d="M133.24 91.2756L133.211 91.0107H133.197C133.081 91.1776 132.852 91.3228 132.555 91.3228C132.127 91.3228 131.913 91.0216 131.913 90.7168C131.913 90.2087 132.366 89.9293 133.179 89.9329V89.8894C133.179 89.7152 133.132 89.4031 132.7 89.4031C132.504 89.4031 132.301 89.4648 132.152 89.5592L132.065 89.3052C132.239 89.1927 132.493 89.1165 132.758 89.1165C133.404 89.1165 133.559 89.5555 133.559 89.9765V90.7639C133.559 90.9454 133.567 91.1268 133.596 91.2683H133.248L133.24 91.2756ZM133.182 90.2015C132.765 90.1942 132.29 90.2668 132.29 90.6768C132.29 90.9236 132.457 91.0434 132.653 91.0434C132.928 91.0434 133.103 90.8692 133.161 90.6914C133.175 90.6514 133.182 90.6079 133.182 90.568V90.2015Z" fill="white"/>
<path d="M134.615 88.5649V89.171H135.163V89.4613H134.615V90.5971C134.615 90.8584 134.688 91.0071 134.902 91.0071C135.003 91.0071 135.076 90.9926 135.123 90.9817L135.141 91.2684C135.068 91.2974 134.949 91.3192 134.8 91.3192C134.622 91.3192 134.477 91.2612 134.387 91.1595C134.278 91.0471 134.238 90.8584 134.238 90.6116V89.4613H133.912V89.171H134.238V88.6665L134.612 88.5649H134.615Z" fill="white"/>
<path d="M135.783 90.2922C135.79 90.8111 136.123 91.0252 136.504 91.0252C136.78 91.0252 136.943 90.978 137.088 90.9163L137.153 91.1885C137.019 91.2502 136.787 91.3191 136.453 91.3191C135.804 91.3191 135.42 90.8909 135.42 90.2559C135.42 89.6208 135.793 89.1201 136.406 89.1201C137.092 89.1201 137.277 89.7261 137.277 90.1107C137.277 90.1906 137.269 90.2486 137.262 90.2885H135.783V90.2922ZM136.903 90.02C136.907 89.7769 136.802 89.3958 136.374 89.3958C135.986 89.3958 135.815 89.7515 135.786 90.02H136.903Z" fill="white"/>
<path d="M104.418 76.8511L107.203 71.0667L99.2577 55.0637H93.6006L104.418 76.8511Z" fill="white"/>
<path d="M107.062 60.1367L106.997 60.2674H110.605C111.86 60.2674 113.009 59.5561 113.568 58.4276L115.239 55.06C111.773 55.06 108.607 57.0268 107.062 60.1367Z" fill="url(#paint0_linear_499_2936)"/>
<path d="M162.136 71.2192L155.242 63.8164V70.8889H154.06V60.692L160.953 68.0947V61.0222H162.136V71.2192Z" fill="white"/>
<path d="M147.169 70.8889V61.0222H152.028V62.1399H148.416V64.2446H151.26V65.3622H148.416V69.7713H152.028V70.8889H147.169Z" fill="white"/>
<path d="M136.66 70.8889V61.0222H139.888C140.776 61.0222 141.552 61.1673 142.209 61.4613C142.872 61.7552 143.42 62.1399 143.851 62.6225C144.283 63.1051 144.602 63.6386 144.816 64.2228C145.026 64.7998 145.131 65.3768 145.131 65.9537C145.131 66.5307 145.026 67.1113 144.816 67.6956C144.606 68.2726 144.283 68.8024 143.851 69.285C143.42 69.7676 142.872 70.1559 142.209 70.4462C141.552 70.7402 140.78 70.8853 139.888 70.8853H136.66V70.8889ZM137.908 69.7713H139.757C140.515 69.7713 141.153 69.6551 141.672 69.4193C142.19 69.1798 142.607 68.8677 142.93 68.4867C143.249 68.0984 143.481 67.6811 143.619 67.2383C143.764 66.792 143.837 66.3638 143.837 65.9537C143.837 65.5437 143.764 65.1155 143.619 64.6691C143.481 64.2228 143.249 63.8091 142.93 63.4317C142.607 63.0434 142.19 62.735 141.672 62.4991C141.153 62.2596 140.515 62.1362 139.757 62.1362H137.908V69.7676V69.7713Z" fill="white"/>
<path d="M126.724 70.8889L130.894 60.692H130.916L135.086 70.8889H133.762L132.602 67.9605H129.157L127.986 70.8889H126.727H126.724ZM129.567 66.919H132.181L131.405 64.9667C131.311 64.7199 131.22 64.4732 131.133 64.2337C131.046 63.9942 130.959 63.7039 130.872 63.3664C130.785 63.7039 130.702 63.9905 130.622 64.2337C130.542 64.4659 130.452 64.7127 130.35 64.9667L129.574 66.919H129.567Z" fill="white"/>
<path d="M123.402 71.2192L119.442 61.0222H120.755L123.076 66.9662C123.148 67.1549 123.213 67.34 123.271 67.5141C123.337 67.6811 123.398 67.8806 123.456 68.1056C123.514 67.8806 123.572 67.6811 123.63 67.5141C123.696 67.34 123.765 67.1549 123.837 66.9662L126.147 61.0222H127.384L123.424 71.2192H123.402Z" fill="white"/>
<defs>
<linearGradient id="paint0_linear_499_2936" x1="106.997" y1="57.6655" x2="115.239" y2="57.6655" gradientUnits="userSpaceOnUse">
<stop stop-color="#7C1334"/>
<stop offset="1" stop-color="#C30F28"/>
</linearGradient>
</defs>
</svg>
