<svg width="345" height="345" viewBox="0 0 345 345" fill="none" xmlns="http://www.w3.org/2000/svg">
<g clip-path="url(#clip0_477_903)">
<rect width="345" height="345" rx="172.5" fill="white"/>
<path d="M345 0H0V345H345V0Z" fill="url(#paint0_linear_477_903)"/>
<path d="M298.318 0.000698203C298.318 0.000698203 314.239 142.254 219.667 230.689C125.095 319.125 0 303.6 0 303.6V345.001H346.757V-1.12695L298.318 0.000698203H298.318Z" fill="url(#paint1_linear_477_903)"/>
<path d="M168.645 265.86L189.864 221.906L129.349 100.27H86.2612L168.645 265.86Z" fill="white"/>
<path d="M188.775 138.847L188.278 139.847H215.758C225.32 139.847 234.058 134.434 238.318 125.873L251.056 100.27C224.657 100.27 200.534 115.212 188.775 138.847V138.847Z" fill="url(#paint2_linear_477_903)"/>
</g>
<defs>
<linearGradient id="paint0_linear_477_903" x1="345" y1="172.5" x2="0" y2="172.5" gradientUnits="userSpaceOnUse">
<stop stop-color="#19171C"/>
<stop offset="1"/>
</linearGradient>
<linearGradient id="paint1_linear_477_903" x1="342.963" y1="341.521" x2="97.7684" y2="96.3268" gradientUnits="userSpaceOnUse">
<stop stop-color="#19171C"/>
<stop offset="1"/>
</linearGradient>
<linearGradient id="paint2_linear_477_903" x1="188.278" y1="120.058" x2="251.056" y2="120.058" gradientUnits="userSpaceOnUse">
<stop stop-color="#7C1334"/>
<stop offset="1" stop-color="#C30F28"/>
</linearGradient>
<clipPath id="clip0_477_903">
<rect width="345" height="345" rx="172.5" fill="white"/>
</clipPath>
</defs>
</svg>
