<svg width="248" height="189" viewBox="0 0 248 189" fill="none" xmlns="http://www.w3.org/2000/svg">
<path d="M228.258 111.425C228.258 166.632 177.771 188.456 122.564 188.456C67.3569 188.456 19.7412 166.632 19.7412 111.425C19.7412 56.2178 67.3604 0 122.568 0C177.775 0 228.261 56.2178 228.261 111.425H228.258Z" fill="#19171C"/>
<path d="M197.507 79.0378H247.333L239.217 84.8949V96.4343C239.217 97.7631 238.14 98.8401 236.811 98.8401H197.507C196.179 98.8401 195.102 97.7631 195.102 96.4343V81.4436C195.102 80.1148 196.179 79.0378 197.507 79.0378Z" fill="#1E2027"/>
<path d="M199.584 87.1818C199.584 87.2307 207.099 87.2692 216.369 87.2692C225.639 87.2692 233.154 87.2307 233.154 87.1818C233.154 87.1328 225.639 87.0944 216.369 87.0944C207.099 87.0944 199.584 87.1328 199.584 87.1818Z" fill="#595F7C"/>
<path d="M199.584 91.6052C199.584 91.6542 207.099 91.6927 216.369 91.6927C225.639 91.6927 233.154 91.6542 233.154 91.6052C233.154 91.5563 225.639 91.5178 216.369 91.5178C207.099 91.5178 199.584 91.5598 199.584 91.6052Z" fill="#595F7C"/>
<path d="M121.834 36.5168H119.501V44.3287H121.834V36.5168Z" fill="#33353E"/>
<path d="M102.356 35.3874H100.024V44.3287H102.356V35.3874Z" fill="#33353E"/>
<path d="M107.227 33.5237H104.895V44.3287H107.227V33.5237Z" fill="#33353E"/>
<path d="M112.095 34.1146H109.763V44.3287H112.095V34.1146Z" fill="#33353E"/>
<path d="M116.963 30.6598H114.63V44.3287H116.963V30.6598Z" fill="#33353E"/>
<path d="M126.701 30.7262H124.369V44.3287H126.701V30.7262Z" fill="#33353E"/>
<path d="M131.572 35.1951H129.24V44.3287H131.572V35.1951Z" fill="#33353E"/>
<path d="M136.439 31.3242H134.107V44.3287H136.439V31.3242Z" fill="#33353E"/>
<path d="M141.31 28.3973H138.978V44.3287H141.31V28.3973Z" fill="#33353E"/>
<path d="M146.178 31.2577H143.846V44.3287H146.178V31.2577Z" fill="#33353E"/>
<path d="M207.617 43.6049L226.898 40.6571C228.531 51.3083 221.223 61.2671 210.568 62.9001C199.917 64.5331 189.958 57.2248 188.325 46.5701C186.692 35.9154 194 25.9601 204.655 24.3271C206.347 24.0683 208.064 24.0334 209.764 24.2222L207.617 43.6049Z" fill="#33353E"/>
<path d="M213.873 24.2676L211.533 39.2129L226.22 36.4574C226.22 36.4574 224.048 28.0931 213.873 24.2676Z" fill="#595F7C"/>
<path d="M10.7198 79.8665C10.6534 74.5864 14.881 70.2539 20.1611 70.1909C25.4413 70.1245 29.7738 74.3521 29.8367 79.6322C29.9032 84.8984 25.6965 89.2239 20.4304 89.3078C15.1432 89.3743 10.8002 85.1537 10.7163 79.8665H10.7198ZM24.8503 79.6357C24.7944 77.1111 22.7068 75.1109 20.1821 75.1634C17.6574 75.2193 15.6573 77.3069 15.7097 79.8316C15.7622 82.3423 17.8323 84.3354 20.3395 84.304C22.8711 84.262 24.8888 82.1744 24.8468 79.6427V79.6357H24.8503Z" fill="#1E2027"/>
<path d="M10.7197 79.8665C10.6288 74.5759 14.8354 70.2119 20.1261 70.107L20.2065 75.1179C17.6713 75.2158 15.6921 77.3489 15.79 79.884C15.8845 82.3353 17.8881 84.283 20.3429 84.304L20.4338 89.3079C15.1466 89.3743 10.8036 85.1537 10.7197 79.8665Z" fill="#33353E"/>
<path d="M19.2696 69.3342C25.3051 69.1909 30.3125 73.9675 30.4558 80.0029C30.4558 80.0764 30.4558 80.1463 30.4558 80.2197L24.6162 80.3106C24.5707 77.3489 22.3153 75.4851 19.371 75.534L19.2661 69.3342H19.2696Z" fill="#595F7C"/>
<path d="M72.8365 113.59H60.6816V128.038H72.8365V113.59Z" fill="#F5F5F5"/>
<path d="M61.1051 112.645H6.18115V128.944H61.1051V112.645Z" fill="#33353E"/>
<path d="M73.2039 114.016H59.6294V112.645H73.2039C73.5886 112.645 73.9033 112.96 73.9033 113.345C73.8893 113.719 73.5781 114.016 73.2039 114.016Z" fill="#E0E0E0"/>
<path d="M73.2039 128.944H59.6294V127.573H73.2039C73.5886 127.573 73.9033 127.888 73.9033 128.272C73.8893 128.647 73.5781 128.944 73.2039 128.944Z" fill="#E0E0E0"/>
<path d="M56.7864 112.645H50.2964V128.944H56.7864V112.645Z" fill="#EBEBEB"/>
<path d="M17.8914 112.827H11.4014V129.126H17.8914V112.827Z" fill="#19171C"/>
<path d="M72.8366 115.978C72.8366 116.02 70.207 116.051 66.962 116.051C63.717 116.051 61.0874 116.02 61.0874 115.978C61.0874 115.936 63.717 115.904 66.962 115.904C70.207 115.904 72.8366 115.939 72.8366 115.978Z" fill="#E0E0E0"/>
<path d="M72.8366 118.146C72.8366 118.184 70.207 118.216 66.962 118.216C63.717 118.216 61.0874 118.184 61.0874 118.146C61.0874 118.107 63.717 118.072 66.962 118.072C70.207 118.072 72.8366 118.104 72.8366 118.146Z" fill="#E0E0E0"/>
<path d="M72.8366 120.814C72.8366 120.852 70.207 120.884 66.962 120.884C63.717 120.884 61.0874 120.852 61.0874 120.814C61.0874 120.775 63.717 120.74 66.962 120.74C70.207 120.74 72.8366 120.779 72.8366 120.814Z" fill="#E0E0E0"/>
<path d="M72.8366 123.478C72.8366 123.52 70.207 123.552 66.962 123.552C63.717 123.552 61.0874 123.52 61.0874 123.478C61.0874 123.436 63.717 123.408 66.962 123.408C70.207 123.408 72.8366 123.44 72.8366 123.478Z" fill="#E0E0E0"/>
<path d="M72.8366 126.146C72.8366 126.188 70.207 126.22 66.962 126.22C63.717 126.22 61.0874 126.188 61.0874 126.146C61.0874 126.105 63.717 126.077 66.962 126.077C70.207 126.077 72.8366 126.108 72.8366 126.146Z" fill="#E0E0E0"/>
<path d="M46.8069 119.345H22.0986V122.279H46.8069V119.345Z" fill="#19171C"/>
<path d="M72.7142 129.266H60.374V138.07H72.7142V129.266Z" fill="#FAFAFA"/>
<path d="M60.5142 128.944H7.99951V138.385H60.5142V128.944Z" fill="#1E2027"/>
<path d="M60.1289 129.584H73.3922C73.567 129.584 73.7104 129.44 73.7104 129.266C73.7104 129.091 73.567 128.947 73.3922 128.944H60.1289V129.584Z" fill="#F5F5F5"/>
<path d="M60.1289 137.749H73.5635C73.644 137.749 73.7104 137.815 73.7104 137.896V138.245C73.7104 138.326 73.644 138.392 73.5635 138.392H60.1289V137.752V137.749Z" fill="#F5F5F5"/>
<path d="M72.714 130.937C72.714 130.976 69.9795 131.011 66.6121 131.011C63.2447 131.011 60.5103 130.976 60.5103 130.937C60.5103 130.899 63.2412 130.864 66.6121 130.864C69.983 130.864 72.714 130.899 72.714 130.937Z" fill="#E0E0E0"/>
<path d="M72.714 132.602C72.714 132.644 69.9795 132.675 66.6121 132.675C63.2447 132.675 60.5103 132.644 60.5103 132.602C60.5103 132.56 63.2412 132.532 66.6121 132.532C69.983 132.532 72.714 132.563 72.714 132.602Z" fill="#E0E0E0"/>
<path d="M72.714 134.269C72.714 134.308 69.9795 134.339 66.6121 134.339C63.2447 134.339 60.5103 134.308 60.5103 134.269C60.5103 134.231 63.2412 134.196 66.6121 134.196C69.983 134.196 72.714 134.228 72.714 134.269Z" fill="#E0E0E0"/>
<path d="M72.714 135.934C72.714 135.972 69.9795 136.004 66.6121 136.004C63.2447 136.004 60.5103 135.972 60.5103 135.934C60.5103 135.895 63.2412 135.861 66.6121 135.861C69.983 135.861 72.714 135.892 72.714 135.934Z" fill="#E0E0E0"/>
<path d="M74.5847 139.228H61.9893V163.093H74.5847V139.228Z" fill="#EBEBEB"/>
<path d="M61.9893 138.389H2.86914V164.265H61.9893V138.389Z" fill="#33353E"/>
<path d="M75.571 164.261H60.374V162.583H75.571C76.0326 162.583 76.4068 162.961 76.4103 163.422C76.4103 163.887 76.0361 164.261 75.571 164.261Z" fill="#E0E0E0"/>
<path d="M60.374 138.389H76.0256C76.2389 138.389 76.4103 138.56 76.4103 138.773V139.683C76.4103 139.896 76.2389 140.067 76.0256 140.067H60.374V138.389Z" fill="#E0E0E0"/>
<path d="M74.585 142.424C74.585 142.466 71.7666 142.497 68.2908 142.497C64.815 142.497 61.9966 142.466 61.9966 142.424C61.9966 142.382 64.815 142.354 68.2908 142.354C71.7666 142.354 74.585 142.386 74.585 142.424Z" fill="#E0E0E0"/>
<path d="M74.585 145.487C74.585 145.526 71.7666 145.557 68.2908 145.557C64.815 145.557 61.9966 145.526 61.9966 145.487C61.9966 145.449 64.815 145.414 68.2908 145.414C71.7666 145.414 74.585 145.445 74.585 145.487Z" fill="#E0E0E0"/>
<path d="M74.585 148.547C74.585 148.585 71.7666 148.62 68.2908 148.62C64.815 148.62 61.9966 148.585 61.9966 148.547C61.9966 148.508 64.815 148.473 68.2908 148.473C71.7666 148.473 74.585 148.508 74.585 148.547Z" fill="#E0E0E0"/>
<path d="M74.585 151.607C74.585 151.649 71.7666 151.68 68.2908 151.68C64.815 151.68 61.9966 151.649 61.9966 151.607C61.9966 151.565 64.815 151.537 68.2908 151.537C71.7666 151.537 74.585 151.568 74.585 151.607Z" fill="#E0E0E0"/>
<path d="M74.585 154.67C74.585 154.708 71.7666 154.74 68.2908 154.74C64.815 154.74 61.9966 154.708 61.9966 154.67C61.9966 154.631 64.815 154.596 68.2908 154.596C71.7666 154.596 74.585 154.628 74.585 154.67Z" fill="#E0E0E0"/>
<path d="M74.585 157.729C74.585 157.768 71.7666 157.803 68.2908 157.803C64.815 157.803 61.9966 157.768 61.9966 157.729C61.9966 157.691 64.815 157.656 68.2908 157.656C71.7666 157.656 74.585 157.691 74.585 157.729Z" fill="#E0E0E0"/>
<path d="M74.585 160.789C74.585 160.831 71.7666 160.862 68.2908 160.862C64.815 160.862 61.9966 160.831 61.9966 160.789C61.9966 160.747 64.815 160.719 68.2908 160.719C71.7666 160.719 74.585 160.751 74.585 160.789Z" fill="#E0E0E0"/>
<path d="M23.0983 152.74V154.18C23.0983 155.929 22.2311 156.904 20.5597 156.904C18.8882 156.904 18.021 155.915 18.021 154.18V148.547C18.021 146.798 18.8882 145.819 20.5597 145.819C22.2311 145.819 23.0983 146.812 23.0983 148.547V149.596H21.4898V148.438C21.4898 147.662 21.1401 147.368 20.6086 147.368C20.0771 147.368 19.7239 147.662 19.7239 148.438V154.289C19.7239 155.065 20.0736 155.338 20.6086 155.338C21.1436 155.338 21.4898 155.061 21.4898 154.289V152.74H23.0983Z" fill="#EBEBEB"/>
<path d="M43.2679 145.956V154.317C43.2679 155.089 43.6176 155.366 44.1491 155.366C44.6806 155.366 45.0303 155.086 45.0303 154.317V145.956H46.6423V154.208C46.6423 155.939 45.7751 156.932 44.1036 156.932C42.4321 156.932 41.5649 155.939 41.5649 154.208V145.956H43.2679Z" fill="#EBEBEB"/>
<path d="M51.363 156.796C51.2197 156.366 51.1672 155.915 51.2057 155.463V153.761C51.2057 152.753 50.856 152.383 50.0937 152.383H49.5027V156.796H47.7998V145.956H50.3699C52.1183 145.956 52.8946 146.777 52.8946 148.449V149.299C52.8946 150.414 52.5449 151.141 51.7791 151.498C52.6324 151.848 52.9086 152.673 52.9086 153.802V155.477C52.8771 155.925 52.9436 156.373 53.0974 156.792H51.363V156.796ZM49.5027 147.508V150.834H50.1706C50.8035 150.834 51.1917 150.557 51.1917 149.69V148.62C51.1917 147.847 50.9294 147.508 50.3245 147.508H49.5027Z" fill="#EBEBEB"/>
<path d="M45.097 134.311C45.1424 135.133 44.5165 135.836 43.6948 135.882C43.6633 135.882 43.6318 135.882 43.6003 135.882C43.1772 135.927 42.7716 135.693 42.5933 135.305L42.2925 136.833H41.9429L42.6597 133.213H43.0094L42.9255 133.637C43.1877 133.343 43.5619 133.182 43.9535 133.193C44.5445 133.151 45.055 133.595 45.097 134.186C45.097 134.228 45.097 134.266 45.097 134.308V134.311ZM44.7473 134.332C44.7788 133.906 44.4571 133.535 44.027 133.504C43.978 133.5 43.9255 133.504 43.8766 133.507C43.2402 133.507 42.7192 134.018 42.7192 134.658C42.7192 134.693 42.7192 134.731 42.7227 134.766C42.6912 135.189 43.0059 135.56 43.429 135.591C43.4815 135.595 43.5339 135.591 43.5899 135.588C44.2263 135.588 44.7438 135.07 44.7403 134.43C44.7403 134.399 44.7403 134.364 44.7368 134.332H44.7473Z" fill="#E0E0E0"/>
<path d="M48.296 134.067C48.296 134.168 48.2855 134.269 48.268 134.367L47.9673 135.871H47.6176L47.9218 134.364C47.9358 134.283 47.9428 134.203 47.9463 134.123C47.9463 133.745 47.719 133.528 47.247 133.528C46.698 133.5 46.2259 133.909 46.1734 134.455L45.8902 135.871H45.5405L46.2853 132.14H46.635L46.3378 133.623C46.5966 133.343 46.9672 133.189 47.3484 133.206C47.9673 133.196 48.296 133.518 48.296 134.067Z" fill="#E0E0E0"/>
<path d="M51.6391 133.217L49.7159 136.203C49.3872 136.707 49.1424 136.861 48.7613 136.861C48.527 136.871 48.2997 136.787 48.1318 136.626L48.3242 136.364C48.4465 136.49 48.6144 136.56 48.7892 136.556C49.0165 136.556 49.1914 136.448 49.3977 136.126L49.5865 135.847L48.9256 133.217H49.2753L49.8208 135.469L51.265 133.217H51.6391Z" fill="#E0E0E0"/>
<path d="M59.6049 24.5439H5.96777L14.7097 30.8381V43.2412C14.7097 44.6714 15.8637 45.8288 17.2939 45.8323C17.2939 45.8323 17.2974 45.8323 17.3008 45.8323H59.6119C61.0421 45.8323 62.203 44.6714 62.203 43.2412V27.135C62.203 25.7048 61.0421 24.5439 59.6119 24.5439C59.6119 24.5439 59.6084 24.5439 59.6049 24.5439Z" fill="#1E2027"/>
<path d="M57.3671 33.3103C57.3671 33.3628 49.2791 33.4047 39.3027 33.4047C29.3264 33.4047 21.2349 33.3593 21.2349 33.3103C21.2349 33.2614 29.3229 33.2159 39.3027 33.2159C49.2826 33.2159 57.3671 33.2579 57.3671 33.3103Z" fill="#33353E"/>
<path d="M57.3671 38.073C57.3671 38.1254 49.2791 38.1674 39.3027 38.1674C29.3264 38.1674 21.2349 38.1254 21.2349 38.073C21.2349 38.0205 29.3229 37.9785 39.3027 37.9785C49.2826 37.9785 57.3671 38.0205 57.3671 38.073Z" fill="#33353E"/>
<path d="M245.63 164.261C245.63 164.314 190.787 164.352 123.155 164.352C55.524 164.352 0.666504 164.314 0.666504 164.261C0.666504 164.209 55.4961 164.171 123.155 164.171C190.815 164.171 245.63 164.212 245.63 164.261Z" fill="#263238"/>
<path d="M222.614 146.414C222.614 146.414 213.344 135.749 209.848 125.083C206.351 114.418 208.012 115.642 208.012 115.642C208.012 115.642 212.733 126.007 216.317 131.011C219.901 136.014 226.304 143.354 226.304 143.354L222.614 146.414Z" fill="#455A64"/>
<path d="M224.46 117.282C224.317 117.02 223.992 116.925 223.73 117.065C223.527 117.177 223.418 117.404 223.457 117.632C224.02 121.38 225.244 130.175 225.205 135.878C225.142 143.288 225.205 146.152 225.205 146.152H229.052C229.052 146.152 228.352 130.836 227.496 126.164C226.887 122.898 225.604 119.261 224.46 117.282Z" fill="#455A64"/>
<path d="M226.566 144.907C228.181 141.242 229.251 137.364 229.741 133.388C230.059 130.661 229.489 126.975 228.646 122.055C228.321 120.258 228.16 118.433 228.16 116.604C228.16 116.097 228.577 115.688 229.087 115.691C229.423 115.691 229.731 115.876 229.888 116.17C230.353 117.002 231.703 119.842 232.045 121.618C232.979 126.475 234.035 128.905 233.227 133.507C232.42 138.109 229.43 145.214 229.43 145.214L226.566 144.907Z" fill="#455A64"/>
<path d="M230.038 145.225C230.038 145.225 240.217 123.353 240.924 120.108C241.63 116.862 244.025 109.386 244.308 109.809C244.592 110.233 245.008 114.184 243.179 118.698C241.35 123.213 233.514 145.889 233.514 145.889H230.038" fill="#455A64"/>
<path d="M225.45 144.246C225.349 144.186 225.255 144.123 225.164 144.05C224.985 143.914 224.709 143.721 224.377 143.449C223.426 142.69 222.513 141.885 221.642 141.032C218.775 138.21 216.292 135.025 214.257 131.556C212.229 128.091 210.54 124.433 209.218 120.639C208.708 119.188 208.334 117.999 208.092 117.17C207.966 116.761 207.879 116.436 207.82 116.219C207.781 116.104 207.757 115.988 207.743 115.869C207.792 115.974 207.83 116.083 207.862 116.195L208.173 117.135C208.439 117.953 208.834 119.135 209.362 120.576C210.725 124.342 212.425 127.979 214.446 131.437C216.474 134.895 218.932 138.081 221.758 140.924C222.845 142.008 223.779 142.83 224.436 143.372C224.762 143.655 225.027 143.858 225.199 144.005C225.29 144.078 225.373 144.158 225.45 144.246Z" fill="#263238"/>
<path d="M226.562 133.752C226.513 133.542 226.485 133.329 226.471 133.112C226.422 132.657 226.359 132.063 226.286 131.364C226.125 129.881 225.873 127.842 225.513 125.601C225.153 123.36 224.751 121.342 224.44 119.887C224.289 119.188 224.163 118.607 224.069 118.163C224.013 117.953 223.975 117.74 223.954 117.523C224.038 117.723 224.104 117.929 224.149 118.142C224.265 118.544 224.415 119.128 224.59 119.852C224.94 121.3 225.366 123.318 225.726 125.566C226.087 127.814 226.314 129.86 226.426 131.346C226.489 132.091 226.527 132.692 226.545 133.095C226.573 133.311 226.58 133.532 226.562 133.752Z" fill="#263238"/>
<path d="M228.947 116.006C228.996 116.097 229.034 116.188 229.066 116.286C229.146 116.492 229.248 116.761 229.374 117.097C229.499 117.432 229.66 117.884 229.811 118.401C229.961 118.919 230.16 119.492 230.304 120.149L230.555 121.178C230.643 121.527 230.702 121.915 230.779 122.304C230.947 123.08 231.048 123.923 231.171 124.807C231.636 128.657 231.496 132.56 230.758 136.368C230.573 137.242 230.409 138.074 230.188 138.836C230.083 139.217 229.996 139.592 229.884 139.941C229.772 140.291 229.664 140.641 229.559 140.952C229.363 141.599 229.129 142.162 228.94 142.662C228.751 143.162 228.569 143.588 228.412 143.931L228.062 144.718C228.024 144.812 227.978 144.903 227.922 144.987C227.947 144.889 227.982 144.791 228.024 144.7L228.345 143.896C228.492 143.546 228.667 143.123 228.839 142.62C229.01 142.116 229.241 141.55 229.426 140.903C229.524 140.581 229.629 140.246 229.737 139.896C229.846 139.546 229.926 139.172 230.027 138.791C230.241 138.029 230.377 137.2 230.576 136.343C231.286 132.553 231.426 128.675 230.989 124.842C230.87 123.961 230.776 123.122 230.618 122.349C230.541 121.961 230.485 121.583 230.405 121.226C230.325 120.87 230.244 120.527 230.167 120.198C230.031 119.541 229.846 118.961 229.706 118.45C229.566 117.94 229.429 117.499 229.307 117.142C229.185 116.786 229.108 116.527 229.041 116.317C228.999 116.216 228.968 116.114 228.947 116.006Z" fill="#263238"/>
<path d="M244.19 110.25C244.197 110.282 244.197 110.316 244.19 110.348C244.19 110.425 244.162 110.519 244.144 110.631C244.099 110.879 244.043 111.25 243.945 111.722C243.749 112.663 243.421 114.016 242.896 115.66C242.371 117.303 241.697 119.226 240.871 121.345C240.046 123.464 239.095 125.769 238.193 128.224C237.291 130.678 236.567 133.07 235.902 135.238C235.238 137.406 234.623 139.364 234.018 140.973C233.553 142.249 233.018 143.497 232.413 144.714C232.203 145.148 232.014 145.47 231.895 145.693L231.752 145.942C231.738 145.973 231.717 146.001 231.696 146.026C231.703 145.994 231.717 145.963 231.731 145.931L231.857 145.672C231.965 145.442 232.14 145.113 232.336 144.676C232.745 143.809 233.297 142.536 233.874 140.92C234.451 139.305 235.063 137.357 235.714 135.182C236.364 133.007 237.067 130.608 237.987 128.15C238.906 125.692 239.854 123.384 240.686 121.272C241.518 119.16 242.228 117.244 242.749 115.611C243.27 113.978 243.627 112.635 243.847 111.701C243.959 111.236 244.029 110.869 244.088 110.624C244.116 110.512 244.137 110.421 244.155 110.344C244.162 110.313 244.172 110.278 244.19 110.25Z" fill="#263238"/>
<path d="M212.809 105.418C212.46 105.082 211.904 105.096 211.568 105.445C211.348 105.676 211.271 106.008 211.365 106.313C211.715 107.439 212.142 108.537 212.645 109.6C214.044 112.575 218.156 123.237 220.079 129.101C222.003 134.965 224.713 145.886 224.713 145.886L228.821 145.221C228.821 145.221 225.062 127.265 221.408 120.779C218.439 115.593 215.488 108.082 212.809 105.418Z" fill="#455A64"/>
<path d="M221.202 132.766C221.293 132.923 221.363 133.088 221.415 133.259C221.537 133.581 221.702 134.049 221.887 134.637C222.265 135.808 222.73 137.434 223.195 139.263C223.66 141.092 224.048 142.739 224.317 143.938C224.443 144.505 224.545 144.987 224.629 145.361C224.674 145.533 224.702 145.711 224.712 145.889C224.639 145.728 224.583 145.557 224.545 145.382C224.447 145.008 224.321 144.536 224.17 143.983L222.985 139.312C222.52 137.493 222.079 135.853 221.74 134.675L221.335 133.276C221.275 133.112 221.23 132.941 221.202 132.766Z" fill="#263238"/>
<path d="M226.776 145.557C226.765 145.522 226.758 145.487 226.755 145.449C226.755 145.361 226.727 145.256 226.706 145.123C226.664 144.84 226.625 144.424 226.538 143.879C226.387 142.802 226.118 141.246 225.678 139.35C225.15 137.13 224.51 134.941 223.754 132.787C222.912 130.339 221.856 127.724 220.656 125C218.24 119.562 215.827 114.74 214.24 111.177C213.439 109.397 212.816 107.946 212.407 106.932C212.197 106.428 212.058 106.033 211.946 105.764C211.9 105.638 211.862 105.54 211.83 105.456C211.816 105.421 211.806 105.386 211.799 105.351C211.799 105.351 211.82 105.383 211.851 105.449C211.883 105.515 211.932 105.627 211.988 105.746L212.484 106.9C212.918 107.9 213.561 109.348 214.379 111.096C215.998 114.646 218.436 119.454 220.856 124.898C222.055 127.626 223.107 130.262 223.943 132.706C224.691 134.871 225.321 137.077 225.828 139.312C226.167 140.812 226.433 142.33 226.622 143.858C226.695 144.4 226.72 144.823 226.751 145.11C226.751 145.242 226.769 145.347 226.776 145.435C226.783 145.477 226.783 145.515 226.776 145.557Z" fill="#263238"/>
<path d="M228.821 145.225C228.758 144.994 228.709 144.763 228.681 144.526C228.601 144.043 228.493 143.407 228.363 142.637C228.08 141.046 227.664 138.854 227.027 136.469C226.391 134.084 225.716 131.955 225.185 130.43L224.555 128.633C224.464 128.416 224.391 128.192 224.338 127.961C224.454 128.168 224.552 128.381 224.636 128.601C224.81 129.017 225.059 129.626 225.335 130.385C226.08 132.36 226.716 134.374 227.244 136.42C227.772 138.466 228.199 140.532 228.521 142.62C228.639 143.421 228.727 144.071 228.772 144.522C228.807 144.756 228.821 144.991 228.821 145.225Z" fill="#263238"/>
<path d="M237.252 144.634H221.216V164.171H237.252V144.634Z" fill="#FF0000"/>
<g opacity="0.3">
<path d="M237.252 144.634H221.216V164.171H237.252V144.634Z" fill="black"/>
</g>
<path d="M232.136 144.634H217.911V164.171H232.136V144.634Z" fill="#FF0000"/>
<path d="M23.6753 137.843C20.9408 136.095 17.1573 136.06 14.4997 137.917C11.975 139.683 10.6917 142.893 10.8036 145.959C10.9155 149.026 12.4086 152.795 15.1956 154.414L23.378 154.38C26.0391 152.442 27.6931 149.411 27.8819 146.124C28.0043 142.893 26.4063 139.592 23.6753 137.843Z" fill="#455A64"/>
<path d="M19.6437 154.722C19.6053 154.491 19.5878 154.257 19.5948 154.023C19.5948 153.519 19.5598 152.876 19.5388 152.103C19.4969 150.484 19.4339 148.257 19.3255 145.777C19.2171 143.298 19.0843 141.071 18.9759 139.452C18.9304 138.682 18.8919 138.053 18.8605 137.535C18.8395 137.301 18.8395 137.07 18.8605 136.836C18.9199 137.067 18.9549 137.298 18.9724 137.535C19.0283 137.987 19.0947 138.64 19.1717 139.448C19.3185 141.064 19.4794 143.295 19.5913 145.774C19.7032 148.253 19.7347 150.491 19.7277 152.114C19.7277 152.925 19.7277 153.579 19.6997 154.033C19.6997 154.264 19.6822 154.495 19.6437 154.722Z" fill="#263238"/>
<path d="M11.6288 145.274C11.6288 145.344 11.1777 145.368 10.6357 145.323C10.0937 145.277 9.6601 145.183 9.6636 145.113C9.66709 145.043 10.1147 145.019 10.6567 145.061C11.1987 145.103 11.6358 145.2 11.6288 145.274Z" fill="#263238"/>
<path d="M11.783 142.511C11.7515 142.578 11.3704 142.473 10.9263 142.274C10.4822 142.074 10.1465 141.865 10.1745 141.798C10.2025 141.732 10.5871 141.84 11.0312 142.036C11.4753 142.232 11.811 142.459 11.783 142.511Z" fill="#263238"/>
<path d="M13.2028 140.462C13.1643 140.522 12.7342 140.319 12.2867 139.948C11.8391 139.578 11.5558 139.189 11.6083 139.144C11.6607 139.099 12.0174 139.385 12.451 139.745C12.8846 140.106 13.2413 140.399 13.2028 140.462Z" fill="#263238"/>
<path d="M14.6325 138.529C14.5661 138.557 14.3598 138.235 14.1709 137.808C13.9821 137.382 13.8807 137.011 13.9472 136.98C14.0136 136.948 14.2199 137.273 14.4087 137.703C14.5976 138.133 14.6955 138.501 14.6325 138.529Z" fill="#263238"/>
<path d="M16.8743 137.158C16.8079 137.186 16.5876 136.843 16.4372 136.368C16.2869 135.892 16.2764 135.479 16.3463 135.469C16.4162 135.458 16.5456 135.819 16.696 136.287C16.8464 136.756 16.9408 137.126 16.8743 137.158Z" fill="#263238"/>
<path d="M20.6124 135.609C20.6823 135.633 20.6404 135.927 20.5215 136.266C20.4026 136.605 20.2487 136.857 20.1718 136.833C20.0949 136.808 20.1438 136.518 20.2627 136.179C20.3816 135.84 20.546 135.584 20.6124 135.609Z" fill="#263238"/>
<path d="M23.3889 136.801C23.4378 136.854 23.2595 137.098 22.9903 137.347C22.721 137.595 22.4657 137.752 22.4168 137.696C22.3678 137.64 22.5462 137.399 22.8119 137.151C23.0777 136.903 23.3399 136.749 23.3889 136.801Z" fill="#263238"/>
<path d="M25.8291 138.378C25.8711 138.438 25.6543 138.654 25.3465 138.864C25.0388 139.074 24.7556 139.193 24.7136 139.134C24.6717 139.074 24.892 138.857 25.1997 138.647C25.5074 138.438 25.7906 138.319 25.8291 138.378Z" fill="#263238"/>
<path d="M27.5637 140.728C27.5917 140.794 27.2525 141.004 26.8014 141.197C26.3503 141.389 25.9622 141.49 25.9342 141.424C25.9062 141.357 26.2489 141.148 26.7 140.959C27.1511 140.77 27.5357 140.662 27.5637 140.728Z" fill="#263238"/>
<path d="M28.2494 143.295C28.2494 143.365 27.8997 143.47 27.4696 143.522C27.0395 143.574 26.6723 143.564 26.6618 143.491C26.6514 143.417 27.0115 143.319 27.4381 143.263C27.8647 143.207 28.2389 143.221 28.2494 143.295Z" fill="#263238"/>
<path d="M28.6026 146.452C28.5746 146.519 28.2039 146.421 27.7773 146.235C27.3507 146.05 27.022 145.844 27.05 145.777C27.078 145.711 27.4521 145.809 27.8787 145.994C28.3053 146.18 28.634 146.386 28.6026 146.452Z" fill="#263238"/>
<path d="M28.291 149.162C28.2666 149.229 27.798 149.117 27.3084 148.795C26.8189 148.473 26.5287 148.096 26.5776 148.043C26.6266 147.991 26.9867 148.274 27.4518 148.575C27.9169 148.876 28.3155 149.103 28.291 149.162Z" fill="#263238"/>
<path d="M26.8784 151.627C26.8365 151.683 26.4623 151.467 26.1057 151.078C25.749 150.69 25.5567 150.306 25.6126 150.264C25.6686 150.222 25.9623 150.533 26.312 150.9C26.6616 151.267 26.9274 151.572 26.8784 151.627Z" fill="#263238"/>
<path d="M13.486 151.918C13.5175 151.981 13.1363 152.267 12.6083 152.519C12.0803 152.771 11.6467 152.949 11.6012 152.893C11.5558 152.837 11.9509 152.544 12.4754 152.288C12.9999 152.033 13.451 151.855 13.486 151.918Z" fill="#263238"/>
<path d="M12.2623 149.687C12.2902 149.753 11.9755 149.96 11.5629 150.148C11.1503 150.337 10.7831 150.439 10.7517 150.372C10.7202 150.306 11.0384 150.099 11.451 149.911C11.8636 149.722 12.2308 149.62 12.2623 149.687Z" fill="#263238"/>
<path d="M11.3633 147.704C11.3633 147.774 10.9856 147.89 10.496 147.959C10.0065 148.029 9.60787 148.026 9.59738 147.959C9.58689 147.893 9.97503 147.774 10.4611 147.708C10.9471 147.641 11.3528 147.638 11.3633 147.704Z" fill="#263238"/>
<path d="M14.3113 146.62C14.3323 146.69 13.9616 146.865 13.4546 146.921C12.9476 146.977 12.5419 146.889 12.5489 146.819C12.5559 146.75 12.9476 146.718 13.4231 146.662C13.8987 146.606 14.2903 146.55 14.3113 146.62Z" fill="#263238"/>
<path d="M16.7621 144.183C16.7831 144.249 16.4824 144.403 16.0627 144.442C15.6431 144.48 15.3354 144.393 15.3424 144.323C15.3494 144.253 15.6641 144.221 16.0418 144.183C16.4194 144.144 16.7411 144.113 16.7621 144.183Z" fill="#263238"/>
<path d="M17.231 142.228C17.2065 142.298 16.8813 142.246 16.5037 142.116C16.126 141.987 15.8393 141.826 15.8638 141.767C15.8882 141.707 16.2134 141.749 16.5911 141.882C16.9687 142.015 17.2555 142.162 17.231 142.228Z" fill="#263238"/>
<path d="M18.1293 140.252C18.0803 140.305 17.8565 140.158 17.6957 139.878C17.5348 139.599 17.5208 139.336 17.5908 139.319C17.6607 139.301 17.7796 139.504 17.9404 139.749C18.1013 139.994 18.1817 140.204 18.1293 140.252Z" fill="#263238"/>
<path d="M17.0457 148.341C17.0632 148.411 16.7835 148.54 16.4163 148.631C16.245 148.676 16.0666 148.701 15.8883 148.708L15.8394 148.554C15.9338 148.554 15.9932 148.554 16.0072 148.571C16.0212 148.589 15.9792 148.645 15.9023 148.704L15.8498 148.55C16.0107 148.473 16.182 148.414 16.3569 148.376C16.7205 148.288 17.0283 148.271 17.0457 148.341Z" fill="#263238"/>
<path d="M17.5453 151.806C17.5698 151.872 17.1956 152.075 16.741 152.26C16.2865 152.446 15.8703 152.54 15.8459 152.474C15.8214 152.407 16.1955 152.201 16.6466 152.019C17.0977 151.837 17.5243 151.739 17.5453 151.806Z" fill="#263238"/>
<path d="M14.7831 150.267C14.8076 150.334 14.5663 150.477 14.2481 150.585C13.9299 150.694 13.6536 150.729 13.6292 150.659C13.6047 150.589 13.846 150.449 14.1642 150.341C14.4824 150.232 14.7481 150.197 14.7831 150.267Z" fill="#263238"/>
<path d="M14.9927 143.218C14.9927 143.288 14.5591 143.246 14.0801 143.074C13.601 142.903 13.2478 142.672 13.2793 142.609C13.3108 142.546 13.6989 142.662 14.1675 142.826C14.636 142.99 15.0102 143.158 14.9927 143.218Z" fill="#263238"/>
<path d="M21.6928 142.459C21.7348 142.518 21.5005 142.742 21.1718 142.959C20.8431 143.176 20.5424 143.309 20.5004 143.242C20.4584 143.176 20.6962 142.959 21.0249 142.742C21.3536 142.525 21.6543 142.389 21.6928 142.459Z" fill="#263238"/>
<path d="M22.0601 145.928C22.0601 145.998 21.8259 146.11 21.5077 146.176C21.1895 146.242 20.9202 146.239 20.9027 146.176C20.8852 146.113 21.137 145.994 21.4552 145.928C21.7734 145.861 22.0427 145.858 22.0601 145.928Z" fill="#263238"/>
<path d="M22.4829 149.841C22.4514 149.904 22.0947 149.806 21.6891 149.617C21.2835 149.428 20.9897 149.222 20.9897 149.155C20.9897 149.089 21.3779 149.19 21.7835 149.379C22.1891 149.568 22.5108 149.774 22.4829 149.841Z" fill="#263238"/>
<path d="M21.5842 153.649C21.5282 153.698 21.2975 153.509 21.0702 153.229C20.8429 152.949 20.7205 152.687 20.759 152.642C20.7974 152.596 21.0422 152.785 21.273 153.065C21.5038 153.344 21.6401 153.6 21.5842 153.649Z" fill="#263238"/>
<path d="M21.3918 139.889C21.4373 139.945 21.2834 140.137 21.0212 140.266C20.7589 140.396 20.5176 140.406 20.5001 140.336C20.4827 140.266 20.6715 140.155 20.9058 140.036C21.1401 139.917 21.3569 139.833 21.3918 139.889Z" fill="#263238"/>
<path d="M24.686 143.396C24.7105 143.463 24.4062 143.63 23.9866 143.69C23.567 143.749 23.2348 143.669 23.2383 143.599C23.2418 143.529 23.5635 143.484 23.9377 143.431C24.3118 143.379 24.6615 143.33 24.686 143.396Z" fill="#263238"/>
<path d="M24.0323 140.249C24.0637 140.312 23.763 140.529 23.3329 140.665C22.9028 140.802 22.5356 140.802 22.5251 140.732C22.5147 140.662 22.8468 140.546 23.2525 140.413C23.6581 140.28 23.9973 140.183 24.0323 140.249Z" fill="#263238"/>
<path d="M25.4026 148.274C25.4026 148.344 24.8851 148.39 24.2627 148.274C23.6403 148.159 23.1752 147.924 23.2136 147.872C23.2521 147.82 23.7277 147.91 24.3256 148.015C24.9236 148.12 25.4026 148.201 25.4026 148.274Z" fill="#263238"/>
<path d="M24.1892 152.848C24.1473 152.904 23.7661 152.68 23.3885 152.299C23.0108 151.918 22.7905 151.551 22.836 151.495C22.8814 151.439 23.1857 151.746 23.5668 152.117C23.948 152.488 24.2277 152.792 24.1892 152.848Z" fill="#263238"/>
<path d="M18.8184 136.514C17.9826 137.021 17.2133 137.63 16.528 138.326C14.9369 140.071 13.9369 142.274 13.6746 144.62C13.5557 145.91 13.6152 147.211 13.8459 148.484C14.0348 149.53 14.276 150.565 14.5698 151.586C14.8215 152.456 15.0523 153.156 15.2062 153.642C15.3006 153.89 15.374 154.145 15.4265 154.404C15.2971 154.173 15.1922 153.928 15.1118 153.677C14.9264 153.201 14.6677 152.509 14.3949 151.638C14.0697 150.617 13.8075 149.578 13.6117 148.526C13.3564 147.232 13.2934 145.907 13.4158 144.592C13.6781 142.186 14.7236 139.934 16.3951 138.186C16.9021 137.672 17.4756 137.228 18.1015 136.864C18.2694 136.763 18.4442 136.672 18.626 136.591C18.6855 136.556 18.7519 136.532 18.8184 136.514Z" fill="#263238"/>
<path d="M22.3818 154.593C22.3223 154.561 22.9658 153.572 23.5532 151.795C24.34 149.477 24.5778 147.008 24.2526 144.581C24.0777 143.242 23.7001 141.938 23.1406 140.711C22.672 139.724 22.0286 138.829 21.2453 138.067C20.6893 137.581 20.0634 137.182 19.385 136.892C18.9025 136.693 18.6123 136.644 18.6158 136.623C18.6857 136.612 18.7591 136.612 18.8291 136.623C19.0284 136.658 19.2277 136.71 19.42 136.78C20.1299 137.039 20.7873 137.424 21.3642 137.913C22.1895 138.672 22.8678 139.578 23.3574 140.588C23.9414 141.826 24.3295 143.148 24.5113 144.505C24.847 146.97 24.5743 149.48 23.7246 151.816C23.5777 152.267 23.3749 152.652 23.2455 153.002C23.1161 153.351 22.9378 153.631 22.8119 153.862C22.686 154.117 22.5426 154.362 22.3818 154.593Z" fill="#263238"/>
<path d="M12.2617 153.974H26.6615L26.7489 156.855H12.2617V153.974Z" fill="#FF0000"/>
<path d="M13.4858 155.415L14.3111 164.212H24.8399L25.6861 155.512L13.4858 155.415Z" fill="#FF0000"/>
<path d="M26.7488 156.89C26.7488 156.964 23.5073 157.02 19.507 157.02C15.5067 157.02 12.2651 156.964 12.2651 156.89C12.2651 156.817 15.5067 156.761 19.507 156.761C23.5073 156.761 26.7488 156.817 26.7488 156.89Z" fill="#263238"/>
<path d="M25.2876 159.569C25.2142 159.768 25.1092 159.953 24.9799 160.121C24.6547 160.6 24.2805 161.041 23.8609 161.439L23.7945 161.502L23.7315 161.433C22.8678 160.527 21.9202 159.698 20.9061 158.964H21.067L19.8151 160.062L18.336 161.342L18.2556 161.415L18.1716 161.345L15.7693 159.324L15.9092 159.306C15.4127 159.915 14.9931 160.422 14.6644 160.828C14.521 161.023 14.3566 161.202 14.1748 161.359C14.2902 161.146 14.4231 160.946 14.5769 160.758L15.7519 159.188L15.8148 159.107L15.8952 159.17L18.343 161.149H18.1821L19.6543 159.855L20.9096 158.761L20.9865 158.695L21.0705 158.754C22.088 159.506 23.0252 160.359 23.8679 161.303H23.735C24.298 160.768 24.819 160.188 25.2876 159.569Z" fill="#263238"/>
<path d="M198.312 54.2596H45.88C43.0662 54.2596 40.7852 56.5406 40.7852 59.3544V156.705C40.7852 159.519 43.0662 161.8 45.88 161.8H198.312C201.126 161.8 203.407 159.519 203.407 156.705V59.3544C203.407 56.5406 201.126 54.2596 198.312 54.2596Z" fill="#595F7C"/>
<path d="M35.4632 154.852H211.649V158.037C211.649 161.475 208.862 164.261 205.424 164.261H41.6735C38.2362 164.261 35.4492 161.475 35.4492 158.037V154.852H35.4632Z" fill="#595F7C"/>
<path d="M106.067 153.844L108.252 157.324H139.017L141.045 153.844H106.067Z" fill="#1E2027"/>
<path d="M202.008 153.845C202.008 153.904 165.914 153.949 121.403 153.949C76.8929 153.949 40.7852 153.904 40.7852 153.845C40.7852 153.785 76.872 153.74 121.403 153.74C165.935 153.74 202.008 153.785 202.008 153.845Z" fill="#263238"/>
<path d="M196.969 60.4419H46.5863C45.9548 60.4419 45.4429 60.9539 45.4429 61.5854V149.858C45.4429 150.49 45.9548 151.002 46.5863 151.002H196.969C197.601 151.002 198.112 150.49 198.112 149.858V61.5854C198.112 60.9539 197.601 60.4419 196.969 60.4419Z" fill="#1E2027"/>
<path d="M197.948 151.135H45.2783L45.4427 67.2117H197.948V151.135Z" fill="#070708"/>
<path d="M57.9647 63.9422C57.9717 64.6171 57.4297 65.1661 56.7549 65.1731C56.08 65.1801 55.531 64.638 55.524 63.9632C55.517 63.2883 56.059 62.7393 56.7339 62.7323C56.7339 62.7323 56.7409 62.7323 56.7444 62.7323C57.4157 62.7323 57.9612 63.2708 57.9647 63.9422Z" fill="#263238"/>
<path d="M50.5761 63.9422C50.5831 64.6171 50.0411 65.1661 49.3662 65.1731C48.6913 65.1801 48.1423 64.638 48.1353 63.9632C48.1283 63.2883 48.6703 62.7393 49.3452 62.7323C49.3522 62.7323 49.3592 62.7323 49.3662 62.7323C50.0341 62.7358 50.5726 63.2743 50.5761 63.9422Z" fill="#263238"/>
<path d="M54.1219 63.9422C54.1219 64.6171 53.5764 65.1626 52.9015 65.1626C52.2267 65.1626 51.6812 64.6171 51.6812 63.9422C51.6812 63.2673 52.2267 62.7218 52.9015 62.7218C53.5729 62.7218 54.1184 63.2638 54.1219 63.9352C54.1219 63.9352 54.1219 63.9387 54.1219 63.9422Z" fill="#263238"/>
<path d="M198.112 143.029H45.2783V151.134H198.112V143.029Z" fill="#1E2027"/>
<path d="M66.2173 72.2016H57.2166L52.7197 79.9959L57.2166 87.7868H66.2173L70.7142 79.9959L66.2173 72.2016Z" fill="#1E2027"/>
<path d="M57.9511 81.5206C57.5315 81.0905 57.1643 80.6149 56.8531 80.1009C56.5384 79.5833 56.409 78.9749 56.4789 78.3734C56.5733 78.0378 56.6503 77.6951 56.7062 77.3489C56.7412 76.8663 56.5384 76.3628 56.7062 75.9117C56.972 75.2124 57.9196 75.097 58.4966 74.6109C58.9442 74.2298 59.1645 73.6143 59.6575 73.2961C60.1156 73.0548 60.6436 72.9814 61.1506 73.0933C61.6507 73.2087 62.1647 73.2542 62.6787 73.2262C63.0319 73.1493 63.3816 73.0548 63.7278 72.9429C64.0739 72.8345 64.4481 72.859 64.7768 73.0164C65.109 73.1982 65.2384 73.6108 65.0635 73.95C65.6545 73.6773 66.4028 74.1388 66.5637 74.7648C66.6895 75.4187 66.4343 76.0866 65.9028 76.4887C65.3782 76.8768 64.7663 77.1286 64.1194 77.216C62.3116 77.5657 60.3534 77.3664 58.7973 76.3873" fill="#263238"/>
<path d="M66.2941 83.4438C66.2347 82.3283 65.9235 80.0414 65.6158 77.9748C65.2871 75.7543 63.3079 74.1598 61.07 74.3032H60.8462C58.4544 74.6039 57.3739 76.8034 57.741 79.1987L58.4404 87.7833H64.28C64.28 87.7833 64.1401 86.2762 64.1401 86.2622C64.1401 86.2482 66.42 85.7516 66.2941 83.4438Z" fill="#FFBE9D"/>
<path d="M64.1365 86.2342C63.0735 86.3251 62.0035 86.0978 61.0698 85.5803C61.0698 85.5803 61.8951 87.1923 64.182 86.8322L64.1365 86.2342Z" fill="#EB996E"/>
<path d="M64.871 79.954C64.885 80.1323 64.7556 80.2862 64.5773 80.3037C64.4059 80.3246 64.2521 80.2058 64.2276 80.0344C64.2276 80.0344 64.2276 80.0344 64.2276 80.0309C64.2136 79.8526 64.3465 79.6987 64.5213 79.6812C64.6926 79.6603 64.8465 79.7791 64.871 79.9505C64.871 79.9505 64.871 79.9505 64.871 79.954Z" fill="#263238"/>
<path d="M65.1959 79.1357C65.1575 79.1812 64.8952 79.0133 64.5385 79.0378C64.1819 79.0623 63.9371 79.2581 63.8951 79.2162C63.8532 79.1742 63.8951 79.1182 64.021 79.0273C64.1679 78.9119 64.3462 78.842 64.5315 78.8315C64.7169 78.8175 64.8987 78.8665 65.0561 78.9644C65.1715 79.0413 65.2134 79.1148 65.1959 79.1357Z" fill="#263238"/>
<path d="M61.5213 80.1953C61.5213 80.3701 61.399 80.517 61.2276 80.5449C61.0563 80.5624 60.8989 80.44 60.8779 80.2687C60.8779 80.0939 61.0003 79.947 61.1717 79.919C61.343 79.9015 61.5004 80.0239 61.5213 80.1953Z" fill="#263238"/>
<path d="M61.7135 79.4364C61.675 79.4819 61.4128 79.314 61.0561 79.3385C60.6994 79.363 60.4547 79.5553 60.4127 79.5169C60.3707 79.4784 60.4127 79.419 60.5386 79.328C60.8393 79.0868 61.2589 79.0588 61.5876 79.2616C61.689 79.3385 61.731 79.4155 61.7135 79.4364Z" fill="#263238"/>
<path d="M63.1751 81.9646C63.3569 81.8912 63.5493 81.8457 63.7451 81.8212C63.836 81.8212 63.9199 81.7828 63.9304 81.7198C63.9304 81.6254 63.9059 81.5345 63.8535 81.4576L63.5388 80.7862C63.252 80.2232 63.0108 79.6392 62.8149 79.0378C63.1471 79.5798 63.4374 80.1498 63.6786 80.7407C63.7836 80.975 63.885 81.2023 63.9829 81.4156C64.0423 81.5205 64.0668 81.6429 64.0528 81.7653C64.0283 81.8317 63.9794 81.8842 63.9129 81.9086C63.864 81.9261 63.8115 81.9366 63.7591 81.9401C63.5667 81.9716 63.3709 81.9821 63.1751 81.9646Z" fill="#263238"/>
<path d="M61.7099 78.0377C61.6819 78.1356 61.3252 78.1147 60.9126 78.1951C60.5 78.2755 60.1713 78.4084 60.1083 78.3245C60.0454 78.2405 60.1363 78.1916 60.2657 78.0867C60.437 77.9573 60.6363 77.8734 60.8496 77.8384C61.0594 77.7964 61.2762 77.8069 61.4826 77.8699C61.6399 77.9223 61.7238 77.9923 61.7099 78.0377Z" fill="#263238"/>
<path d="M64.997 78.1181C64.9375 78.2021 64.6893 78.1356 64.3955 78.1496C64.1018 78.1636 63.857 78.2405 63.7941 78.1496C63.7311 78.0587 63.7941 78.0272 63.9025 77.9433C64.0424 77.8384 64.2102 77.7825 64.3815 77.779C64.5529 77.772 64.7242 77.8174 64.8711 77.9083C64.9795 77.9958 65.0215 78.0762 64.997 78.1181Z" fill="#263238"/>
<path d="M58.0386 80.9156C57.9966 80.9156 56.4196 80.5659 56.577 82.129C56.7343 83.6921 58.4407 83.178 58.4372 83.1431C58.4337 83.1081 58.0386 80.9156 58.0386 80.9156Z" fill="#FFBE9D"/>
<path d="M57.7378 82.6116C57.7378 82.6116 57.7134 82.6326 57.6714 82.657C57.6084 82.692 57.535 82.699 57.4651 82.6815C57.2448 82.5696 57.1014 82.3493 57.0909 82.1045C57.0734 81.9717 57.0874 81.8353 57.1294 81.7059C57.1469 81.601 57.2168 81.5136 57.3147 81.4716C57.3777 81.4507 57.4476 81.4716 57.4826 81.5311C57.5105 81.573 57.5035 81.608 57.5105 81.608C57.5175 81.608 57.542 81.58 57.5105 81.5136C57.4965 81.4751 57.4721 81.4437 57.4406 81.4227C57.3951 81.3947 57.3357 81.3842 57.2832 81.3982C57.1539 81.4402 57.056 81.5416 57.021 81.6709C56.9685 81.8143 56.9511 81.9682 56.972 82.1185C56.979 82.4088 57.1644 82.6605 57.4371 82.7584C57.5245 82.7759 57.6154 82.7515 57.6854 82.692C57.7588 82.664 57.7588 82.6116 57.7378 82.6116Z" fill="#EB996E"/>
<path d="M65.5004 75.8173C65.392 76.4432 64.1192 77.0202 63.0526 76.9887C62.0805 76.9608 61.598 76.4782 60.8951 76.1355C60.5967 75.991 60.247 75.9514 59.8461 76.0166C59.3565 76.0971 59.1013 76.674 58.8285 77.0901C59.353 78.2336 59.1397 79.5624 58.9159 80.8002C58.9089 80.9401 58.853 81.0695 58.7586 81.1744C58.5523 81.3038 58.2795 81.2618 58.1187 81.08C57.8599 80.8002 57.6886 80.454 57.6221 80.0799C57.4018 79.2442 57.3494 78.3735 57.4683 77.5167C57.5837 76.66 57.9473 75.8558 58.5173 75.2054C59.2656 74.4151 60.2937 73.9465 61.3812 73.9011C62.4652 73.8626 63.5317 74.1633 64.4339 74.7648C64.864 75.0235 65.2241 75.3837 65.4829 75.8138" fill="#263238"/>
<path d="M63.4092 82.7759L62.6049 82.4018C62.5594 82.3773 62.5105 82.3633 62.458 82.3668C62.4021 82.3808 62.3531 82.4123 62.3217 82.4612C62.1293 82.692 62.0944 83.0137 62.2307 83.2795C62.3811 83.5417 62.6993 83.6606 62.9861 83.5557C63.2623 83.4053 63.4301 83.1151 63.4301 82.8004L63.4092 82.7759Z" fill="#EB996E"/>
<path d="M63.0034 83.6151C63.0034 83.6151 62.8356 83.7445 62.5313 83.6571C62.353 83.5976 62.2061 83.4717 62.1152 83.3074C61.9998 83.1081 61.9788 82.8668 62.0628 82.65C62.1047 82.5381 62.1712 82.4402 62.2586 82.3563C62.3005 82.3178 62.346 82.2828 62.395 82.2549C62.4614 82.2199 62.5383 82.2199 62.6048 82.2549C62.7901 82.3563 62.9125 82.4437 63.0349 82.5206C63.2692 82.678 63.409 82.7864 63.3845 82.8074C63.3601 82.8283 63.2097 82.7619 62.9579 82.6325L62.5278 82.4087H62.4649C62.4299 82.4332 62.3985 82.4577 62.367 82.4891C62.3005 82.5556 62.2516 82.6325 62.2201 82.7199C62.1572 82.8878 62.1677 83.0731 62.2481 83.2305C62.3145 83.3633 62.4264 83.4682 62.5628 83.5277C62.8251 83.6396 63.0034 83.5836 63.0034 83.6151Z" fill="#263238"/>
<path d="M62.7552 79.9924C62.7552 79.9924 62.7552 79.8491 62.6713 79.6008C62.5699 79.2546 62.3566 78.9504 62.0664 78.7371C61.3705 78.2196 60.3914 78.3664 59.8739 79.0588C59.3564 79.7547 59.5032 80.7338 60.1956 81.2513C60.7516 81.6639 61.5104 81.6639 62.0664 81.2513C62.3566 81.038 62.5699 80.7338 62.6713 80.3876C62.7413 80.1393 62.7378 79.9924 62.7552 79.9924C62.7727 79.9924 62.7552 80.0309 62.7552 80.1009C62.7552 80.2023 62.7483 80.3037 62.7238 80.4051C62.6468 80.7792 62.437 81.1184 62.1328 81.3527C61.6712 81.7129 61.0628 81.8108 60.5103 81.6185C59.6116 81.3002 59.1431 80.3142 59.4648 79.4155C59.6396 78.9259 60.0243 78.5413 60.5103 78.3699C61.0628 78.1776 61.6712 78.2755 62.1328 78.6357C62.437 78.87 62.6468 79.2092 62.7238 79.5833C62.7483 79.6847 62.7587 79.7861 62.7552 79.8875C62.7657 79.9575 62.7622 79.9924 62.7552 79.9924Z" fill="#263238"/>
<path d="M66.6824 79.8386C66.6649 79.8386 66.6824 79.6987 66.5985 79.4575C66.5006 79.1218 66.2942 78.8245 66.011 78.6182C65.3361 78.1147 64.3815 78.2581 63.878 78.9329C63.3744 79.6078 63.5178 80.5624 64.1927 81.066C64.7312 81.4681 65.4725 81.4681 66.011 81.066C66.2942 80.8597 66.5006 80.5624 66.5985 80.2267C66.6684 79.9855 66.6649 79.8421 66.6824 79.8421C66.6999 79.8421 66.6824 79.8771 66.6824 79.947C66.6824 80.0484 66.6754 80.1463 66.6544 80.2442C66.5775 80.6114 66.3712 80.9366 66.0774 81.1674C65.6299 81.5171 65.0319 81.615 64.4934 81.4261C63.6192 81.1149 63.1611 80.1498 63.4758 79.2756C63.6472 78.8001 64.0178 78.4259 64.4934 78.2581C65.0319 78.0692 65.6299 78.1671 66.0774 78.5168C66.3712 78.7476 66.5775 79.0763 66.6544 79.4435C66.6754 79.5414 66.6859 79.6393 66.6824 79.7407C66.6929 79.8036 66.6894 79.8386 66.6824 79.8386Z" fill="#263238"/>
<path d="M63.479 79.4784C63.444 79.5099 63.2867 79.4085 63.0768 79.4155C62.867 79.4224 62.7272 79.5239 62.6782 79.4924C62.6293 79.4609 62.7761 79.2406 63.0734 79.2336C63.3706 79.2266 63.5244 79.4504 63.479 79.4784Z" fill="#263238"/>
<path d="M59.5662 79.7617C59.5976 79.8001 59.2899 80.0799 58.8843 80.3841C58.6535 80.5939 58.3877 80.7547 58.094 80.8596C58.0625 80.8212 58.3703 80.5414 58.7759 80.2372C59.0032 80.0274 59.2724 79.8666 59.5662 79.7617Z" fill="#263238"/>
<path d="M92.0274 79.9155C92.0274 79.9645 87.9817 80.0064 82.9917 80.0064C78.0018 80.0064 73.9561 79.9645 73.9561 79.9155C73.9561 79.8665 78.0018 79.8246 82.9917 79.8246C87.9817 79.8246 92.0274 79.8665 92.0274 79.9155Z" fill="#263238"/>
<path d="M83.6665 81.8072C83.6665 81.8562 81.5194 81.8982 78.8689 81.8982C76.2183 81.8982 74.0713 81.8562 74.0713 81.8072C74.0713 81.7583 76.2183 81.7128 78.8689 81.7128C81.5194 81.7128 83.6665 81.7548 83.6665 81.8072Z" fill="#263238"/>
<path d="M143.835 73.0269L146.926 67.6279C142.709 60.8196 144.811 51.8854 151.615 47.6682C158.424 43.4511 167.358 45.5527 171.575 52.3574C175.792 59.1622 173.691 68.0999 166.886 72.3171C161.752 75.4991 155.182 75.1634 150.398 71.4743L143.835 73.0269Z" fill="#33353E"/>
<path d="M143.835 73.0269L150.399 71.5302H150.465L150.423 71.4743L150.36 71.5338C151.28 72.2471 152.28 72.8485 153.339 73.3311C154.602 73.8976 155.941 74.2787 157.312 74.4641C158.071 74.569 158.84 74.6074 159.606 74.5794C160.001 74.5585 160.399 74.548 160.805 74.5165L162.029 74.3312C165.676 73.6143 168.914 71.5372 171.082 68.5195C172.289 66.8516 173.121 64.9423 173.53 62.9247C173.946 60.7916 173.887 58.5887 173.359 56.4801C172.81 54.2806 171.743 52.242 170.253 50.5356L169.655 49.8537C169.46 49.6334 169.229 49.4551 169.019 49.2522C168.809 49.0494 168.599 48.8466 168.362 48.6788L167.662 48.1612C167.435 47.9864 167.194 47.8255 166.942 47.6857L166.208 47.2381L165.438 46.8639C165.187 46.7311 164.928 46.6157 164.662 46.5143C162.599 45.703 160.382 45.3603 158.169 45.5177C156.084 45.6575 154.053 46.2555 152.224 47.2661C148.927 49.1019 146.461 52.1336 145.339 55.7388C144.891 57.2669 144.678 58.8544 144.709 60.4489C144.744 61.8302 144.982 63.2009 145.409 64.5157C145.769 65.6067 146.255 66.6557 146.86 67.6348V67.5894C144.923 71.0617 143.975 72.7576 143.825 73.0234C143.979 72.7611 144.951 71.0757 146.933 67.6313V67.5894C146.346 66.6103 145.874 65.5682 145.528 64.4807C145.101 63.1764 144.867 61.8162 144.828 60.4419C144.804 58.8649 145.021 57.2913 145.468 55.7772C146.591 52.221 149.031 49.2313 152.29 47.4199C154.102 46.4094 156.112 45.8149 158.183 45.6715C160.368 45.5177 162.56 45.8569 164.596 46.6611C164.858 46.7625 165.113 46.8779 165.361 47.0108L166.124 47.3815L166.858 47.836C167.103 47.9759 167.337 48.1333 167.557 48.3046L168.257 48.8186C168.491 48.9865 168.687 49.1963 168.904 49.3851C169.12 49.5739 169.341 49.7628 169.533 49.9796L170.117 50.6195C171.593 52.3119 172.645 54.3261 173.187 56.5046C173.712 58.5886 173.771 60.7602 173.359 62.8687C172.96 64.8654 172.135 66.7536 170.946 68.4041C168.806 71.3939 165.606 73.4535 162.001 74.1703L160.791 74.3591C160.389 74.3906 159.994 74.4046 159.602 74.4256C158.843 74.4571 158.081 74.4221 157.329 74.3207C155.966 74.1458 154.637 73.7752 153.378 73.2227C152.322 72.7506 151.325 72.1562 150.409 71.4533L150.14 71.247L150.346 71.5163L150.371 71.4463L143.835 73.0269Z" fill="#263238"/>
<path d="M163.151 59.4279C163.162 60.2007 163.795 60.8196 164.568 60.8092C165.34 60.7987 165.959 60.1658 165.949 59.393C165.938 58.6342 165.326 58.0222 164.568 58.0117C163.795 58.0012 163.162 58.6202 163.151 59.393C163.151 59.4035 163.151 59.4174 163.151 59.4279Z" fill="#595F7C"/>
<path d="M157.49 59.4279C157.501 60.2007 158.134 60.8196 158.906 60.8091C159.679 60.7987 160.298 60.1657 160.288 59.393C160.277 58.6272 159.655 58.0117 158.889 58.0117C158.116 58.0117 157.49 58.6376 157.49 59.4104C157.49 59.4174 157.49 59.4209 157.49 59.4279Z" fill="#595F7C"/>
<path d="M151.843 58.7215C151.465 59.3929 151.703 60.2461 152.375 60.6273C153.046 61.0049 153.899 60.7672 154.28 60.0958C154.654 59.4314 154.427 58.5922 153.773 58.204C153.109 57.8124 152.252 58.0327 151.857 58.6971C151.854 58.7041 151.847 58.7145 151.843 58.7215Z" fill="#595F7C"/>
<path d="M123.998 124.01L128.089 115.527L116.427 92.0494H108.123L124.001 124.01H123.998Z" fill="white"/>
<path d="M127.876 99.494L127.782 99.6864H133.079C134.922 99.6864 136.608 98.6408 137.426 96.9903L139.881 92.0494C134.793 92.0494 130.146 94.9342 127.876 99.494Z" fill="url(#paint0_linear_499_3168)"/>
<defs>
<linearGradient id="paint0_linear_499_3168" x1="127.782" y1="95.8679" x2="139.881" y2="95.8679" gradientUnits="userSpaceOnUse">
<stop stop-color="#7C1334"/>
<stop offset="1" stop-color="#C30F28"/>
</linearGradient>
</defs>
</svg>
