<svg width="209" height="188" viewBox="0 0 209 188" fill="none" xmlns="http://www.w3.org/2000/svg">
<g clip-path="url(#clip0_499_3333)">
<path d="M208.667 111.156C208.667 166.229 158.306 188 103.237 188C48.1674 188 0.666992 166.229 0.666992 111.156C0.666992 56.0819 48.1674 0 103.237 0C158.306 0 208.667 56.0819 208.667 111.156Z" fill="#19171C"/>
<path d="M189.786 36.2786H126.739V87.6443H189.786V36.2786Z" fill="#3B3D46"/>
<path d="M185.304 39.5437H122.257V90.9093H185.304V39.5437Z" fill="#33353E"/>
<path d="M180.812 43.1192H116.08V95.8593H180.812V43.1192Z" fill="#070708"/>
<path d="M180.808 95.8593V92.0709C180.808 89.6047 180.808 85.9908 180.787 81.3862C180.787 72.1805 180.756 59.0086 180.735 43.1402L180.832 43.2378H116.111L116.23 43.1192V95.8593L116.122 95.7511L162.914 95.8035L176.151 95.8314H180.867H176.193L162.98 95.8593L116.139 95.9116H116.035V42.9518H180.982V43.0495C180.961 58.9597 180.94 72.1526 180.934 81.3757C180.934 85.9699 180.913 89.5768 180.906 92.0396V94.8337C180.906 95.4686 180.815 95.8558 180.815 95.8558L180.808 95.8593Z" fill="#3B3D46"/>
<path d="M180.808 47.5075C180.808 47.5738 166.371 47.6262 148.561 47.6262C130.751 47.6262 116.31 47.5773 116.31 47.5075C116.31 47.4378 130.744 47.3889 148.561 47.3889C166.378 47.3889 180.808 47.4413 180.808 47.5075Z" fill="#33353E"/>
<path d="M118.243 45.2018C118.243 45.432 118.058 45.6169 117.828 45.6169C117.597 45.6169 117.413 45.432 117.413 45.2018C117.413 44.9715 117.597 44.7867 117.828 44.7867C118.054 44.7867 118.239 44.9715 118.243 45.2018Z" fill="#FF1D09"/>
<path d="M119.421 45.6169C119.651 45.6169 119.837 45.431 119.837 45.2018C119.837 44.9725 119.651 44.7867 119.421 44.7867C119.192 44.7867 119.006 44.9725 119.006 45.2018C119.006 45.431 119.192 45.6169 119.421 45.6169Z" fill="#FFE532"/>
<path d="M121.434 45.2018C121.434 45.432 121.253 45.6238 121.019 45.6238C120.789 45.6238 120.597 45.4425 120.597 45.2087C120.597 44.975 120.779 44.7867 121.012 44.7867C121.012 44.7867 121.019 44.7867 121.023 44.7867C121.249 44.7867 121.434 44.9715 121.438 45.2018H121.434Z" fill="#1CCC00"/>
<path d="M120.426 96.2918C120.363 96.2918 120.308 85.3455 120.308 71.8456C120.308 58.3458 120.36 47.3959 120.426 47.3959C120.492 47.3959 120.545 58.3388 120.545 71.8456C120.545 85.3524 120.472 96.2918 120.426 96.2918Z" fill="#33353E"/>
<path d="M56.7447 0H30.0854V19.0079H56.7447V0Z" fill="#00ACD7"/>
<path d="M56.9538 2.82206C56.9538 2.88485 50.9334 2.94067 43.5143 2.94067C36.0952 2.94067 30.0713 2.88834 30.0713 2.82206C30.0713 2.75579 36.0917 2.70346 43.5143 2.70346C50.9369 2.70346 56.9538 2.7523 56.9538 2.82206Z" fill="white"/>
<path d="M32.2617 1.44766C32.2896 1.6465 32.1501 1.83138 31.9513 1.85929C31.7525 1.88719 31.5676 1.74766 31.5397 1.54882C31.5118 1.34999 31.6513 1.16511 31.8501 1.1372C31.8676 1.1372 31.885 1.1372 31.9024 1.1372C32.0873 1.12325 32.2478 1.26627 32.2617 1.45115V1.44766Z" fill="white"/>
<path d="M33.5906 1.44767C33.5802 1.63255 33.4232 1.77208 33.2418 1.76162C33.2418 1.76162 33.2383 1.76162 33.2348 1.76162C33.0604 1.74069 32.9349 1.58371 32.9523 1.40929C32.9732 1.23488 33.1302 1.1093 33.3046 1.12674C33.4685 1.14418 33.5906 1.28371 33.5871 1.44767H33.5906Z" fill="white"/>
<path d="M34.5185 1.74417C34.7169 1.74417 34.8777 1.60361 34.8777 1.43022C34.8777 1.25683 34.7169 1.11627 34.5185 1.11627C34.32 1.11627 34.1592 1.25683 34.1592 1.43022C34.1592 1.60361 34.32 1.74417 34.5185 1.74417Z" fill="white"/>
<path d="M199.141 72.6758H175.042V89.8559H199.141V72.6758Z" fill="#3B3D46"/>
<path d="M199.33 75.2432C199.33 75.2851 193.892 75.32 187.181 75.32C180.47 75.32 175.032 75.2851 175.032 75.2432C175.032 75.2014 180.47 75.1665 187.181 75.1665C193.892 75.1665 199.33 75.1874 199.33 75.2432Z" fill="#33353E"/>
<path d="M177.01 74.0119C176.978 74.2177 176.811 74.3537 176.633 74.3189C176.493 74.291 176.385 74.1689 176.364 74.0119C176.396 73.8061 176.563 73.67 176.741 73.7049C176.88 73.7328 176.989 73.8549 177.01 74.0119Z" fill="#FF1D09"/>
<path d="M178.192 74.0119C178.16 74.2177 177.993 74.3537 177.815 74.3189C177.675 74.291 177.567 74.1689 177.546 74.0119C177.578 73.8061 177.745 73.67 177.923 73.7049C178.063 73.7328 178.171 73.8549 178.192 74.0119Z" fill="#FFE532"/>
<path d="M179.364 73.9735C179.388 74.1549 179.263 74.3189 179.085 74.3433C178.903 74.3677 178.739 74.2421 178.715 74.0642C178.691 73.8828 178.816 73.7189 178.994 73.6945C179.008 73.6945 179.025 73.6945 179.039 73.6945C179.207 73.684 179.35 73.8096 179.364 73.977V73.9735Z" fill="#1CCC00"/>
<path d="M35.0626 72.4352H17.2944V85.1013H35.0626V72.4352Z" fill="#FF0000"/>
<path d="M35.1954 74.3119C35.1954 74.3433 31.1876 74.3712 26.2415 74.3712C21.2954 74.3712 17.2842 74.3433 17.2842 74.3119C17.2842 74.2805 21.292 74.2596 26.2415 74.2596C31.1911 74.2596 35.1954 74.2805 35.1954 74.3119Z" fill="white"/>
<path d="M18.742 73.3875C18.7315 73.5096 18.6268 73.6038 18.5048 73.5933C18.3827 73.6038 18.278 73.5131 18.2676 73.391C18.2676 73.391 18.2676 73.3875 18.2676 73.384C18.2746 73.2584 18.3827 73.1642 18.5048 73.1712C18.6303 73.1642 18.735 73.2584 18.742 73.3805V73.3875Z" fill="white"/>
<path d="M19.6142 73.3875C19.5967 73.52 19.4746 73.6142 19.3421 73.5968C19.234 73.5828 19.1503 73.4956 19.1328 73.3875C19.1503 73.2549 19.2723 73.1607 19.4049 73.1782C19.513 73.1921 19.5967 73.2793 19.6142 73.3875Z" fill="white"/>
<path d="M20.4898 73.3875C20.5072 73.52 20.413 73.6421 20.2805 73.6596C20.1479 73.677 20.0259 73.5828 20.0084 73.4502C19.991 73.3177 20.0852 73.1956 20.2177 73.1782C20.2282 73.1782 20.2386 73.1782 20.2456 73.1782C20.3712 73.1712 20.4793 73.2654 20.4898 73.3909V73.3875Z" fill="white"/>
<path d="M146.158 32.281V30.9136C146.158 30.0136 146.158 28.7229 146.13 27.0625C146.13 23.7381 146.102 18.9626 146.084 13.1126L146.175 13.2068H116.534L116.652 13.0882V32.2391L116.544 32.131L137.87 32.1833L143.985 32.2112H146.039H144.019L137.926 32.2391L116.527 32.2915H116.418V13.0115H116.541L146.182 13.0394H146.276V13.1475C146.276 18.9974 146.241 23.7974 146.227 27.1357C146.227 28.7857 146.227 30.0799 146.206 30.9694V31.9636C146.206 32.1973 146.158 32.2775 146.158 32.2775V32.281Z" fill="#FF0000"/>
<path d="M146.157 15.9731C146.157 16.0358 139.516 16.0917 131.309 16.0917C123.101 16.0917 116.46 16.0393 116.46 15.9731C116.46 15.9068 123.122 15.8475 131.326 15.8475C139.53 15.8475 146.154 15.9068 146.154 15.9731H146.157Z" fill="#FF0000"/>
<path d="M118.703 14.5742C118.731 14.7731 118.592 14.958 118.393 14.9859C118.194 15.0138 118.009 14.8742 117.981 14.6754C117.953 14.4766 118.093 14.2917 118.292 14.2638C118.309 14.2638 118.326 14.2638 118.344 14.2638C118.529 14.2498 118.689 14.3929 118.703 14.5777V14.5742Z" fill="#FF0000"/>
<path d="M120.021 14.5742C120.049 14.7731 119.91 14.958 119.711 14.9859C119.512 15.0138 119.327 14.8742 119.299 14.6754C119.272 14.4766 119.411 14.2917 119.61 14.2638C119.627 14.2638 119.645 14.2638 119.662 14.2638C119.847 14.2498 120.008 14.3929 120.021 14.5777V14.5742Z" fill="#FF0000"/>
<path d="M121.326 14.5742C121.354 14.7731 121.215 14.958 121.016 14.9859C120.817 15.0138 120.632 14.8742 120.604 14.6754C120.576 14.4766 120.716 14.2917 120.915 14.2638C120.932 14.2638 120.949 14.2638 120.967 14.2638C121.152 14.2498 121.312 14.3929 121.326 14.5777V14.5742Z" fill="#FF0000"/>
<path d="M60.5328 97.7395L72.2841 137.395C72.8073 139.156 74.4223 140.367 76.2605 140.37L123.953 140.499C126.391 140.506 128.372 138.532 128.376 136.097C128.376 136.017 128.376 135.937 128.369 135.856C128.243 133.516 126.307 131.681 123.963 131.681H105.728L91.1231 90.9896H65.5591C62.6605 90.9896 60.3096 93.3337 60.3096 96.2325C60.3096 96.7418 60.3828 97.2511 60.5293 97.7395H60.5328Z" fill="#455A64"/>
<path d="M100.879 134.939C100.879 135.033 96.017 135.106 90.0175 135.106C84.018 135.106 79.1592 135.033 79.1592 134.939C79.1592 134.845 84.018 134.772 90.0175 134.772C96.017 134.772 100.879 134.845 100.879 134.939Z" fill="#263238"/>
<path d="M64.042 92.2419C64.1292 92.214 67.3766 101.713 71.2936 113.461C75.2107 125.21 78.3116 134.758 78.2279 134.786C78.1442 134.813 74.8933 125.336 70.9762 113.566C67.0591 101.796 63.9513 92.2733 64.042 92.2419Z" fill="#263238"/>
<path d="M98.8978 175.623L95.9888 175.554V140.37H98.8978V175.623Z" fill="#455A64"/>
<path d="M83.9204 175.459H110.974L98.7168 171.2H95.8112L83.9204 175.459Z" fill="#455A64"/>
<path d="M77.0767 81.8815L81.5518 104.249L80.7496 121.01L110.841 116.008L109.662 101.339L109.627 89.1896L117.004 103.488L122.746 92.3884L112.233 73.3316C110.318 71.3293 107.963 69.8049 105.354 68.877C103.97 68.3782 102.512 68.0991 101.04 68.0503C97.6492 69.1247 94.0112 69.1247 90.6243 68.0503C90.2022 68.1026 89.6162 68.1619 88.8733 68.2491H88.7372C82.3506 69.0584 77.4603 74.3258 77.1255 80.7583L77.0767 81.8815Z" fill="#FF0000"/>
<path d="M88.8805 68.2526C88.8805 68.2526 76.5153 68.3468 74.9875 81.4036L74.7817 90.9861L85.4273 90.8954L88.884 68.2491L88.8805 68.2526Z" fill="#FF0000"/>
<path d="M118.421 85.0525C118.421 85.1466 108.692 85.2234 96.6936 85.2234C84.6946 85.2234 74.9839 85.1431 74.9839 85.0525C74.9839 84.9618 84.7051 84.885 96.711 84.885C108.717 84.885 118.421 84.9618 118.421 85.0525Z" fill="#FAFAFA"/>
<path d="M118.421 87.1245C118.421 87.2152 108.692 87.2919 96.6934 87.2919C84.6945 87.2919 74.9663 87.2152 74.9663 87.1245C74.9663 87.0338 84.6875 86.9536 96.6934 86.9536C108.699 86.9536 118.421 87.0303 118.421 87.1245Z" fill="#FAFAFA"/>
<path d="M117.727 83.3397C117.727 83.4339 108.155 83.5106 96.3517 83.5106C84.5482 83.5106 74.9839 83.4304 74.9839 83.3397C74.9839 83.249 84.5551 83.1722 96.3657 83.1722C108.176 83.1722 117.727 83.2455 117.727 83.3397Z" fill="#FAFAFA"/>
<path d="M109.477 103.485C109.383 103.485 109.425 98.1895 109.568 91.6628C109.711 85.1396 109.906 79.8478 109.997 79.8478C110.088 79.8478 110.049 85.1431 109.906 91.6698C109.763 98.193 109.568 103.485 109.477 103.485Z" fill="#263238"/>
<path d="M105.25 94.9C105.25 94.9 111.099 95.3186 112.153 96.8674C113.206 98.4162 114.811 102.822 114.204 102.853C113.827 102.867 113.454 102.752 113.15 102.525L111.549 99.6825C111.549 99.6825 111.807 102.428 110.848 102.48C109.889 102.532 105.131 103.488 105.131 103.488L105.253 94.9035L105.25 94.9Z" fill="#FFBE9D"/>
<path d="M74.7851 88.4361L74.7642 103.513C74.9351 106.673 77.6348 109.094 80.7915 108.923C81.0985 108.906 81.4019 108.864 81.7019 108.801L105.281 103.942L105.232 94.2721L84.883 98.1895L84.6144 87.9512L74.7886 88.4326L74.7851 88.4361Z" fill="#FF0000"/>
<path d="M88.2384 107.59C88.3396 107.552 88.4442 107.524 88.5488 107.503L89.4488 107.297L92.9124 106.565L105.201 104.039L105.079 104.182V94.2511L105.278 94.4186L101.13 95.2139L84.9317 98.2976L84.7573 98.3325V98.1895C84.9108 93.6895 85.0399 89.964 85.1305 87.3198C85.1829 86.0326 85.2247 85.0106 85.2561 84.2815C85.2561 83.9536 85.2875 83.6885 85.3015 83.4862C85.3015 83.3955 85.3119 83.3013 85.3329 83.2106C85.3398 83.3013 85.3398 83.392 85.3329 83.4862V84.2885C85.3329 85.0175 85.305 86.0396 85.2875 87.3268C85.2247 89.9779 85.1375 93.7104 85.0364 98.1964L84.8655 98.0569L101.064 94.9069L105.211 94.1151L105.41 94.0732V104.332L105.288 104.353L92.9822 106.739L89.5011 107.392L88.5802 107.552C88.4686 107.577 88.357 107.587 88.2419 107.587L88.2384 107.59Z" fill="#263238"/>
<path d="M101.761 68.2526C101.761 68.2526 101.807 68.3259 101.856 68.4724C101.932 68.6887 101.995 68.9119 102.041 69.1387C102.204 69.9828 102.166 70.8514 101.929 71.6747C101.563 72.8991 100.855 73.9909 99.8849 74.8246C98.7059 75.8816 97.1747 76.4607 95.5911 76.4502C94.0005 76.4746 92.4693 75.8537 91.3496 74.727C90.4671 73.7886 89.916 72.5921 89.7695 71.3119C89.6649 70.4573 89.766 69.5922 90.066 68.7864C90.1462 68.5701 90.2474 68.3608 90.366 68.1654C90.4462 68.0294 90.4915 67.9631 90.5055 67.9666C90.5194 67.9701 90.3625 68.2666 90.1846 68.8317C89.9474 69.6236 89.8811 70.4607 89.9997 71.2805C90.1706 72.4944 90.7183 73.6247 91.5659 74.5107C92.6367 75.5642 94.0877 76.1397 95.5876 76.1118C97.0875 76.1223 98.542 75.5851 99.6721 74.5944C100.614 73.8026 101.315 72.7665 101.695 71.5979C101.943 70.8061 102.013 69.9724 101.901 69.1491C101.824 68.5736 101.716 68.2596 101.751 68.2491L101.761 68.2526Z" fill="#263238"/>
<path d="M102.903 104.741C102.85 104.245 102.85 103.746 102.903 103.251C102.937 102.351 102.983 101.074 102.993 99.679C103.004 98.2837 102.993 97.0209 102.944 96.1035C102.892 95.6081 102.892 95.1093 102.944 94.614C103.08 95.0953 103.157 95.5907 103.168 96.0895C103.255 96.9895 103.321 98.2767 103.311 99.6895C103.3 101.102 103.22 102.362 103.126 103.289C103.108 103.781 103.035 104.27 102.903 104.744V104.741Z" fill="#FAFAFA"/>
<path d="M101.682 104.988C101.619 104.496 101.605 104.001 101.64 103.509C101.64 102.47 101.661 101.259 101.675 99.9581V96.3895C101.64 95.8977 101.657 95.4023 101.727 94.9139C101.849 95.3918 101.912 95.8872 101.912 96.3825C101.971 97.2825 102.02 98.5558 102.01 99.9476C101.999 101.339 101.947 102.599 101.873 103.513C101.87 104.012 101.8 104.51 101.675 104.992L101.682 104.988Z" fill="#FAFAFA"/>
<path d="M125.299 164.897L129.753 177.172L136.081 185.862C136.513 186.469 136.37 187.313 135.763 187.745C135.746 187.759 135.725 187.773 135.707 187.784C135.341 188.01 134.888 188.049 134.487 187.888C131.937 186.831 122.578 182.89 122.299 181.976C121.978 180.915 115.937 167.712 115.937 167.712L125.299 164.9V164.897Z" fill="#FF0000"/>
<g opacity="0.6">
<path d="M135.722 187.78L121.996 181.149L122.198 181.665C122.369 182.108 122.687 182.475 123.098 182.708C124.221 183.315 127.371 184.923 134.448 187.895C134.86 188.066 135.331 188.021 135.704 187.777H135.722V187.78Z" fill="white"/>
</g>
<g opacity="0.6">
<path d="M122.948 176.251C123.346 176.356 123.6 176.743 123.538 177.151C123.447 177.559 123.049 177.821 122.638 177.744C122.212 177.633 121.944 177.214 122.017 176.782C122.156 176.373 122.596 176.147 123.011 176.269" fill="white"/>
</g>
<path d="M130.856 183.545C131.002 183.054 131.239 182.597 131.557 182.195C132.129 181.557 132.865 181.463 132.851 181.383C132.837 181.302 132.659 181.316 132.356 181.383C131.56 181.599 130.96 182.255 130.814 183.064C130.772 183.361 130.824 183.545 130.856 183.545Z" fill="#263238"/>
<path d="M132.359 184.84C132.435 184.871 132.673 184.323 133.231 183.894C133.593 183.667 133.97 183.462 134.361 183.284C134.361 183.207 133.688 183.176 133.056 183.671C132.425 184.166 132.282 184.833 132.359 184.84Z" fill="#263238"/>
<path d="M128.431 182.084C128.511 182.119 128.881 181.278 129.683 180.542C130.486 179.806 131.354 179.499 131.326 179.419C131.298 179.338 130.35 179.527 129.492 180.319C128.634 181.111 128.361 182.077 128.435 182.087L128.431 182.084Z" fill="#263238"/>
<path d="M126.764 178.466C126.824 178.529 127.385 177.985 128.25 177.612C129.115 177.239 129.89 177.162 129.883 177.095C129.876 177.029 129.056 176.942 128.132 177.354C127.207 177.765 126.722 178.428 126.764 178.47V178.466Z" fill="#263238"/>
<path d="M125.376 174.898C125.439 174.95 125.955 174.287 126.897 173.966C127.838 173.646 128.651 173.827 128.669 173.747C128.686 173.666 128.484 173.611 128.142 173.558C127.228 173.44 126.311 173.761 125.669 174.423C125.425 174.685 125.338 174.877 125.376 174.901V174.898Z" fill="#263238"/>
<path d="M126.604 173.297C126.579 173.136 126.524 172.983 126.436 172.847C126.231 172.442 125.948 172.079 125.603 171.786C125.369 171.542 125.062 171.385 124.731 171.336C124.504 171.326 124.295 171.458 124.207 171.668C124.131 171.866 124.131 172.09 124.207 172.289C124.588 173.126 125.519 173.565 126.408 173.332C127.266 173.098 127.894 172.365 128.002 171.483C128.027 171.263 127.957 171.043 127.811 170.879C127.64 170.729 127.392 170.705 127.193 170.817C126.921 170.998 126.698 171.249 126.555 171.546C126.332 171.94 126.182 172.369 126.105 172.815C126.067 172.979 126.067 173.147 126.105 173.311C126.241 172.728 126.461 172.17 126.761 171.654C126.897 171.403 127.096 171.19 127.333 171.033C127.441 170.967 127.577 170.98 127.671 171.064C127.762 171.176 127.8 171.322 127.779 171.465C127.664 172.222 127.117 172.843 126.381 173.053C125.638 173.241 124.863 172.892 124.518 172.205C124.452 172.065 124.438 171.905 124.483 171.755C124.528 171.636 124.647 171.563 124.773 171.57C125.052 171.612 125.31 171.737 125.515 171.929C125.958 172.316 126.328 172.777 126.607 173.293L126.604 173.297Z" fill="#263238"/>
<path d="M144.11 161.684L143.727 171.661C143.727 171.661 153.734 175.404 153.842 177.252L134.494 177.2L134.441 161.635L144.11 161.684Z" fill="#FF0000"/>
<g opacity="0.6">
<path d="M137.738 170.803C137.354 170.921 137.117 171.305 137.19 171.703C137.291 172.1 137.689 172.344 138.09 172.257C138.498 172.132 138.746 171.72 138.665 171.298C138.515 170.904 138.079 170.694 137.675 170.827" fill="white"/>
</g>
<g opacity="0.6">
<path d="M134.476 177.197V175.644L153.085 176.265C153.085 176.265 153.943 176.642 153.845 177.249L134.476 177.197Z" fill="white"/>
</g>
<path d="M144.037 171.56C144.037 171.654 143.566 171.699 143.095 172.009C142.624 172.32 142.38 172.711 142.293 172.672C142.206 172.634 142.345 172.086 142.917 171.73C143.489 171.375 144.054 171.472 144.033 171.56H144.037Z" fill="#263238"/>
<path d="M146.07 172.407C146.091 172.501 145.683 172.658 145.359 173.059C145.035 173.461 144.944 173.883 144.85 173.879C144.755 173.876 144.696 173.339 145.108 172.85C145.519 172.362 146.07 172.32 146.07 172.411V172.407Z" fill="#263238"/>
<path d="M147.214 174.839C147.127 174.839 146.998 174.389 147.246 173.872C147.493 173.356 147.929 173.147 147.971 173.23C148.013 173.314 147.738 173.586 147.521 174.012C147.305 174.437 147.309 174.832 147.214 174.839Z" fill="#263238"/>
<path d="M143.876 169.282C143.835 169.369 143.406 169.236 142.868 169.282C142.331 169.327 141.916 169.484 141.864 169.404C141.812 169.323 142.22 168.985 142.848 168.954C143.475 168.922 143.918 169.205 143.873 169.282H143.876Z" fill="#263238"/>
<g opacity="0.3">
<path d="M144.034 163.658L143.967 165.437L134.448 165.322L134.441 163.721L144.034 163.658Z" fill="black"/>
</g>
<path d="M143.915 167.269C143.597 167.353 143.263 167.353 142.942 167.269C142.593 167.203 142.255 167.098 141.93 166.955C141.738 166.868 141.55 166.77 141.372 166.658C141.264 166.596 141.166 166.519 141.079 166.428C140.954 166.289 140.936 166.083 141.037 165.926C141.135 165.793 141.288 165.713 141.452 165.71C141.574 165.71 141.7 165.727 141.815 165.762C142.021 165.814 142.223 165.884 142.419 165.968C142.746 166.114 143.05 166.313 143.318 166.557C143.768 166.976 143.922 167.328 143.89 167.349C143.859 167.37 143.629 167.084 143.172 166.739C142.907 166.536 142.617 166.372 142.307 166.247C142.129 166.173 141.944 166.118 141.752 166.076C141.546 166.017 141.369 166.017 141.302 166.107C141.236 166.198 141.281 166.156 141.302 166.215C141.365 166.282 141.438 166.341 141.519 166.386C141.683 166.494 141.853 166.592 142.031 166.679C142.331 166.829 142.645 166.948 142.966 167.039C143.287 167.091 143.601 167.168 143.911 167.269H143.915Z" fill="#263238"/>
<path d="M143.789 167.401C143.611 167.122 143.524 166.794 143.538 166.46C143.524 166.1 143.569 165.741 143.674 165.399C143.74 165.197 143.821 165.001 143.922 164.813C144.033 164.555 144.267 164.374 144.543 164.332C144.721 164.332 144.878 164.44 144.947 164.6C144.996 164.715 145.031 164.837 145.045 164.96C145.08 165.176 145.08 165.396 145.045 165.612C144.989 165.975 144.846 166.317 144.626 166.61C144.25 167.108 143.852 167.22 143.845 167.189C143.838 167.157 144.145 166.958 144.435 166.477C144.602 166.205 144.71 165.898 144.745 165.577C144.773 165.392 144.773 165.2 144.745 165.015C144.717 164.813 144.64 164.646 144.564 164.663C144.487 164.681 144.302 164.817 144.222 164.984C144.128 165.151 144.044 165.326 143.978 165.507C143.869 165.818 143.807 166.146 143.789 166.474C143.744 167.028 143.842 167.377 143.789 167.394V167.401Z" fill="#263238"/>
<path d="M134.459 113.866C123.018 115.049 107.852 116.608 107.852 116.608L109.92 135.232C109.92 135.232 132.202 129.344 132.042 129.832C131.881 130.32 133.078 169.456 133.078 169.456H146.493L146.744 125.123C146.835 118.969 141.923 113.904 135.767 113.81C135.331 113.803 134.891 113.824 134.455 113.87L134.459 113.866Z" fill="#263238"/>
<path d="M80.4775 121.38V127.153C80.4775 131.084 84.9527 135.253 88.8838 135.253H91.9254C94.3182 135.253 98.0713 133.509 100.025 132.103L101.186 131.252L115.159 174.542C115.159 174.542 131.145 171.675 131.145 171.172C131.145 170.67 120.322 135.717 115.32 119.496C113.276 112.872 106.181 109.021 99.627 111.267C99.4072 111.344 99.177 111.428 98.9573 111.518C91.7754 114.389 80.4775 121.38 80.4775 121.38Z" fill="#263238"/>
<path d="M131.124 171.169C131.096 171.12 131.075 171.068 131.058 171.015C131.009 170.893 130.95 170.74 130.877 170.565C130.723 170.157 130.503 169.554 130.242 168.765C129.708 167.203 128.972 164.921 128.083 162.103C126.283 156.466 123.908 148.648 121.305 140.011C120.011 135.686 118.78 131.569 117.657 127.816C117.099 125.943 116.572 124.164 116.077 122.493C115.826 121.659 115.585 120.857 115.358 120.086C115.156 119.343 114.912 118.61 114.629 117.895C114.124 116.678 113.356 115.586 112.379 114.696C111.64 114.023 110.848 113.406 110.015 112.854C109.331 112.404 108.787 112.059 108.414 111.832L107.995 111.567C107.943 111.543 107.897 111.508 107.855 111.47C107.911 111.487 107.96 111.511 108.009 111.543L108.459 111.777C108.843 111.982 109.401 112.303 110.098 112.75C110.953 113.28 111.766 113.883 112.519 114.55C113.534 115.443 114.336 116.549 114.866 117.79C115.159 118.512 115.411 119.249 115.623 119.999C115.861 120.769 116.105 121.572 116.363 122.405L117.974 127.715C119.104 131.461 120.346 135.581 121.651 139.899C124.253 148.526 126.6 156.336 128.327 162.022L130.388 168.713L130.964 170.513C131.023 170.705 131.069 170.858 131.107 170.984C131.145 171.11 131.138 171.169 131.128 171.169H131.124Z" fill="#455A64"/>
<path d="M134.501 124.233C134.581 124.286 133.821 125.43 133.186 126.982C132.551 128.534 132.265 129.874 132.164 129.857C132.063 129.839 132.209 128.444 132.875 126.85C133.542 125.255 134.431 124.178 134.501 124.23V124.233Z" fill="#455A64"/>
<path d="M137.071 126.033C137.106 126.124 135.955 126.633 134.755 127.582C133.555 128.531 132.781 129.525 132.701 129.466C132.621 129.407 133.294 128.297 134.549 127.321C135.805 126.344 137.043 125.953 137.075 126.033H137.071Z" fill="#455A64"/>
<path d="M115.288 174.538C115.201 174.566 111.427 162.985 106.858 148.666C102.285 134.349 98.6606 122.716 98.7583 122.688C98.8559 122.66 102.62 134.241 107.189 148.564C111.762 162.887 115.379 174.511 115.288 174.535V174.538Z" fill="#455A64"/>
<path d="M98.1411 107.004L143.877 107.444L152.405 83.3362L119.139 83.5629L111.417 105.239L98.1411 105.442V107.004Z" fill="#455A64"/>
<path d="M132.816 97.4709C131.801 97.3278 131.096 96.393 131.236 95.3779C131.379 94.3627 132.314 93.6581 133.329 93.7976C134.344 93.9407 135.048 94.8755 134.909 95.8906C134.909 95.8906 134.909 95.8906 134.909 95.8941C134.766 96.9057 133.827 97.6104 132.816 97.4674V97.4709Z" fill="white"/>
<path d="M94.4054 41.7518C94.8553 40.1472 96.0483 39.3588 97.6179 38.8216C99.2224 38.2879 100.987 38.5739 102.341 39.5855C103.241 40.2588 103.914 41.2355 104.967 41.6018C106.694 42.2018 108.72 40.9076 110.367 41.682C111.553 42.2227 112.076 43.6181 111.535 44.8041C111.131 45.6901 110.224 46.2378 109.251 46.182C110.374 46.5971 110.726 48.2017 110.07 49.2064C109.415 50.211 108.058 50.5877 106.875 50.368C105.703 50.0819 104.632 49.4819 103.774 48.6308C102.874 47.8285 102.083 46.9215 101.13 46.1924C100.206 45.4076 99.0306 44.9785 97.8202 44.9785C96.1948 45.0657 94.8065 46.2866 94.081 47.7447C93.3555 49.2029 93.1811 50.8598 93.1009 52.4819C93.0206 54.104 92.9823 55.754 92.5009 57.3063C92.4416 57.4911 92.3579 57.6935 92.1765 57.7563C91.9114 57.8365 91.6847 57.5574 91.5556 57.3063C90.0767 54.5575 89.1524 51.5435 88.835 48.4389C88.6501 46.6389 88.6954 44.9366 89.686 43.4227C90.6767 41.9053 93.1741 40.796 94.3984 41.7518" fill="#263238"/>
<path d="M91.2697 49.2796L90.4361 67.4852C90.2965 70.5793 90.7256 75.163 95.6298 75.163C99.8852 74.8386 101.141 70.8619 101.273 67.9631C101.333 66.6131 101.385 65.4515 101.403 65.312C101.403 65.312 106.056 65.0887 106.6 60.5155C106.861 58.3074 107.05 53.7063 107.14 49.5517C107.252 45.0936 103.924 41.2913 99.4911 40.8099L99.0411 40.7646C94.2415 40.5448 91.3639 44.4866 91.2697 49.2831V49.2796Z" fill="#FFBE9D"/>
<path d="M101.417 65.2527C99.2993 65.0678 97.2832 64.2585 95.6299 62.9225C95.6299 62.9225 96.6868 66.3654 101.298 66.4422L101.417 65.2527Z" fill="#EB996E"/>
<path d="M105.48 52.4819C105.445 52.8377 105.135 53.1028 104.779 53.0749C104.434 53.0644 104.162 52.7784 104.172 52.4331C104.172 52.4261 104.172 52.4191 104.172 52.4121C104.207 52.0563 104.514 51.7947 104.87 51.8191C105.215 51.8261 105.491 52.1121 105.484 52.4575C105.484 52.4645 105.484 52.4749 105.484 52.4819H105.48Z" fill="#263238"/>
<path d="M105.916 51.7005C105.825 51.7773 105.372 51.3587 104.664 51.2854C103.956 51.2122 103.408 51.5087 103.342 51.4145C103.275 51.3203 103.408 51.2261 103.652 51.0866C103.98 50.9087 104.353 50.8354 104.723 50.8738C105.089 50.9156 105.435 51.0726 105.703 51.3238C105.902 51.5052 105.961 51.6656 105.916 51.697V51.7005Z" fill="#263238"/>
<path d="M98.5562 51.9866C98.5213 52.3424 98.2108 52.6075 97.8551 52.5796C97.5063 52.5691 97.2307 52.2726 97.2446 51.9238C97.2446 51.9238 97.2446 51.9203 97.2446 51.9168C97.283 51.5645 97.59 51.3028 97.9458 51.3238C98.2946 51.3342 98.5666 51.6238 98.5596 51.9691C98.5596 51.9726 98.5596 51.9796 98.5596 51.9831L98.5562 51.9866Z" fill="#263238"/>
<path d="M98.9852 51.097C98.8945 51.1738 98.4411 50.7552 97.733 50.6784C97.0249 50.6017 96.4773 50.9017 96.411 50.8075C96.3448 50.7133 96.4773 50.6226 96.7215 50.4831C97.0494 50.3017 97.4226 50.2284 97.7923 50.2703C98.1586 50.3122 98.5004 50.4691 98.7725 50.7203C98.9713 50.8947 99.0306 51.0587 98.9852 51.0936V51.097Z" fill="#263238"/>
<path d="M100.984 56.5877C101.368 56.5109 101.758 56.4795 102.149 56.5005C102.334 56.5005 102.505 56.5005 102.55 56.3644C102.581 56.1795 102.56 55.9877 102.487 55.8168C102.362 55.3668 102.236 54.8889 102.1 54.3935C101.57 52.3703 101.2 50.7098 101.287 50.6854C101.375 50.661 101.866 52.2901 102.4 54.3168C102.526 54.8156 102.648 55.2935 102.759 55.747C102.847 55.9772 102.847 56.2319 102.759 56.4621C102.693 56.5842 102.578 56.6714 102.438 56.6958C102.334 56.7098 102.233 56.7098 102.128 56.6958C101.744 56.7028 101.361 56.6679 100.984 56.5842V56.5877Z" fill="#263238"/>
<path d="M98.8665 56.8528C98.9781 56.8528 98.9014 57.6237 99.4978 58.2341C100.094 58.8446 100.914 58.8446 100.911 58.9527C100.907 59.0609 100.712 59.0818 100.366 59.0574C99.9199 59.0155 99.5013 58.8167 99.1839 58.4958C98.8805 58.1888 98.7095 57.7737 98.7061 57.3446C98.7095 57.0237 98.8316 56.8458 98.8665 56.8528Z" fill="#263238"/>
<path d="M99.4631 48.3552C99.3724 48.5401 98.6818 48.3552 97.8446 48.3866C97.0075 48.418 96.3203 48.554 96.2262 48.3866C96.1913 48.2994 96.3238 48.1354 96.6133 47.9785C97.3912 47.5947 98.3016 47.5947 99.0794 47.9785C99.3689 48.104 99.5084 48.2715 99.4666 48.3552H99.4631Z" fill="#263238"/>
<path d="M105.874 49.6389C105.735 49.7819 105.267 49.5657 104.685 49.4959C104.102 49.4261 103.596 49.4959 103.502 49.311C103.457 49.2238 103.551 49.0738 103.785 48.9413C104.092 48.7878 104.441 48.732 104.779 48.7843C105.114 48.8296 105.428 48.9761 105.679 49.2064C105.885 49.3912 105.937 49.5657 105.871 49.6389H105.874Z" fill="#263238"/>
<path d="M91.2837 52.7086C91.2069 52.6668 88.2386 51.4459 88.0049 54.5854C87.7712 57.7249 90.9732 57.3132 90.9837 57.2225C90.9941 57.1318 91.2837 52.7086 91.2837 52.7086Z" fill="#FFBE9D"/>
<path d="M90.1151 55.9597C90.1151 55.9597 90.0558 55.9946 89.9616 56.033C89.8256 56.0749 89.6826 56.0679 89.5535 56.0121C89.1594 55.7191 88.9536 55.2342 89.0129 54.7493C89.0268 54.4807 89.0966 54.2191 89.2257 53.9784C89.3024 53.783 89.4698 53.6365 89.6756 53.5877C89.8082 53.5668 89.9372 53.64 89.9861 53.7621C90.0209 53.8528 89.9861 53.9156 90.014 53.9191C90.0419 53.9226 90.0872 53.8737 90.0733 53.7377C90.0628 53.6575 90.0209 53.5877 89.9616 53.5354C89.8814 53.4621 89.7733 53.4237 89.6652 53.4307C89.4001 53.4656 89.1699 53.6365 89.0582 53.8807C88.9048 54.1423 88.821 54.4388 88.8071 54.7388C88.7792 55.3737 89.0582 55.9911 89.5047 56.1551C89.6721 56.2144 89.857 56.197 90.007 56.1063C90.1047 56.033 90.1291 55.9632 90.1186 55.9563L90.1151 55.9597Z" fill="#EB996E"/>
<path d="M108.211 48.6936C106.097 49.0005 103.966 48.275 102.48 46.7436C101.469 45.6831 100.754 44.232 99.4038 43.6529C98.469 43.2971 97.433 43.325 96.5191 43.7401C95.6192 44.1553 94.8135 44.7518 94.1542 45.4948C94.7891 47.9157 93.9206 50.4447 93.0625 52.7958C92.9927 53.0679 92.8358 53.3086 92.6125 53.4796C92.2114 53.7272 91.6812 53.4447 91.3917 53.0714C90.9801 52.44 90.7604 51.697 90.7604 50.9435C90.6104 49.2308 90.8022 47.504 91.3289 45.868C91.8626 44.2285 92.8637 42.7809 94.2101 41.703C95.9541 40.4158 98.1306 39.8576 100.279 40.1472C102.417 40.4402 104.406 41.396 105.965 42.889C106.722 43.5413 107.301 44.375 107.653 45.3099" fill="#263238"/>
<path d="M20.235 145.47C21.8743 144.703 23.716 144.476 25.4915 144.828C26.4437 144.985 27.4448 145.278 28.097 145.994C28.7493 146.709 28.8714 147.978 28.1249 148.596C27.6436 148.92 27.0611 149.067 26.4821 149.011C25.0868 149.011 23.5381 148.749 22.4324 149.59C21.7941 150.068 21.3721 150.863 20.6326 151.097C19.8513 151.275 19.049 150.919 18.6584 150.218C18.3026 149.524 18.2258 148.718 18.4386 147.968C18.613 146.901 19.2792 145.976 20.2384 145.47H20.235Z" fill="#455A64"/>
<path d="M16.5621 138.375C17.5422 139.774 19.4502 139.31 20.3327 138.455C21.2152 137.601 21.5919 136.362 21.9302 135.18C22.7081 132.48 23.4929 129.644 22.9139 126.895C22.7743 126.061 22.4046 125.283 21.8535 124.645C21.2849 124.003 20.4164 123.714 19.5758 123.885C18.6166 124.143 18.0201 125.081 17.5876 125.978C16.3144 128.622 15.6482 131.517 15.6343 134.451C15.6343 135.801 15.7912 137.248 16.5621 138.375Z" fill="#455A64"/>
<path d="M13.8657 140.388C14.8877 139.052 15.1877 137.294 14.661 135.696C14.1238 134.116 13.1611 132.714 11.881 131.646C10.4369 130.355 8.75568 129.358 6.93142 128.709C6.21637 128.423 5.449 128.294 4.68163 128.332C3.90728 128.378 3.20618 128.803 2.80505 129.466C2.28184 130.464 2.78412 131.674 3.32826 132.665C4.28399 134.416 5.37575 136.087 6.59308 137.663C7.57323 138.923 8.69289 140.168 10.1928 140.74C11.6926 141.312 13.2343 141.242 14.0261 140.21" fill="#455A64"/>
<path d="M16.4922 159.504C16.5445 159.295 16.5759 159.085 16.5829 158.869C16.6282 158.419 16.6875 157.826 16.7538 157.132C16.8375 156.277 16.9666 155.426 17.141 154.585C17.3712 153.56 17.6816 152.552 18.0688 151.575C18.4525 150.609 18.9722 149.698 19.607 148.875C20.1233 148.188 20.786 147.626 21.5464 147.232C22.0591 146.974 22.6102 146.803 23.1788 146.723C23.3916 146.712 23.6043 146.681 23.8136 146.628C23.6008 146.607 23.3846 146.607 23.1718 146.628C22.5823 146.674 22.0033 146.827 21.4662 147.078C20.6674 147.452 19.9663 148.01 19.4187 148.704C18.7594 149.545 18.2292 150.48 17.8456 151.477C17.4584 152.468 17.1549 153.493 16.9456 154.536C16.7782 155.388 16.6666 156.249 16.6038 157.114C16.5515 157.854 16.5306 158.464 16.5166 158.865C16.4852 159.078 16.4782 159.291 16.4957 159.504H16.4922Z" fill="#263238"/>
<path d="M16.6142 158.168C16.6247 158.07 16.6247 157.972 16.6142 157.875V157.027C16.6142 156.295 16.6142 155.227 16.6561 153.923C16.7188 151.303 16.9456 148.484 17.3816 144.511C17.7967 140.772 18.3478 136.411 18.9338 133.596C19.0558 132.954 19.1814 132.372 19.3035 131.869C19.4256 131.367 19.5163 130.924 19.6035 130.568C19.6907 130.212 19.7535 129.961 19.8023 129.745C19.8337 129.651 19.8511 129.553 19.8546 129.455C19.8093 129.543 19.7744 129.633 19.75 129.731C19.6837 129.944 19.6 130.212 19.5023 130.54C19.4046 130.868 19.2826 131.329 19.157 131.831C19.0314 132.333 18.8884 132.916 18.7489 133.554C18.0269 136.899 17.4827 140.28 17.12 143.684C16.6979 147.685 16.4956 151.285 16.4956 153.926C16.4956 155.234 16.4956 156.302 16.5409 157.034C16.5409 157.376 16.5828 157.655 16.5933 157.875C16.5863 157.972 16.5933 158.07 16.6142 158.168Z" fill="#263238"/>
<path d="M16.6317 151.177C16.6561 150.877 16.6561 150.577 16.6317 150.277C16.5829 149.475 16.4922 148.676 16.3631 147.884C16.1713 146.716 15.9132 145.558 15.5923 144.42C15.2121 143.011 14.7237 141.633 14.1342 140.297C13.1227 137.838 11.6717 135.581 9.85439 133.638C9.53698 133.307 9.19864 132.993 8.84286 132.703C8.68589 132.574 8.54986 132.445 8.3929 132.344L8.00223 132.075C7.76853 131.897 7.52088 131.737 7.25928 131.597C8.11385 132.27 8.92657 132.996 9.69394 133.77C11.4519 135.727 12.8646 137.974 13.8657 140.409C14.4447 141.734 14.933 143.098 15.3341 144.49C15.7178 145.774 15.969 146.946 16.1608 147.937C16.3526 148.927 16.4503 149.737 16.5131 150.309C16.5305 150.602 16.5689 150.895 16.6352 151.181L16.6317 151.177Z" fill="#263238"/>
<path d="M9.87207 163.515L10.5732 173.115H22.9104L23.6081 163.515H9.87207Z" fill="#263238"/>
<path d="M25.0796 159.731H8.67871V163.515H25.0796V159.731Z" fill="#263238"/>
<path d="M8.67871 172.753V173.799H9.44608H24.8075V172.753H8.67871Z" fill="#455A64"/>
<path d="M10.2032 175.644L9.44629 173.799H24.2217L23.3392 175.644H10.2032Z" fill="#455A64"/>
<path d="M23.3811 166.655C23.3637 166.683 23.3427 166.714 23.3218 166.742L23.1369 166.99L22.4184 167.89L22.387 167.932L22.3556 167.89L20.5906 165.448H20.6883L18.9513 167.935L18.8989 168.012L18.8362 167.939C18.1978 167.175 17.4863 166.344 16.7747 165.486H16.8933C16.8619 165.532 16.8201 165.577 16.7817 165.626L14.94 167.935L14.8772 168.012L14.8179 167.932L13.0809 165.469H13.1785L11.0369 167.935L11.002 167.977L10.9706 167.928C10.6915 167.457 10.4683 167.077 10.3009 166.805L10.13 166.505L10.0776 166.4C10.0776 166.4 10.109 166.428 10.1509 166.494L10.3427 166.784L11.0438 167.89H10.9776L13.0878 165.424L13.1367 165.361L13.1855 165.427L14.94 167.876H14.8214L16.6631 165.563L16.7747 165.42L16.834 165.347L16.8933 165.42L18.9478 167.876H18.8292L20.5872 165.427L20.636 165.354L20.6848 165.427L22.4114 167.893H22.3347L23.0846 166.993L23.2834 166.76C23.3427 166.683 23.3706 166.655 23.3741 166.662L23.3811 166.655Z" fill="#E0E0E0"/>
<path d="M23.7824 163.435C23.7824 163.481 20.692 163.512 16.876 163.512C13.0601 163.512 9.97314 163.481 9.97314 163.435C9.97314 163.39 13.0636 163.358 16.876 163.358C20.6885 163.358 23.7824 163.435 23.7824 163.435Z" fill="#455A64"/>
<path d="M24.4031 173.904C24.4031 173.946 21.0406 173.98 16.9038 173.98C12.7669 173.98 9.39746 173.946 9.39746 173.904C9.39746 173.862 12.76 173.827 16.9038 173.827C21.0476 173.827 24.4031 173.862 24.4031 173.904Z" fill="#263238"/>
<path d="M170.236 63.3446L161.666 99.1941H164.062L172.503 63.3446H170.236Z" fill="#263238"/>
<path d="M166.943 86.9396C166.79 87.5954 170.825 107.137 170.825 107.137H168.882L165.837 91.6489L166.943 86.9362V86.9396Z" fill="#263238"/>
<path d="M195.486 132.986H155.338V175.547H195.486V132.986Z" fill="#FF0000"/>
<path d="M197.453 139.202H195.482V141.173H197.453V139.202Z" fill="#263238"/>
<path d="M197.453 145.463H195.482V147.434H197.453V145.463Z" fill="#263238"/>
<path d="M197.453 151.721H195.482V153.692H197.453V151.721Z" fill="#263238"/>
<path d="M197.453 157.979H195.482V159.95H197.453V157.979Z" fill="#263238"/>
<path d="M197.53 152.297C197.725 152.234 197.927 152.189 198.133 152.168C198.691 152.063 199.256 152.011 199.825 152.007C200.683 151.987 201.527 152.21 202.263 152.649C203.198 153.211 203.725 154.264 203.613 155.349C203.571 155.897 203.393 156.427 203.1 156.891C202.828 157.32 202.476 157.69 202.064 157.99C201.367 158.485 200.561 158.803 199.717 158.918C199.155 159.002 198.587 159.019 198.022 158.977C197.812 158.974 197.607 158.942 197.404 158.89C197.61 158.872 197.816 158.872 198.022 158.89C198.58 158.897 199.141 158.855 199.692 158.761C200.505 158.628 201.276 158.307 201.942 157.826C202.762 157.247 203.289 156.336 203.386 155.339C203.491 154.334 203.01 153.361 202.148 152.838C201.447 152.409 200.641 152.182 199.822 152.182C199.263 152.171 198.702 152.199 198.147 152.269C197.945 152.3 197.736 152.314 197.53 152.304V152.297Z" fill="#263238"/>
<path d="M197.038 146.074C197.094 146.028 197.157 145.99 197.223 145.962C197.411 145.868 197.607 145.791 197.809 145.728C198.555 145.488 199.351 145.446 200.118 145.599C200.38 145.648 200.627 145.749 200.851 145.892C201.102 146.06 201.283 146.308 201.367 146.594C201.573 147.598 201.035 148.61 200.083 149.001C199.731 149.14 199.333 149.119 198.998 148.941C198.632 148.763 198.391 148.401 198.374 147.996C198.391 147.577 198.636 147.201 199.012 147.019C199.368 146.848 199.776 146.806 200.16 146.897C200.526 146.977 200.871 147.141 201.164 147.375C201.723 147.818 202.082 148.467 202.162 149.175C202.228 149.82 202.047 150.462 201.649 150.975C201.321 151.411 200.899 151.763 200.418 152.014C199.713 152.356 198.95 152.559 198.168 152.6C197.9 152.621 197.687 152.632 197.544 152.632C197.471 152.642 197.397 152.642 197.324 152.632C197.324 152.632 197.624 152.59 198.161 152.524C198.918 152.443 199.651 152.227 200.331 151.885C200.784 151.638 201.182 151.292 201.489 150.874C201.838 150.403 202.002 149.817 201.939 149.231C201.855 148.585 201.524 147.999 201.011 147.598C200.749 147.389 200.439 147.242 200.111 147.169C199.776 147.089 199.427 147.124 199.117 147.267C198.817 147.41 198.622 147.706 198.604 148.038C198.629 148.355 198.817 148.638 199.103 148.781C199.382 148.931 199.71 148.948 200.003 148.83C200.292 148.718 200.551 148.533 200.746 148.289C201.144 147.86 201.311 147.263 201.196 146.688C201.028 146.203 200.603 145.854 200.094 145.788C199.351 145.624 198.58 145.645 197.844 145.84C197.317 145.952 197.052 146.098 197.042 146.074H197.038Z" fill="#263238"/>
<path d="M197.056 139.969C197.199 139.91 197.352 139.882 197.506 139.889C197.914 139.861 198.322 139.91 198.712 140.039C199.295 140.234 199.811 140.587 200.212 141.051C200.701 141.63 200.976 142.362 200.99 143.119C201.018 143.876 200.791 144.623 200.341 145.233C199.968 145.725 199.466 146.105 198.894 146.335C198.517 146.492 198.113 146.576 197.701 146.58C197.547 146.594 197.394 146.58 197.251 146.527C197.788 146.51 198.318 146.395 198.817 146.189C199.344 145.948 199.801 145.578 200.146 145.107C200.976 143.921 200.927 142.327 200.027 141.194C199.654 140.751 199.176 140.409 198.636 140.199C198.126 140.028 197.593 139.952 197.056 139.969Z" fill="#263238"/>
<path d="M167.257 110.371C167.4 110.622 167.512 110.89 167.595 111.166C167.84 111.954 168.018 112.764 168.129 113.583C168.297 114.644 168.436 115.956 168.579 117.469C168.722 118.987 168.844 120.724 169.088 122.625C169.151 123.096 169.228 123.585 169.326 124.073C169.416 124.572 169.57 125.06 169.775 125.521C170.041 125.971 170.375 126.382 170.759 126.734C171.994 127.924 173.595 128.664 175.301 128.841C176.518 128.981 177.746 128.768 178.844 128.231C180.002 127.662 180.843 126.605 181.136 125.35C181.283 124.711 181.234 124.048 181 123.438C180.742 122.824 180.309 122.301 179.755 121.931C179.19 121.554 178.534 121.335 177.857 121.3C177.17 121.261 176.494 121.46 175.935 121.861C175.66 122.06 175.437 122.325 175.283 122.632C175.137 122.936 175.091 123.281 175.158 123.612C175.318 124.3 175.775 124.879 176.403 125.196C177.045 125.51 177.742 125.705 178.454 125.765C179.162 125.855 179.873 125.904 180.585 125.915C181.987 125.922 183.386 125.845 184.778 125.681C187.512 125.374 190.177 124.935 192.709 124.907C195.242 124.879 197.722 125.231 199.776 126.257C200.774 126.731 201.667 127.401 202.403 128.224C203.076 128.995 203.54 129.923 203.753 130.924C204.112 132.651 203.833 134.451 202.964 135.986C202.309 137.13 201.395 138.103 200.296 138.835C199.609 139.299 198.869 139.676 198.092 139.959C197.82 140.06 197.544 140.14 197.265 140.206L197.471 140.13C197.61 140.088 197.813 140.011 198.074 139.913C198.842 139.617 199.571 139.226 200.247 138.755C201.322 138.023 202.211 137.053 202.853 135.919C203.679 134.409 203.941 132.654 203.585 130.969C203.362 129.996 202.898 129.096 202.235 128.35C201.51 127.551 200.634 126.902 199.658 126.441C197.635 125.461 195.2 125.091 192.678 125.151C190.156 125.21 187.512 125.622 184.764 125.932C183.365 126.103 181.952 126.187 180.543 126.176C179.821 126.166 179.099 126.117 178.384 126.026C177.641 125.964 176.919 125.761 176.253 125.433C175.566 125.078 175.074 124.439 174.903 123.689C174.83 123.309 174.882 122.915 175.046 122.566C175.213 122.228 175.465 121.935 175.771 121.711C176.371 121.275 177.1 121.062 177.84 121.101C178.562 121.139 179.26 121.373 179.859 121.774C180.452 122.168 180.913 122.73 181.188 123.386C181.436 124.038 181.488 124.75 181.331 125.433C181.021 126.752 180.139 127.861 178.921 128.454C177.784 129.012 176.511 129.229 175.255 129.079C174.076 128.957 172.939 128.566 171.935 127.934C171.457 127.641 171.01 127.296 170.606 126.905C170.205 126.536 169.863 126.11 169.587 125.636C169.378 125.158 169.228 124.652 169.137 124.136C169.04 123.64 168.966 123.155 168.907 122.678C168.673 120.766 168.562 119.032 168.429 117.511C168.3 115.99 168.171 114.686 168.024 113.625C167.923 112.809 167.759 112 167.533 111.208C167.473 111.002 167.404 110.8 167.32 110.601C167.289 110.524 167.264 110.447 167.243 110.367L167.257 110.371Z" fill="#263238"/>
<path d="M193.201 173.782V170.942C193.201 169.093 193.201 166.393 193.173 162.968C193.173 156.113 193.142 146.349 193.121 134.67L193.225 134.775H156.939L157.058 134.656V173.768L156.96 173.67L183.253 173.719L190.627 173.747H193.25H192.598L190.616 173.782L183.271 173.809L156.911 173.858H156.807V134.555H193.316V134.636C193.295 146.335 193.274 156.131 193.264 162.982C193.264 166.4 193.264 169.093 193.236 170.932V173.555C193.236 173.68 193.205 173.778 193.205 173.778L193.201 173.782Z" fill="#263238"/>
<path d="M182.964 139.463C182.964 139.565 182.887 139.648 182.782 139.652C182.782 139.652 182.782 139.652 182.779 139.652C182.674 139.669 182.58 139.596 182.563 139.495C182.545 139.394 182.618 139.296 182.72 139.279C182.741 139.279 182.758 139.279 182.779 139.279C182.88 139.279 182.964 139.362 182.964 139.463Z" fill="#263238"/>
<path d="M184.003 139.463C184.003 139.565 183.927 139.648 183.822 139.652C183.822 139.652 183.822 139.652 183.818 139.652C183.714 139.669 183.62 139.596 183.602 139.495C183.585 139.394 183.658 139.296 183.759 139.279C183.78 139.279 183.798 139.279 183.818 139.279C183.92 139.279 184.003 139.362 184.003 139.463Z" fill="#263238"/>
<path d="M185.029 139.463C185.029 139.565 184.952 139.648 184.847 139.652C184.847 139.652 184.847 139.652 184.844 139.652C184.739 139.669 184.645 139.596 184.628 139.495C184.61 139.394 184.683 139.296 184.785 139.279C184.805 139.279 184.823 139.279 184.844 139.279C184.945 139.279 185.029 139.362 185.029 139.463Z" fill="#263238"/>
<path d="M186.054 139.463C186.054 139.568 185.974 139.655 185.869 139.655C185.764 139.655 185.677 139.575 185.677 139.47C185.677 139.366 185.757 139.279 185.862 139.279C185.862 139.279 185.862 139.279 185.866 139.279C185.967 139.279 186.05 139.359 186.054 139.463Z" fill="#263238"/>
<path d="M187.083 139.463C187.083 139.568 186.999 139.652 186.895 139.652C186.79 139.634 186.72 139.54 186.738 139.435C186.751 139.355 186.814 139.289 186.895 139.279C186.996 139.279 187.079 139.359 187.083 139.463Z" fill="#263238"/>
<path d="M188.109 139.463C188.109 139.568 188.025 139.652 187.92 139.652C187.816 139.634 187.746 139.54 187.763 139.435C187.777 139.355 187.84 139.289 187.92 139.279C188.022 139.279 188.105 139.359 188.109 139.463Z" fill="#263238"/>
<path d="M189.134 139.463C189.134 139.568 189.05 139.652 188.946 139.652C188.841 139.634 188.771 139.54 188.789 139.435C188.803 139.355 188.866 139.289 188.946 139.279C189.047 139.279 189.131 139.359 189.134 139.463Z" fill="#263238"/>
<path d="M188.471 140.342C188.574 140.342 188.656 140.26 188.656 140.158C188.656 140.055 188.574 139.973 188.471 139.973C188.369 139.973 188.287 140.055 188.287 140.158C188.287 140.26 188.369 140.342 188.471 140.342Z" fill="#263238"/>
<path d="M187.425 140.342C187.527 140.342 187.61 140.26 187.61 140.158C187.61 140.055 187.527 139.973 187.425 139.973C187.323 139.973 187.24 140.055 187.24 140.158C187.24 140.26 187.323 140.342 187.425 140.342Z" fill="#263238"/>
<path d="M186.563 140.158C186.563 140.259 186.479 140.342 186.378 140.342C186.277 140.342 186.193 140.266 186.19 140.161C186.19 140.161 186.19 140.161 186.19 140.158C186.19 140.053 186.274 139.969 186.378 139.969C186.479 139.969 186.563 140.053 186.563 140.154C186.563 140.154 186.563 140.154 186.563 140.158Z" fill="#263238"/>
<path d="M185.328 140.342C185.431 140.342 185.513 140.26 185.513 140.158C185.513 140.055 185.431 139.973 185.328 139.973C185.226 139.973 185.144 140.055 185.144 140.158C185.144 140.26 185.226 140.342 185.328 140.342Z" fill="#263238"/>
<path d="M184.275 140.342C184.377 140.342 184.46 140.26 184.46 140.158C184.46 140.055 184.377 139.973 184.275 139.973C184.173 139.973 184.09 140.055 184.09 140.158C184.09 140.26 184.173 140.342 184.275 140.342Z" fill="#263238"/>
<path d="M183.414 140.158C183.414 140.259 183.33 140.342 183.229 140.342C183.229 140.342 183.229 140.342 183.225 140.342C183.124 140.342 183.041 140.259 183.041 140.158C183.041 140.056 183.117 139.973 183.222 139.969C183.222 139.969 183.222 139.969 183.225 139.969C183.33 139.969 183.414 140.053 183.414 140.158Z" fill="#263238"/>
<path d="M182.964 140.935C182.964 141.037 182.88 141.12 182.779 141.12C182.678 141.12 182.594 141.044 182.59 140.939C182.59 140.939 182.59 140.939 182.59 140.935C182.59 140.831 182.674 140.747 182.779 140.747C182.88 140.747 182.964 140.831 182.964 140.932C182.964 140.932 182.964 140.932 182.964 140.935Z" fill="#263238"/>
<path d="M184.003 140.935C184.003 141.037 183.919 141.12 183.818 141.12C183.717 141.12 183.633 141.044 183.63 140.939C183.63 140.939 183.63 140.939 183.63 140.935C183.63 140.831 183.714 140.747 183.818 140.747C183.919 140.747 184.003 140.831 184.003 140.932C184.003 140.932 184.003 140.932 184.003 140.935Z" fill="#263238"/>
<path d="M185.028 140.935C185.028 141.037 184.945 141.12 184.844 141.12C184.742 141.12 184.659 141.044 184.655 140.939C184.655 140.939 184.655 140.939 184.655 140.935C184.655 140.831 184.739 140.747 184.844 140.747C184.945 140.747 185.028 140.831 185.028 140.932C185.028 140.932 185.028 140.932 185.028 140.935Z" fill="#263238"/>
<path d="M186.054 140.935C186.037 141.04 185.942 141.11 185.838 141.092C185.758 141.078 185.691 141.016 185.681 140.935C185.663 140.831 185.737 140.737 185.838 140.719C185.939 140.702 186.037 140.775 186.054 140.876C186.054 140.897 186.054 140.915 186.054 140.935Z" fill="#263238"/>
<path d="M187.083 140.935C187.083 141.037 186.999 141.12 186.898 141.12C186.898 141.12 186.898 141.12 186.895 141.12C186.794 141.12 186.71 141.037 186.71 140.935C186.71 140.834 186.787 140.751 186.891 140.747C186.891 140.747 186.891 140.747 186.895 140.747C186.999 140.747 187.083 140.831 187.083 140.935Z" fill="#263238"/>
<path d="M188.109 140.935C188.109 141.037 188.025 141.12 187.924 141.12C187.924 141.12 187.924 141.12 187.92 141.12C187.819 141.12 187.735 141.037 187.735 140.935C187.735 140.834 187.812 140.751 187.917 140.747C187.917 140.747 187.917 140.747 187.92 140.747C188.025 140.747 188.109 140.831 188.109 140.935Z" fill="#263238"/>
<path d="M189.134 140.935C189.134 141.037 189.05 141.12 188.949 141.12C188.949 141.12 188.949 141.12 188.946 141.12C188.844 141.12 188.761 141.037 188.761 140.935C188.761 140.834 188.837 140.751 188.942 140.747C188.942 140.747 188.942 140.747 188.946 140.747C189.05 140.747 189.134 140.831 189.134 140.935Z" fill="#263238"/>
<path d="M188.66 141.623C188.66 141.727 188.576 141.811 188.471 141.811C188.37 141.811 188.287 141.727 188.287 141.626C188.287 141.626 188.287 141.626 188.287 141.623C188.287 141.522 188.37 141.438 188.471 141.438C188.573 141.438 188.656 141.515 188.66 141.619C188.66 141.619 188.66 141.619 188.66 141.623Z" fill="#263238"/>
<path d="M187.606 141.623C187.606 141.724 187.529 141.808 187.425 141.811C187.425 141.811 187.425 141.811 187.421 141.811C187.317 141.811 187.233 141.727 187.233 141.623C187.233 141.522 187.317 141.438 187.418 141.438C187.418 141.438 187.418 141.438 187.421 141.438C187.522 141.438 187.606 141.522 187.606 141.623Z" fill="#263238"/>
<path d="M186.563 141.623C186.563 141.724 186.486 141.808 186.382 141.811C186.382 141.811 186.382 141.811 186.378 141.811C186.274 141.811 186.19 141.727 186.19 141.623C186.19 141.522 186.274 141.438 186.375 141.438C186.375 141.438 186.375 141.438 186.378 141.438C186.479 141.438 186.563 141.522 186.563 141.623Z" fill="#263238"/>
<path d="M185.51 141.623C185.51 141.724 185.433 141.808 185.329 141.811C185.329 141.811 185.329 141.811 185.325 141.811C185.22 141.811 185.137 141.727 185.137 141.623C185.137 141.522 185.22 141.438 185.322 141.438C185.322 141.438 185.322 141.438 185.325 141.438C185.426 141.438 185.51 141.522 185.51 141.623Z" fill="#263238"/>
<path d="M184.464 141.623C184.481 141.727 184.408 141.821 184.307 141.839C184.205 141.856 184.108 141.783 184.09 141.682C184.09 141.661 184.09 141.644 184.09 141.623C184.108 141.518 184.202 141.448 184.307 141.466C184.387 141.48 184.453 141.542 184.464 141.623Z" fill="#263238"/>
<path d="M183.414 141.623C183.414 141.727 183.33 141.811 183.225 141.811C183.124 141.811 183.041 141.727 183.041 141.626C183.041 141.626 183.041 141.626 183.041 141.623C183.041 141.522 183.124 141.438 183.225 141.438C183.327 141.438 183.41 141.515 183.414 141.619C183.414 141.619 183.414 141.619 183.414 141.623Z" fill="#263238"/>
<path d="M182.964 142.404C182.964 142.505 182.887 142.589 182.782 142.592C182.782 142.592 182.782 142.592 182.779 142.592C182.674 142.592 182.59 142.509 182.59 142.404C182.59 142.303 182.674 142.219 182.775 142.219C182.775 142.219 182.775 142.219 182.779 142.219C182.88 142.219 182.964 142.303 182.964 142.404Z" fill="#263238"/>
<path d="M184.003 142.404C184.003 142.505 183.926 142.589 183.822 142.592C183.822 142.592 183.822 142.592 183.818 142.592C183.714 142.592 183.63 142.509 183.63 142.404C183.63 142.303 183.714 142.219 183.815 142.219C183.815 142.219 183.815 142.219 183.818 142.219C183.919 142.219 184.003 142.303 184.003 142.404Z" fill="#263238"/>
<path d="M185.028 142.404C185.028 142.505 184.952 142.589 184.847 142.592C184.847 142.592 184.847 142.592 184.844 142.592C184.739 142.592 184.655 142.509 184.655 142.404C184.655 142.303 184.739 142.219 184.84 142.219C184.84 142.219 184.84 142.219 184.844 142.219C184.945 142.219 185.028 142.303 185.028 142.404Z" fill="#263238"/>
<path d="M186.054 142.404C186.071 142.509 185.998 142.603 185.897 142.62C185.796 142.638 185.698 142.564 185.681 142.463C185.681 142.442 185.681 142.425 185.681 142.404C185.698 142.299 185.792 142.23 185.897 142.247C185.977 142.261 186.043 142.324 186.054 142.404Z" fill="#263238"/>
<path d="M187.083 142.404C187.083 142.509 186.999 142.592 186.895 142.592C186.794 142.592 186.71 142.509 186.71 142.408C186.71 142.408 186.71 142.408 186.71 142.404C186.71 142.303 186.794 142.219 186.895 142.219C186.996 142.219 187.08 142.296 187.083 142.401C187.083 142.401 187.083 142.401 187.083 142.404Z" fill="#263238"/>
<path d="M188.109 142.404C188.109 142.509 188.025 142.592 187.92 142.592C187.819 142.592 187.735 142.509 187.735 142.408C187.735 142.408 187.735 142.408 187.735 142.404C187.735 142.303 187.819 142.219 187.92 142.219C188.021 142.219 188.105 142.296 188.109 142.401C188.109 142.401 188.109 142.401 188.109 142.404Z" fill="#263238"/>
<path d="M189.134 142.404C189.134 142.509 189.05 142.592 188.946 142.592C188.844 142.592 188.761 142.509 188.761 142.408C188.761 142.408 188.761 142.408 188.761 142.404C188.761 142.303 188.844 142.219 188.946 142.219C189.047 142.219 189.13 142.296 189.134 142.401C189.134 142.401 189.134 142.401 189.134 142.404Z" fill="#263238"/>
<path d="M188.471 143.28C188.574 143.28 188.656 143.197 188.656 143.095C188.656 142.993 188.574 142.91 188.471 142.91C188.369 142.91 188.287 142.993 188.287 143.095C188.287 143.197 188.369 143.28 188.471 143.28Z" fill="#263238"/>
<path d="M187.425 143.28C187.527 143.28 187.61 143.197 187.61 143.095C187.61 142.993 187.527 142.91 187.425 142.91C187.323 142.91 187.24 142.993 187.24 143.095C187.24 143.197 187.323 143.28 187.425 143.28Z" fill="#263238"/>
<path d="M186.563 143.095C186.563 143.196 186.48 143.28 186.379 143.28C186.274 143.297 186.18 143.224 186.162 143.123C186.145 143.021 186.218 142.924 186.319 142.906C186.34 142.906 186.358 142.906 186.379 142.906C186.48 142.906 186.563 142.99 186.563 143.091C186.563 143.091 186.563 143.091 186.563 143.095Z" fill="#263238"/>
<path d="M185.328 143.28C185.431 143.28 185.513 143.197 185.513 143.095C185.513 142.993 185.431 142.91 185.328 142.91C185.226 142.91 185.144 142.993 185.144 143.095C185.144 143.197 185.226 143.28 185.328 143.28Z" fill="#263238"/>
<path d="M184.275 143.28C184.377 143.28 184.46 143.197 184.46 143.095C184.46 142.993 184.377 142.91 184.275 142.91C184.173 142.91 184.09 142.993 184.09 143.095C184.09 143.197 184.173 143.28 184.275 143.28Z" fill="#263238"/>
<path d="M183.413 143.095C183.413 143.196 183.326 143.28 183.225 143.28C183.12 143.262 183.051 143.168 183.068 143.063C183.082 142.983 183.145 142.917 183.225 142.906C183.33 142.906 183.413 142.99 183.413 143.095Z" fill="#263238"/>
<path d="M168.791 97.4186C169.039 97.4221 169.287 97.4674 169.52 97.5477C170.204 97.7709 170.815 98.1686 171.292 98.7058C172.028 99.5674 172.562 100.582 172.862 101.674C173.302 103.098 173.629 104.552 173.846 106.024C174.351 109.865 174.446 113.751 174.135 117.609C174.072 118.746 173.727 119.852 173.127 120.822C172.799 121.317 172.363 121.736 171.857 122.05C171.334 122.378 170.717 122.524 170.103 122.468C169.472 122.409 168.882 122.133 168.432 121.69C168.205 121.46 168.038 121.181 167.94 120.878C167.85 120.56 167.85 120.225 167.94 119.911C168.108 119.266 168.572 118.736 169.196 118.495C169.517 118.38 169.869 118.38 170.19 118.495C170.504 118.614 170.78 118.823 170.982 119.095C171.38 119.629 171.54 120.302 171.432 120.958C171.327 121.586 171.108 122.186 170.78 122.73C168.948 125.988 164.846 127.174 161.557 125.402C160.612 124.879 159.785 124.167 159.126 123.309C158.498 122.514 157.996 121.628 157.626 120.686C157.023 118.98 156.691 117.187 156.643 115.377C156.555 113.727 156.643 112.227 156.486 110.932C156.416 110.332 156.276 109.743 156.067 109.178C155.886 108.703 155.631 108.26 155.317 107.863C154.885 107.301 154.306 106.872 153.643 106.624C153.409 106.551 153.168 106.495 152.928 106.453C153.179 106.457 153.427 106.502 153.66 106.582C154.34 106.813 154.94 107.235 155.383 107.803C155.715 108.208 155.98 108.665 156.172 109.153C156.395 109.732 156.545 110.336 156.622 110.953C156.796 112.261 156.716 113.761 156.813 115.404C156.873 117.197 157.211 118.966 157.818 120.654C158.174 121.582 158.662 122.451 159.273 123.236C159.914 124.069 160.724 124.76 161.644 125.266C164.829 126.972 168.791 125.814 170.563 122.664C170.874 122.144 171.083 121.572 171.184 120.975C171.289 120.382 171.149 119.772 170.794 119.283C170.616 119.05 170.378 118.868 170.106 118.76C169.834 118.663 169.541 118.663 169.269 118.76C168.722 118.976 168.31 119.444 168.164 120.016C168.021 120.581 168.195 121.174 168.614 121.579C169.025 121.987 169.562 122.238 170.138 122.29C170.703 122.343 171.271 122.207 171.753 121.907C172.234 121.61 172.642 121.216 172.953 120.745C173.532 119.807 173.87 118.739 173.929 117.637C174.25 113.793 174.174 109.924 173.696 106.094C173.486 104.629 173.169 103.181 172.747 101.762C172.464 100.68 171.948 99.6755 171.237 98.8139C170.773 98.2802 170.183 97.8756 169.517 97.6383C169.28 97.5477 169.039 97.4709 168.791 97.4151V97.4186Z" fill="#E0E0E0"/>
<path d="M165.262 103.931H150.315V106.781H165.262V103.931Z" fill="#E0E0E0"/>
<path d="M57.3693 133.376H37.8745V175.344H57.3693V133.376Z" fill="#263238"/>
<path d="M55.6947 170.925V168.211C55.6947 166.456 55.6947 163.913 55.6633 160.714C55.6633 154.317 55.632 145.306 55.611 134.827L55.7226 134.936H39.4125L39.5311 134.817C39.5311 148.837 39.5311 161.572 39.4997 170.914L39.4125 170.827L51.3207 170.872L54.5786 170.893H55.7261H51.3765L39.4125 170.939H39.3322V170.851C39.3322 161.51 39.3322 148.777 39.2974 134.754V134.636H55.8412V134.747C55.8412 145.258 55.7994 154.292 55.7889 160.711C55.7889 163.896 55.7889 166.435 55.7575 168.179V170.673C55.7575 170.796 55.6982 170.918 55.6982 170.918L55.6947 170.925Z" fill="#455A64"/>
<path d="M54.6867 137.887V137.437C54.6867 137.144 54.6867 136.736 54.6588 136.223L54.7076 136.272C52.1823 136.313 46.7758 136.338 40.5252 136.338L40.6438 136.219V137.869L40.5322 137.751C44.4946 137.751 48.0245 137.779 50.5743 137.799L53.595 137.831H54.4181C54.5158 137.82 54.617 137.82 54.7146 137.831C54.6274 137.838 54.5367 137.838 54.4495 137.831H53.6473L50.6615 137.862C48.1152 137.89 44.5469 137.911 40.5322 137.911H40.4136V136.143L40.5357 136.024C46.7863 136.024 52.1928 136.052 54.7181 136.09H54.7355V136.139C54.7355 136.666 54.7355 137.081 54.7076 137.384C54.7076 137.548 54.7042 137.712 54.6867 137.876V137.887Z" fill="#455A64"/>
<path d="M41.9311 139.073C41.9311 139.135 41.6381 139.191 41.2788 139.191C40.9195 139.191 40.623 139.139 40.623 139.073C40.623 139.006 40.916 138.954 41.2788 138.954C41.6416 138.954 41.9311 139.003 41.9311 139.073Z" fill="#455A64"/>
<path d="M54.3098 141.235C54.3098 141.298 51.2892 141.354 47.5604 141.354C43.8317 141.354 40.811 141.302 40.811 141.235C40.811 141.169 43.8247 141.117 47.5604 141.117C51.2961 141.117 54.3098 141.169 54.3098 141.235Z" fill="#455A64"/>
<path d="M54.3694 143.852C54.3694 143.918 51.401 143.97 47.7421 143.97C44.0831 143.97 41.1147 143.921 41.1147 143.852C41.1147 143.782 44.0796 143.733 47.7421 143.733C51.4045 143.733 54.3694 143.785 54.3694 143.852Z" fill="#455A64"/>
<path d="M47.564 151.038C48.1554 151.038 48.6348 150.558 48.6348 149.967C48.6348 149.375 48.1554 148.896 47.564 148.896C46.9726 148.896 46.4932 149.375 46.4932 149.967C46.4932 150.558 46.9726 151.038 47.564 151.038Z" fill="#FF0000"/>
<path d="M44.5402 149.935C44.0693 150.05 43.5879 150.089 43.1066 150.054C42.6322 150.089 42.1543 150.054 41.6904 149.935C42.1578 149.817 42.6427 149.778 43.1205 149.817C43.5984 149.778 44.0763 149.817 44.5437 149.935H44.5402Z" fill="#455A64"/>
<path d="M53.253 149.639C52.8135 149.754 52.3565 149.792 51.9031 149.757C51.4497 149.796 50.9927 149.757 50.5532 149.639C50.9927 149.527 51.4497 149.485 51.9031 149.52C52.3565 149.485 52.8135 149.524 53.253 149.639Z" fill="#455A64"/>
<path d="M38.5405 154.435C38.2929 154.411 38.0487 154.366 37.8115 154.299C37.1209 154.111 36.4686 153.804 35.8826 153.399C34.9478 152.757 34.156 151.934 33.5561 150.975C32.7748 149.702 32.2027 148.31 31.8609 146.852C31.4005 145.101 31.2261 143.29 31.3447 141.483C31.4598 139.387 32.1678 137.367 33.3921 135.661C34.0549 134.744 34.885 133.955 35.8338 133.338C36.3291 133.024 36.8558 132.766 37.4034 132.56C37.965 132.365 38.5475 132.225 39.1405 132.145C40.3299 131.977 41.5437 132.002 42.7401 131.929C43.9714 131.904 45.1818 131.625 46.298 131.109C47.4107 130.596 48.2269 129.602 48.5129 128.409C48.9768 126.365 47.7002 124.334 45.6562 123.867C45.3492 123.797 45.0388 123.766 44.7249 123.773C44.1807 123.801 43.654 123.996 43.2215 124.331C42.8064 124.652 42.5727 125.154 42.5902 125.681C42.7053 126.727 43.5494 127.54 44.5958 127.621C45.5829 127.638 46.5282 127.216 47.17 126.462C47.7734 125.751 48.2059 124.914 48.4396 124.01C48.6629 123.18 48.8373 122.336 48.9559 121.485C49.2803 118.903 49.357 116.294 49.1931 113.695C49.1477 112.795 49.1128 112.07 49.0849 111.574C49.0849 111.34 49.0745 111.156 49.057 111.02C49.05 110.957 49.05 110.894 49.057 110.831C49.071 110.894 49.0814 110.957 49.0849 111.02C49.0849 111.156 49.1128 111.333 49.1338 111.567C49.1686 112.052 49.2279 112.764 49.2837 113.688C49.4861 116.294 49.4302 118.91 49.1163 121.505C49.0012 122.367 48.8303 123.218 48.6071 124.055C48.3769 124.98 47.9408 125.845 47.3339 126.581C46.6537 127.38 45.6527 127.83 44.6028 127.809C43.4447 127.729 42.5134 126.829 42.3948 125.678C42.3704 125.081 42.632 124.509 43.1029 124.139C43.5703 123.773 44.1354 123.564 44.7283 123.532C46.9642 123.508 48.7954 125.304 48.8198 127.54C48.8303 128.482 48.5094 129.396 47.9199 130.129C47.5048 130.62 46.9921 131.022 46.4131 131.304C45.2655 131.834 44.0238 132.124 42.7611 132.152C41.5333 132.225 40.3229 132.201 39.1614 132.358C38.5859 132.434 38.0173 132.57 37.4697 132.759C36.936 132.958 36.4233 133.209 35.9454 133.516C35.0176 134.112 34.2049 134.876 33.5526 135.766C32.3527 137.437 31.6481 139.415 31.5295 141.473C31.4144 143.262 31.5818 145.059 32.0318 146.796C32.3632 148.237 32.9213 149.618 33.6782 150.888C34.2572 151.836 35.0211 152.66 35.928 153.309C36.507 153.717 37.1453 154.031 37.822 154.236C38.0522 154.303 38.2301 154.345 38.3522 154.372C38.4184 154.386 38.4847 154.407 38.544 154.435H38.5405Z" fill="#263238"/>
<path d="M78.0638 68.2736H31.9028V99.979H78.0638V68.2736Z" fill="#263238"/>
<path d="M57.7005 95.6534H51.415V107.615H57.7005V95.6534Z" fill="#263238"/>
<path d="M36.4966 107.155V111.456H60.3165V175.554H62.507V111.456L161.98 111.944V175.554H164.132V111.829L179.483 111.951V106.778L36.4966 107.155Z" fill="#263238"/>
<path d="M51.7396 110.618L61.1295 117.379L60.3168 118.164L50.8467 111.03L51.7396 110.618Z" fill="#263238"/>
<path d="M172.981 111.246L162.084 119.008L162.904 119.793L173.877 111.661L172.981 111.246Z" fill="#263238"/>
<path d="M95.7515 105.564H71.1328V107.378H95.7515V105.564Z" fill="#263238"/>
<path d="M125.313 21.9869L126.021 23.8951C126.094 24.1078 126.174 24.3625 126.227 24.5543H126.241C126.3 24.3625 126.366 24.1148 126.446 23.8811L127.088 21.9869H127.709L126.827 24.2892C126.408 25.3985 126.118 25.9636 125.721 26.3125C125.435 26.5671 125.149 26.6648 124.999 26.6927L124.852 26.1974C124.999 26.152 125.191 26.0578 125.365 25.9113C125.525 25.7857 125.724 25.559 125.86 25.259C125.888 25.1997 125.906 25.1509 125.906 25.1195C125.906 25.0881 125.892 25.0392 125.864 24.966L124.671 21.9904H125.313V21.9869Z" fill="#FF0000"/>
<path d="M130.004 25.2171L129.959 24.809H129.938C129.757 25.0636 129.411 25.2904 128.951 25.2904C128.299 25.2904 127.964 24.8299 127.964 24.3625C127.964 23.5811 128.658 23.1555 129.907 23.1625V23.0962C129.907 22.8276 129.833 22.3497 129.174 22.3497C128.874 22.3497 128.56 22.4439 128.334 22.5904L128.201 22.2032C128.466 22.0288 128.853 21.9172 129.261 21.9172C130.249 21.9172 130.489 22.5904 130.489 23.2393V24.4462C130.489 24.7253 130.503 25.0009 130.542 25.2206H130.008L130.004 25.2171ZM129.917 23.5672C129.275 23.5532 128.55 23.6683 128.55 24.2927C128.55 24.673 128.804 24.8543 129.104 24.8543C129.527 24.8543 129.792 24.5892 129.886 24.3137C129.907 24.2544 129.921 24.1881 129.921 24.1253V23.5637L129.917 23.5672Z" fill="#FF0000"/>
<path d="M131.434 22.859C131.434 22.5241 131.427 22.2521 131.406 21.9835H131.919L131.947 22.5032H131.968C132.149 22.1962 132.449 21.9102 132.983 21.9102C133.422 21.9102 133.757 22.1753 133.897 22.5555H133.911C134.012 22.3741 134.137 22.2346 134.27 22.1334C134.462 21.9869 134.678 21.9067 134.985 21.9067C135.411 21.9067 136.045 22.1858 136.045 23.309V25.2102H135.473V23.3823C135.473 22.7613 135.247 22.3881 134.772 22.3881C134.437 22.3881 134.179 22.6358 134.078 22.9218C134.05 23.002 134.033 23.1067 134.033 23.2148V25.2102H133.461V23.2741C133.461 22.7613 133.234 22.3881 132.788 22.3881C132.421 22.3881 132.153 22.6811 132.062 22.9741C132.027 23.0613 132.017 23.1625 132.017 23.2602V25.2102H131.445V22.8555L131.434 22.859Z" fill="#FF0000"/>
<path d="M137.001 20.4765H137.587V25.2137H137.001V20.4765Z" fill="#FF0000"/>
<path d="M39.2279 9.83009C39.2104 9.83009 39.2034 9.81962 39.2139 9.80567L39.3116 9.68009C39.3116 9.68009 39.343 9.65567 39.3639 9.65567H41.0172C41.0347 9.65567 41.0416 9.66962 41.0312 9.68358L40.951 9.80218C40.951 9.80218 40.9196 9.83009 40.9056 9.83009H39.2313H39.2279Z" fill="white"/>
<path d="M38.5301 10.2557C38.5127 10.2557 38.5057 10.2452 38.5161 10.2313L38.6138 10.1057C38.6138 10.1057 38.6452 10.0813 38.6661 10.0813H40.7764C40.7938 10.0813 40.8043 10.0952 40.8008 10.1092L40.7625 10.2208C40.759 10.2382 40.738 10.2487 40.7206 10.2487H38.5301V10.2557Z" fill="white"/>
<path d="M39.6497 10.6812C39.6323 10.6812 39.6253 10.6673 39.6358 10.6533L39.702 10.5382C39.702 10.5382 39.73 10.5103 39.7474 10.5103H40.6717C40.6892 10.5103 40.6996 10.5243 40.6996 10.5417L40.6892 10.6533C40.6892 10.6708 40.6717 10.6847 40.6578 10.6847H39.6497V10.6812Z" fill="white"/>
<path d="M44.4528 9.74638C44.1598 9.81963 43.961 9.87545 43.675 9.9487C43.6052 9.96614 43.6017 9.97312 43.5424 9.90335C43.4727 9.82312 43.4238 9.77428 43.3262 9.72893C43.0332 9.58591 42.7506 9.62777 42.489 9.7987C42.1751 10.001 42.0112 10.3045 42.0181 10.6778C42.0216 11.0475 42.2763 11.3545 42.6425 11.4033C42.9564 11.4452 43.2215 11.3336 43.4308 11.0964C43.4727 11.044 43.511 10.9882 43.5564 10.9254H42.6634C42.5658 10.9254 42.5448 10.8661 42.5762 10.7859C42.6355 10.6429 42.7471 10.4022 42.8134 10.2801C42.8274 10.2522 42.8588 10.2068 42.9285 10.2068H44.6133C44.6028 10.3324 44.6028 10.458 44.5854 10.5801C44.533 10.915 44.4109 11.2185 44.2052 11.4871C43.8703 11.9266 43.4378 12.1987 42.8867 12.2754C42.4332 12.3347 42.0112 12.2475 41.6414 11.9684C41.2996 11.7103 41.1043 11.3684 41.0554 10.9394C40.9961 10.4336 41.1426 9.98009 41.4496 9.58242C41.7775 9.15336 42.2135 8.87778 42.7437 8.78011C43.1797 8.69988 43.5947 8.7522 43.9715 9.00685C44.2156 9.16731 44.3935 9.39057 44.5086 9.65917C44.5365 9.70103 44.5191 9.72545 44.4633 9.7394L44.4528 9.74638Z" fill="white"/>
<path d="M45.984 12.3068C45.562 12.2963 45.1783 12.1777 44.8539 11.8987C44.5818 11.6615 44.4109 11.3615 44.3551 11.0057C44.2714 10.4824 44.4144 10.0185 44.7283 9.60683C45.0667 9.16381 45.4748 8.9301 46.0224 8.83242C46.4933 8.7487 46.9397 8.79405 47.3409 9.06963C47.7071 9.32079 47.9338 9.65567 47.9931 10.1022C48.0734 10.7266 47.892 11.2359 47.4595 11.6719C47.1525 11.9824 46.7793 12.1777 46.3503 12.2649C46.2247 12.2894 46.0991 12.2928 45.9805 12.3068H45.984ZM47.0862 10.4371C47.0828 10.3778 47.0827 10.3289 47.0723 10.2836C46.9886 9.8266 46.5665 9.56497 46.127 9.66962C45.698 9.76729 45.4189 10.0394 45.3178 10.4754C45.2341 10.8347 45.412 11.201 45.7433 11.351C45.998 11.4626 46.2526 11.4487 46.4968 11.3231C46.863 11.1347 47.0618 10.8382 47.0828 10.4405L47.0862 10.4371Z" fill="white"/>
<path d="M184.39 84.1629L183.072 82.8443C182.915 82.6839 182.817 82.4571 182.817 82.2339C182.817 82.1327 182.876 81.9722 182.918 81.8781L184.135 79.342L184.39 84.1629Z" fill="#01579B"/>
<path d="M188.903 79.5967L187.585 78.2781C187.47 78.163 187.229 78.0234 187.027 78.0234C186.852 78.0234 186.682 78.0583 186.57 78.1246L184.135 79.342L188.903 79.5967Z" fill="#40C4FF"/>
<path d="M185.96 85.7361H189.158V84.3687L186.772 83.6047L184.592 84.3687L185.96 85.7361Z" fill="#40C4FF"/>
<path d="M184.135 83.4548C184.135 83.8629 184.188 83.9606 184.39 84.1664L184.592 84.3687H189.158L186.926 81.8327L184.135 79.3455V83.4548Z" fill="#29B6F6"/>
<path d="M188.195 79.342H184.135L189.158 84.3652H190.529V81.2188L188.907 79.5932C188.68 79.363 188.478 79.3386 188.195 79.3386V79.342Z" fill="#01579B"/>
<path opacity="0.2" d="M184.439 84.2152C184.236 84.0129 184.184 83.8106 184.184 83.4548V79.3944L184.135 79.342V83.4513C184.135 83.8071 184.135 83.9083 184.439 84.2118V84.2152Z" fill="white"/>
<path opacity="0.2" d="M190.477 81.1699V84.3164H189.106L189.158 84.3687H190.529V81.2222L190.477 81.1699Z" fill="#263238"/>
<path opacity="0.2" d="M188.903 79.5967C188.652 79.3455 188.446 79.342 188.143 79.342H184.135L184.184 79.3909H188.143C188.293 79.3909 188.677 79.3665 188.903 79.5932V79.5967Z" fill="white"/>
<path opacity="0.2" d="M190.477 81.1699L188.904 79.5967L187.585 78.2781C187.47 78.163 187.229 78.0234 187.027 78.0234C186.853 78.0234 186.682 78.0583 186.57 78.1246L184.135 79.342L182.918 81.878C182.876 81.9722 182.817 82.1292 182.817 82.2339C182.817 82.4571 182.915 82.6804 183.072 82.8443L184.289 84.0513C184.32 84.0896 184.355 84.128 184.393 84.1629L184.442 84.2117L184.596 84.3652L185.914 85.6838L185.963 85.7326H189.158V84.3617H190.529V81.2153L190.48 81.1664L190.477 81.1699Z" fill="url(#paint0_radial_499_3333)"/>
</g>
<defs>
<radialGradient id="paint0_radial_499_3333" cx="0" cy="0" r="1" gradientUnits="userSpaceOnUse" gradientTransform="translate(186.671 81.8815) scale(3.8543 3.8546)">
<stop stop-color="white" stop-opacity="0.1"/>
<stop offset="1" stop-color="white" stop-opacity="0"/>
</radialGradient>
<clipPath id="clip0_499_3333">
<rect width="208" height="188" fill="white" transform="translate(0.666992)"/>
</clipPath>
</defs>
</svg>
