<svg width="534" height="166" viewBox="0 0 534 166" fill="none" xmlns="http://www.w3.org/2000/svg">
<path d="M82.3836 165.591L103.603 121.636L43.0876 0H0L82.3836 165.591Z" fill="white"/>
<path d="M102.514 38.5773L102.017 39.5773H129.496C139.059 39.5773 147.797 34.1644 152.057 25.6031L164.794 0C138.396 0 114.273 14.9425 102.514 38.577V38.5773Z" fill="url(#paint0_linear_474_902)"/>
<path d="M227.961 125.295L197.794 47.7949H207.794L225.461 92.9616C226.017 94.406 226.517 95.7949 226.961 97.1283C227.461 98.406 227.933 99.906 228.378 101.628C228.822 99.906 229.267 98.406 229.711 97.1283C230.211 95.7949 230.739 94.406 231.294 92.9616L248.878 47.7949H258.294L228.128 125.295H227.961ZM253.255 122.795L285.005 45.2949H285.172L316.922 122.795H306.839L298.005 100.545H271.755L262.839 122.795H253.255ZM274.922 92.6283H294.839L288.922 77.7949C288.2 75.906 287.505 74.0449 286.839 72.2116C286.172 70.3783 285.505 68.1838 284.839 65.6283C284.172 68.1838 283.533 70.3783 282.922 72.2116C282.311 73.9894 281.616 75.8505 280.839 77.7949L274.922 92.6283ZM328.935 122.795V47.7949H353.518C360.296 47.7949 366.185 48.906 371.185 51.1283C376.241 53.3505 380.407 56.2949 383.685 59.9616C386.963 63.6283 389.407 67.6838 391.018 72.1283C392.63 76.5171 393.435 80.906 393.435 85.2949C393.435 89.6838 392.63 94.1005 391.018 98.5449C389.407 102.934 386.963 106.962 383.685 110.628C380.407 114.295 376.241 117.239 371.185 119.462C366.185 121.684 360.296 122.795 353.518 122.795H328.935ZM338.435 114.295H352.518C358.296 114.295 363.157 113.406 367.102 111.628C371.046 109.795 374.241 107.434 376.685 104.545C379.13 101.6 380.88 98.4338 381.935 95.0449C383.046 91.656 383.602 88.406 383.602 85.2949C383.602 82.1838 383.046 78.9338 381.935 75.5449C380.88 72.156 379.13 69.0171 376.685 66.1283C374.241 63.1838 371.046 60.8227 367.102 59.0449C363.157 57.2116 358.296 56.2949 352.518 56.2949H338.435V114.295ZM408.974 122.795V47.7949H445.974V56.2949H418.474V72.2949H440.141V80.7949H418.474V114.295H445.974V122.795H408.974ZM522.974 125.295L470.474 69.0449V122.795H461.474V45.2949L513.974 101.545V47.7949H522.974V125.295Z" fill="white"/>
<defs>
<linearGradient id="paint0_linear_474_902" x1="102.017" y1="19.7886" x2="164.794" y2="19.7886" gradientUnits="userSpaceOnUse">
<stop stop-color="#7C1334"/>
<stop offset="1" stop-color="#C30F28"/>
</linearGradient>
</defs>
</svg>
